%TF.GenerationSoftware,KiCad,Pcbnew,7.0.2*%
%TF.CreationDate,2023-08-01T20:03:33-04:00*%
%TF.ProjectId,imu-testbed,696d752d-7465-4737-9462-65642e6b6963,rev?*%
%TF.SameCoordinates,Original*%
%TF.FileFunction,Copper,L1,Top*%
%TF.FilePolarity,Positive*%
%FSLAX46Y46*%
G04 Gerber Fmt 4.6, Leading zero omitted, Abs format (unit mm)*
G04 Created by KiCad (PCBNEW 7.0.2) date 2023-08-01 20:03:33*
%MOMM*%
%LPD*%
G01*
G04 APERTURE LIST*
G04 Aperture macros list*
%AMRoundRect*
0 Rectangle with rounded corners*
0 $1 Rounding radius*
0 $2 $3 $4 $5 $6 $7 $8 $9 X,Y pos of 4 corners*
0 Add a 4 corners polygon primitive as box body*
4,1,4,$2,$3,$4,$5,$6,$7,$8,$9,$2,$3,0*
0 Add four circle primitives for the rounded corners*
1,1,$1+$1,$2,$3*
1,1,$1+$1,$4,$5*
1,1,$1+$1,$6,$7*
1,1,$1+$1,$8,$9*
0 Add four rect primitives between the rounded corners*
20,1,$1+$1,$2,$3,$4,$5,0*
20,1,$1+$1,$4,$5,$6,$7,0*
20,1,$1+$1,$6,$7,$8,$9,0*
20,1,$1+$1,$8,$9,$2,$3,0*%
%AMFreePoly0*
4,1,6,1.000000,0.000000,0.500000,-0.750000,-0.500000,-0.750000,-0.500000,0.750000,0.500000,0.750000,1.000000,0.000000,1.000000,0.000000,$1*%
%AMFreePoly1*
4,1,6,0.500000,-0.750000,-0.650000,-0.750000,-0.150000,0.000000,-0.650000,0.750000,0.500000,0.750000,0.500000,-0.750000,0.500000,-0.750000,$1*%
G04 Aperture macros list end*
%TA.AperFunction,ComponentPad*%
%ADD10R,2.000000X2.000000*%
%TD*%
%TA.AperFunction,ComponentPad*%
%ADD11C,2.000000*%
%TD*%
%TA.AperFunction,SMDPad,CuDef*%
%ADD12RoundRect,0.250000X-0.262500X-0.450000X0.262500X-0.450000X0.262500X0.450000X-0.262500X0.450000X0*%
%TD*%
%TA.AperFunction,ComponentPad*%
%ADD13R,1.350000X1.350000*%
%TD*%
%TA.AperFunction,ComponentPad*%
%ADD14O,1.350000X1.350000*%
%TD*%
%TA.AperFunction,SMDPad,CuDef*%
%ADD15FreePoly0,0.000000*%
%TD*%
%TA.AperFunction,SMDPad,CuDef*%
%ADD16FreePoly1,0.000000*%
%TD*%
%TA.AperFunction,SMDPad,CuDef*%
%ADD17RoundRect,0.250000X0.300000X-0.300000X0.300000X0.300000X-0.300000X0.300000X-0.300000X-0.300000X0*%
%TD*%
%TA.AperFunction,SMDPad,CuDef*%
%ADD18RoundRect,0.002800X-0.262200X-0.137200X0.262200X-0.137200X0.262200X0.137200X-0.262200X0.137200X0*%
%TD*%
%TA.AperFunction,SMDPad,CuDef*%
%ADD19RoundRect,0.002800X0.137200X-0.262200X0.137200X0.262200X-0.137200X0.262200X-0.137200X-0.262200X0*%
%TD*%
%TA.AperFunction,SMDPad,CuDef*%
%ADD20RoundRect,0.002800X0.262200X0.137200X-0.262200X0.137200X-0.262200X-0.137200X0.262200X-0.137200X0*%
%TD*%
%TA.AperFunction,SMDPad,CuDef*%
%ADD21RoundRect,0.002800X-0.137200X0.262200X-0.137200X-0.262200X0.137200X-0.262200X0.137200X0.262200X0*%
%TD*%
%TA.AperFunction,SMDPad,CuDef*%
%ADD22RoundRect,0.250000X-0.475000X0.250000X-0.475000X-0.250000X0.475000X-0.250000X0.475000X0.250000X0*%
%TD*%
%TA.AperFunction,SMDPad,CuDef*%
%ADD23RoundRect,0.250000X0.250000X0.475000X-0.250000X0.475000X-0.250000X-0.475000X0.250000X-0.475000X0*%
%TD*%
%TA.AperFunction,SMDPad,CuDef*%
%ADD24RoundRect,0.250000X-0.250000X-0.475000X0.250000X-0.475000X0.250000X0.475000X-0.250000X0.475000X0*%
%TD*%
%TA.AperFunction,SMDPad,CuDef*%
%ADD25RoundRect,0.087500X-0.125000X-0.087500X0.125000X-0.087500X0.125000X0.087500X-0.125000X0.087500X0*%
%TD*%
%TA.AperFunction,SMDPad,CuDef*%
%ADD26RoundRect,0.087500X-0.087500X-0.125000X0.087500X-0.125000X0.087500X0.125000X-0.087500X0.125000X0*%
%TD*%
%TA.AperFunction,ComponentPad*%
%ADD27C,1.308000*%
%TD*%
%TA.AperFunction,ViaPad*%
%ADD28C,0.800000*%
%TD*%
%TA.AperFunction,Conductor*%
%ADD29C,0.250000*%
%TD*%
%TA.AperFunction,Conductor*%
%ADD30C,0.100000*%
%TD*%
G04 APERTURE END LIST*
D10*
%TO.P,BZ1,1,-*%
%TO.N,/Teensy 4.1/BUZZ*%
X123063000Y-107696000D03*
D11*
%TO.P,BZ1,2,+*%
%TO.N,GND*%
X128063000Y-107696000D03*
%TD*%
D12*
%TO.P,R14,1*%
%TO.N,/Teensy 4.1/1s lipo analog voltage splitter/V_SCALED*%
X129008500Y-99822000D03*
%TO.P,R14,2*%
%TO.N,GND*%
X130833500Y-99822000D03*
%TD*%
%TO.P,R13,1*%
%TO.N,/Teensy 4.1/VIN*%
X128985000Y-96364000D03*
%TO.P,R13,2*%
%TO.N,/Teensy 4.1/1s lipo analog voltage splitter/V_SCALED*%
X130810000Y-96364000D03*
%TD*%
D13*
%TO.P,J2,1,Pin_1*%
%TO.N,/BATT_IN*%
X129667000Y-88932000D03*
D14*
%TO.P,J2,2,Pin_2*%
%TO.N,/Teensy 4.1/VIN*%
X129667000Y-90932000D03*
%TD*%
D15*
%TO.P,R12,1*%
%TO.N,GND*%
X128651000Y-145288000D03*
D16*
%TO.P,R12,2*%
%TO.N,Net-(U3-DEN_A{slash}G)*%
X130101000Y-145288000D03*
%TD*%
D15*
%TO.P,R11,1*%
%TO.N,+3V3*%
X128651000Y-142627000D03*
D16*
%TO.P,R11,2*%
%TO.N,Net-(U3-DEN_A{slash}G)*%
X130101000Y-142627000D03*
%TD*%
%TO.P,R10,2*%
%TO.N,Net-(U2-DEN_A{slash}G)*%
X154485000Y-145282000D03*
D15*
%TO.P,R10,1*%
%TO.N,GND*%
X153035000Y-145282000D03*
%TD*%
D16*
%TO.P,R9,2*%
%TO.N,Net-(U2-DEN_A{slash}G)*%
X154485000Y-142621000D03*
D15*
%TO.P,R9,1*%
%TO.N,+3V3*%
X153035000Y-142621000D03*
%TD*%
D14*
%TO.P,J1,2,Pin_2*%
%TO.N,GND*%
X127524000Y-76073000D03*
D13*
%TO.P,J1,1,Pin_1*%
%TO.N,Net-(D1-A)*%
X129524000Y-76073000D03*
%TD*%
D17*
%TO.P,D1,1,K*%
%TO.N,/BATT_IN*%
X129667000Y-85093000D03*
%TO.P,D1,2,A*%
%TO.N,Net-(D1-A)*%
X129667000Y-82293000D03*
%TD*%
D18*
%TO.P,U3,1,VDDIO*%
%TO.N,+3V3*%
X135840000Y-141878000D03*
D19*
%TO.P,U3,2,SCL/SPC*%
%TO.N,/Barometric pressure sensor/SCL*%
X135265000Y-141913000D03*
%TO.P,U3,3,VDDIO*%
%TO.N,+3V3*%
X134835000Y-141913000D03*
%TO.P,U3,4,SDA/SDI/SDO*%
%TO.N,/Barometric pressure sensor/SDA*%
X134405000Y-141913000D03*
%TO.P,U3,5,SDO_A/G*%
%TO.N,Net-(U3-SDO_A{slash}G)*%
X133975000Y-141913000D03*
D20*
%TO.P,U3,6,SDO_M*%
%TO.N,Net-(U3-SDO_M)*%
X133400000Y-141878000D03*
%TO.P,U3,7,CS_A/G*%
%TO.N,+3V3*%
X133400000Y-142308000D03*
%TO.P,U3,8,CS_M*%
X133400000Y-142738000D03*
%TO.P,U3,9,DRDY_M*%
%TO.N,unconnected-(U3-DRDY_M-Pad9)*%
X133400000Y-143168000D03*
%TO.P,U3,10,INT_M*%
%TO.N,unconnected-(U3-INT_M-Pad10)*%
X133400000Y-143598000D03*
%TO.P,U3,11,INT1_A/G*%
%TO.N,unconnected-(U3-INT1_A{slash}G-Pad11)*%
X133400000Y-144028000D03*
%TO.P,U3,12,INT2_A/G*%
%TO.N,unconnected-(U3-INT2_A{slash}G-Pad12)*%
X133400000Y-144458000D03*
%TO.P,U3,13,DEN_A/G*%
%TO.N,Net-(U3-DEN_A{slash}G)*%
X133400000Y-144888000D03*
D21*
%TO.P,U3,14*%
%TO.N,N/C*%
X133975000Y-144853000D03*
%TO.P,U3,15*%
X134405000Y-144853000D03*
%TO.P,U3,16*%
X134835000Y-144853000D03*
%TO.P,U3,17*%
X135265000Y-144853000D03*
D18*
%TO.P,U3,18*%
X135840000Y-144888000D03*
%TO.P,U3,19,GND*%
%TO.N,GND*%
X135840000Y-144458000D03*
%TO.P,U3,20,GND*%
X135840000Y-144028000D03*
%TO.P,U3,21,CAP*%
%TO.N,Net-(U3-CAP)*%
X135840000Y-143598000D03*
%TO.P,U3,22,VDD*%
%TO.N,+3V3*%
X135840000Y-143168000D03*
%TO.P,U3,23,VDD*%
X135840000Y-142738000D03*
%TO.P,U3,24,C1*%
%TO.N,Net-(U3-C1)*%
X135840000Y-142308000D03*
%TD*%
D22*
%TO.P,C8,1*%
%TO.N,Net-(U3-C1)*%
X139269000Y-140792000D03*
%TO.P,C8,2*%
%TO.N,GND*%
X139269000Y-142692000D03*
%TD*%
%TO.P,C7,1*%
%TO.N,Net-(U3-CAP)*%
X139269000Y-144348000D03*
%TO.P,C7,2*%
%TO.N,GND*%
X139269000Y-146248000D03*
%TD*%
D23*
%TO.P,C6,1*%
%TO.N,GND*%
X137425000Y-139583000D03*
%TO.P,C6,2*%
%TO.N,+3V3*%
X135525000Y-139583000D03*
%TD*%
D24*
%TO.P,C5,1*%
%TO.N,GND*%
X131715000Y-139583000D03*
%TO.P,C5,2*%
%TO.N,+3V3*%
X133615000Y-139583000D03*
%TD*%
D18*
%TO.P,U2,1,VDDIO*%
%TO.N,+3V3*%
X146077000Y-141888000D03*
D19*
%TO.P,U2,2,SCL/SPC*%
%TO.N,/Barometric pressure sensor/SCL*%
X145502000Y-141923000D03*
%TO.P,U2,3,VDDIO*%
%TO.N,+3V3*%
X145072000Y-141923000D03*
%TO.P,U2,4,SDA/SDI/SDO*%
%TO.N,/Barometric pressure sensor/SDA*%
X144642000Y-141923000D03*
%TO.P,U2,5,SDO_A/G*%
%TO.N,Net-(U2-SDO_A{slash}G)*%
X144212000Y-141923000D03*
D20*
%TO.P,U2,6,SDO_M*%
%TO.N,Net-(U2-SDO_M)*%
X143637000Y-141888000D03*
%TO.P,U2,7,CS_A/G*%
%TO.N,+3V3*%
X143637000Y-142318000D03*
%TO.P,U2,8,CS_M*%
X143637000Y-142748000D03*
%TO.P,U2,9,DRDY_M*%
%TO.N,unconnected-(U2-DRDY_M-Pad9)*%
X143637000Y-143178000D03*
%TO.P,U2,10,INT_M*%
%TO.N,unconnected-(U2-INT_M-Pad10)*%
X143637000Y-143608000D03*
%TO.P,U2,11,INT1_A/G*%
%TO.N,unconnected-(U2-INT1_A{slash}G-Pad11)*%
X143637000Y-144038000D03*
%TO.P,U2,12,INT2_A/G*%
%TO.N,unconnected-(U2-INT2_A{slash}G-Pad12)*%
X143637000Y-144468000D03*
%TO.P,U2,13,DEN_A/G*%
%TO.N,Net-(U2-DEN_A{slash}G)*%
X143637000Y-144898000D03*
D21*
%TO.P,U2,14*%
%TO.N,N/C*%
X144212000Y-144863000D03*
%TO.P,U2,15*%
X144642000Y-144863000D03*
%TO.P,U2,16*%
X145072000Y-144863000D03*
%TO.P,U2,17*%
X145502000Y-144863000D03*
D18*
%TO.P,U2,18*%
X146077000Y-144898000D03*
%TO.P,U2,19,GND*%
%TO.N,GND*%
X146077000Y-144468000D03*
%TO.P,U2,20,GND*%
X146077000Y-144038000D03*
%TO.P,U2,21,CAP*%
%TO.N,Net-(U2-CAP)*%
X146077000Y-143608000D03*
%TO.P,U2,22,VDD*%
%TO.N,+3V3*%
X146077000Y-143178000D03*
%TO.P,U2,23,VDD*%
X146077000Y-142748000D03*
%TO.P,U2,24,C1*%
%TO.N,Net-(U2-C1)*%
X146077000Y-142318000D03*
%TD*%
D22*
%TO.P,C4,1*%
%TO.N,Net-(U2-C1)*%
X149517000Y-140719000D03*
%TO.P,C4,2*%
%TO.N,GND*%
X149517000Y-142619000D03*
%TD*%
D24*
%TO.P,C3,1*%
%TO.N,GND*%
X141963000Y-139510000D03*
%TO.P,C3,2*%
%TO.N,+3V3*%
X143863000Y-139510000D03*
%TD*%
D23*
%TO.P,C2,1*%
%TO.N,GND*%
X147673000Y-139510000D03*
%TO.P,C2,2*%
%TO.N,+3V3*%
X145773000Y-139510000D03*
%TD*%
D22*
%TO.P,C1,1*%
%TO.N,Net-(U2-CAP)*%
X149517000Y-144275000D03*
%TO.P,C1,2*%
%TO.N,GND*%
X149517000Y-146175000D03*
%TD*%
D25*
%TO.P,U8,1,Vdd_IO*%
%TO.N,+3V3*%
X132207000Y-133096000D03*
%TO.P,U8,2,SCL*%
%TO.N,/Barometric pressure sensor/SCL*%
X132207000Y-133596000D03*
D26*
%TO.P,U8,3,RES*%
%TO.N,GND*%
X132469500Y-134108500D03*
%TO.P,U8,4,SDA*%
%TO.N,/Barometric pressure sensor/SDA*%
X132969500Y-134108500D03*
%TO.P,U8,5,SA0*%
%TO.N,GND*%
X133469500Y-134108500D03*
D25*
%TO.P,U8,6,~{CS}*%
%TO.N,+3V3*%
X133732000Y-133596000D03*
%TO.P,U8,7,INT_DRDY*%
%TO.N,unconnected-(U8-INT_DRDY-Pad7)*%
X133732000Y-133096000D03*
D26*
%TO.P,U8,8,GND*%
%TO.N,GND*%
X133469500Y-132583500D03*
%TO.P,U8,9,GND*%
X132969500Y-132583500D03*
%TO.P,U8,10,VDD*%
%TO.N,+3V3*%
X132469500Y-132583500D03*
%TD*%
D27*
%TO.P,U1,0,RX1*%
%TO.N,unconnected-(U1-RX1-Pad0)*%
X138049000Y-79756000D03*
%TO.P,U1,1,TX1*%
%TO.N,unconnected-(U1-TX1-Pad1)*%
X138049000Y-82296000D03*
%TO.P,U1,2,OUT2*%
%TO.N,unconnected-(U1-OUT2-Pad2)*%
X138049000Y-84836000D03*
%TO.P,U1,3,LRCLK2*%
%TO.N,unconnected-(U1-LRCLK2-Pad3)*%
X138049000Y-87376000D03*
%TO.P,U1,3.3V_1,3.3V*%
%TO.N,+3V3*%
X138049000Y-112776000D03*
%TO.P,U1,3.3V_2,3.3V*%
X153289000Y-82296000D03*
%TO.P,U1,4,BCLK2*%
%TO.N,unconnected-(U1-BCLK2-Pad4)*%
X138049000Y-89916000D03*
%TO.P,U1,5,IN2*%
%TO.N,unconnected-(U1-IN2-Pad5)*%
X138049000Y-92456000D03*
%TO.P,U1,6,OUT1D*%
%TO.N,unconnected-(U1-OUT1D-Pad6)*%
X138049000Y-94996000D03*
%TO.P,U1,7,RX2*%
%TO.N,unconnected-(U1-RX2-Pad7)*%
X138049000Y-97536000D03*
%TO.P,U1,8,TX2*%
%TO.N,unconnected-(U1-TX2-Pad8)*%
X138049000Y-100076000D03*
%TO.P,U1,9,OUT1C*%
%TO.N,unconnected-(U1-OUT1C-Pad9)*%
X138049000Y-102616000D03*
%TO.P,U1,10,CS1*%
%TO.N,unconnected-(U1-CS1-Pad10)*%
X138049000Y-105156000D03*
%TO.P,U1,11,MOSI*%
%TO.N,unconnected-(U1-MOSI-Pad11)*%
X138049000Y-107696000D03*
%TO.P,U1,12,MISO*%
%TO.N,unconnected-(U1-MISO-Pad12)*%
X138049000Y-110236000D03*
%TO.P,U1,13,SCK*%
%TO.N,unconnected-(U1-SCK-Pad13)*%
X153289000Y-110236000D03*
%TO.P,U1,14,A0*%
%TO.N,/Teensy 4.1/1s lipo analog voltage splitter/V_SCALED*%
X153289000Y-107696000D03*
%TO.P,U1,15,A1*%
%TO.N,unconnected-(U1-A1-Pad15)*%
X153289000Y-105156000D03*
%TO.P,U1,16,A2*%
%TO.N,unconnected-(U1-A2-Pad16)*%
X153289000Y-102616000D03*
%TO.P,U1,17,A3*%
%TO.N,/Teensy 4.1/BUZZ*%
X153289000Y-100076000D03*
%TO.P,U1,18,A4*%
%TO.N,/Barometric pressure sensor/SDA*%
X153289000Y-97536000D03*
%TO.P,U1,19,A5*%
%TO.N,/Barometric pressure sensor/SCL*%
X153289000Y-94996000D03*
%TO.P,U1,20,A6*%
%TO.N,unconnected-(U1-A6-Pad20)*%
X153289000Y-92456000D03*
%TO.P,U1,21,A7*%
%TO.N,unconnected-(U1-A7-Pad21)*%
X153289000Y-89916000D03*
%TO.P,U1,22,A8*%
%TO.N,unconnected-(U1-A8-Pad22)*%
X153289000Y-87376000D03*
%TO.P,U1,23,A9*%
%TO.N,unconnected-(U1-A9-Pad23)*%
X153289000Y-84836000D03*
%TO.P,U1,24,A10*%
%TO.N,unconnected-(U1-A10-Pad24)*%
X138049000Y-115316000D03*
%TO.P,U1,25,A11*%
%TO.N,unconnected-(U1-A11-Pad25)*%
X138049000Y-117856000D03*
%TO.P,U1,26,A12*%
%TO.N,unconnected-(U1-A12-Pad26)*%
X138049000Y-120396000D03*
%TO.P,U1,27,A13*%
%TO.N,unconnected-(U1-A13-Pad27)*%
X138049000Y-122936000D03*
%TO.P,U1,28,RX7*%
%TO.N,unconnected-(U1-RX7-Pad28)*%
X138049000Y-125476000D03*
%TO.P,U1,29,TX7*%
%TO.N,unconnected-(U1-TX7-Pad29)*%
X138049000Y-128016000D03*
%TO.P,U1,30,CRX3*%
%TO.N,unconnected-(U1-CRX3-Pad30)*%
X138049000Y-130556000D03*
%TO.P,U1,31,CTX3*%
%TO.N,unconnected-(U1-CTX3-Pad31)*%
X138049000Y-133096000D03*
%TO.P,U1,32,OUT1B*%
%TO.N,unconnected-(U1-OUT1B-Pad32)*%
X138049000Y-135636000D03*
%TO.P,U1,33,MCLK2*%
%TO.N,unconnected-(U1-MCLK2-Pad33)*%
X153289000Y-135636000D03*
%TO.P,U1,34,RX8*%
%TO.N,unconnected-(U1-RX8-Pad34)*%
X153289000Y-133096000D03*
%TO.P,U1,35,TX8*%
%TO.N,unconnected-(U1-TX8-Pad35)*%
X153289000Y-130556000D03*
%TO.P,U1,36,CS2*%
%TO.N,unconnected-(U1-CS2-Pad36)*%
X153289000Y-128016000D03*
%TO.P,U1,37,CS3*%
%TO.N,unconnected-(U1-CS3-Pad37)*%
X153289000Y-125476000D03*
%TO.P,U1,38,A14*%
%TO.N,unconnected-(U1-A14-Pad38)*%
X153289000Y-122936000D03*
%TO.P,U1,39,A15*%
%TO.N,unconnected-(U1-A15-Pad39)*%
X153289000Y-120396000D03*
%TO.P,U1,40,A16*%
%TO.N,unconnected-(U1-A16-Pad40)*%
X153289000Y-117856000D03*
%TO.P,U1,41,A17*%
%TO.N,unconnected-(U1-A17-Pad41)*%
X153289000Y-115316000D03*
%TO.P,U1,GND1,GND*%
%TO.N,GND*%
X138049000Y-77216000D03*
%TO.P,U1,GND2,GND*%
X153289000Y-112776000D03*
%TO.P,U1,GND3,GND*%
X153289000Y-79756000D03*
%TO.P,U1,VIN,VIN*%
%TO.N,/Teensy 4.1/VIN*%
X153289000Y-77216000D03*
%TD*%
D24*
%TO.P,C13,1*%
%TO.N,+3V3*%
X132019000Y-130937000D03*
%TO.P,C13,2*%
%TO.N,GND*%
X133919000Y-130937000D03*
%TD*%
D28*
%TO.N,/Teensy 4.1/BUZZ*%
X146812000Y-99568000D03*
X144526000Y-99568000D03*
%TO.N,/Teensy 4.1/1s lipo analog voltage splitter/V_SCALED*%
X147828000Y-100965000D03*
X147828000Y-100965000D03*
X143637000Y-100965000D03*
%TO.N,GND*%
X130048000Y-137668000D03*
X135382000Y-134239000D03*
X131318000Y-134874000D03*
X149479000Y-131064000D03*
%TO.N,+3V3*%
X149479000Y-115316000D03*
X142875000Y-115316000D03*
X149479000Y-127508000D03*
X142875000Y-127508000D03*
%TO.N,Net-(U2-SDO_A{slash}G)*%
X151511000Y-121031000D03*
%TO.N,Net-(U2-SDO_M)*%
X148082000Y-134620000D03*
X142494000Y-141478000D03*
%TO.N,Net-(U2-SDO_A{slash}G)*%
X144780000Y-143129000D03*
%TO.N,Net-(U3-SDO_A{slash}G)*%
X131953000Y-118872000D03*
%TO.N,Net-(U3-SDO_M)*%
X132207000Y-127508000D03*
%TO.N,Net-(U3-SDO_A{slash}G)*%
X134620000Y-143256000D03*
%TO.N,Net-(U3-SDO_M)*%
X132334000Y-141605000D03*
%TO.N,Net-(U3-SDO_A{slash}G)*%
X141351000Y-118872000D03*
%TO.N,Net-(U2-SDO_A{slash}G)*%
X147955000Y-118872000D03*
%TO.N,Net-(U3-SDO_M)*%
X141351000Y-131064000D03*
%TO.N,Net-(U2-SDO_M)*%
X147955000Y-131064000D03*
%TO.N,/Barometric pressure sensor/SCL*%
X135255000Y-135763000D03*
%TO.N,/Barometric pressure sensor/SDA*%
X132969000Y-135763000D03*
%TO.N,/Barometric pressure sensor/SCL*%
X146215000Y-140907000D03*
%TO.N,/Barometric pressure sensor/SDA*%
X144691000Y-140907000D03*
%TO.N,GND*%
X147231000Y-144463000D03*
%TO.N,Net-(U2-C1)*%
X149517000Y-140653000D03*
X147358000Y-142558000D03*
%TO.N,Net-(U3-C1)*%
X139269000Y-140726000D03*
X137237000Y-142123000D03*
%TO.N,GND*%
X136856000Y-143901000D03*
%TO.N,/Barometric pressure sensor/SDA*%
X134062000Y-140980000D03*
%TO.N,/Barometric pressure sensor/SCL*%
X135713000Y-140980000D03*
%TD*%
D29*
%TO.N,/Teensy 4.1/BUZZ*%
X144526000Y-102870000D02*
X144526000Y-99568000D01*
X138375000Y-109021000D02*
X144526000Y-102870000D01*
X123063000Y-107696000D02*
X124388000Y-109021000D01*
X124388000Y-109021000D02*
X138375000Y-109021000D01*
X147320000Y-100076000D02*
X153289000Y-100076000D01*
X146812000Y-99568000D02*
X147320000Y-100076000D01*
%TO.N,/Teensy 4.1/1s lipo analog voltage splitter/V_SCALED*%
X147828000Y-102235000D02*
X153289000Y-107696000D01*
X147828000Y-100965000D02*
X147828000Y-102235000D01*
X143510000Y-101092000D02*
X143637000Y-100965000D01*
X133881500Y-101092000D02*
X143510000Y-101092000D01*
X130810000Y-98020500D02*
X133881500Y-101092000D01*
%TO.N,/Teensy 4.1/VIN*%
X129667000Y-95682000D02*
X128985000Y-96364000D01*
X129667000Y-90932000D02*
X129667000Y-95682000D01*
%TO.N,/Teensy 4.1/1s lipo analog voltage splitter/V_SCALED*%
X130810000Y-98020500D02*
X129008500Y-99822000D01*
X130810000Y-96364000D02*
X130810000Y-98020500D01*
%TO.N,+3V3*%
X140335000Y-112776000D02*
X138049000Y-112776000D01*
X142875000Y-115316000D02*
X140335000Y-112776000D01*
X135636000Y-112776000D02*
X129667000Y-118745000D01*
X129667000Y-118745000D02*
X129667000Y-125730000D01*
X138049000Y-112776000D02*
X135636000Y-112776000D01*
%TO.N,/Teensy 4.1/VIN*%
X146939000Y-83566000D02*
X153289000Y-77216000D01*
X137033000Y-83566000D02*
X146939000Y-83566000D01*
X129667000Y-90932000D02*
X137033000Y-83566000D01*
%TO.N,/BATT_IN*%
X129667000Y-85093000D02*
X129667000Y-88932000D01*
D30*
%TO.N,GND*%
X147673000Y-140307107D02*
X149517000Y-142151107D01*
X147673000Y-139510000D02*
X147673000Y-140307107D01*
X149517000Y-142151107D02*
X149517000Y-142619000D01*
%TO.N,Net-(U2-DEN_A{slash}G)*%
X145020000Y-146925000D02*
X143637000Y-145542000D01*
X154485000Y-145282000D02*
X154485000Y-145435554D01*
X154485000Y-145435554D02*
X152995554Y-146925000D01*
X152995554Y-146925000D02*
X145020000Y-146925000D01*
X143637000Y-145542000D02*
X143637000Y-144898000D01*
%TO.N,Net-(U3-DEN_A{slash}G)*%
X130101000Y-145288000D02*
X133000000Y-145288000D01*
X133000000Y-145288000D02*
X133400000Y-144888000D01*
%TO.N,Net-(U2-DEN_A{slash}G)*%
X154485000Y-142621000D02*
X154485000Y-145282000D01*
%TO.N,Net-(U3-DEN_A{slash}G)*%
X130101000Y-142627000D02*
X130101000Y-145288000D01*
D29*
%TO.N,+3V3*%
X152908000Y-142571827D02*
X152908000Y-142627000D01*
X148257673Y-137921500D02*
X152908000Y-142571827D01*
X131953500Y-137921500D02*
X148257673Y-137921500D01*
X131953500Y-137921500D02*
X133615000Y-139583000D01*
X129667000Y-135635000D02*
X131953500Y-137921500D01*
X129667000Y-135635000D02*
X128778000Y-136524000D01*
X128778000Y-136524000D02*
X128778000Y-142627000D01*
D30*
%TO.N,GND*%
X133600000Y-134239000D02*
X135382000Y-134239000D01*
X133469500Y-134108500D02*
X133600000Y-134239000D01*
X131704000Y-134874000D02*
X131318000Y-134874000D01*
X132469500Y-134108500D02*
X131704000Y-134874000D01*
D29*
%TO.N,+3V3*%
X142875000Y-127508000D02*
X149479000Y-127508000D01*
X141822000Y-126455000D02*
X142875000Y-127508000D01*
X130392000Y-126455000D02*
X141822000Y-126455000D01*
X129667000Y-125730000D02*
X130392000Y-126455000D01*
X129667000Y-125730000D02*
X129667000Y-129540000D01*
X142875000Y-115316000D02*
X149479000Y-115316000D01*
D30*
%TO.N,Net-(U2-SDO_A{slash}G)*%
X150114000Y-121031000D02*
X147955000Y-118872000D01*
X151511000Y-121031000D02*
X150114000Y-121031000D01*
%TO.N,Net-(U2-SDO_M)*%
X148082000Y-131191000D02*
X147955000Y-131064000D01*
X148082000Y-134620000D02*
X148082000Y-131191000D01*
X142904000Y-141888000D02*
X142494000Y-141478000D01*
X143637000Y-141888000D02*
X142904000Y-141888000D01*
%TO.N,+3V3*%
X142713000Y-139862000D02*
X143065000Y-139510000D01*
X142713000Y-140192107D02*
X142713000Y-139862000D01*
X143065000Y-139510000D02*
X143863000Y-139510000D01*
X142090000Y-140485000D02*
X142420107Y-140485000D01*
X142420107Y-140485000D02*
X142713000Y-140192107D01*
X141605000Y-140970000D02*
X142090000Y-140485000D01*
X142341000Y-142748000D02*
X141605000Y-142012000D01*
X141605000Y-142012000D02*
X141605000Y-140970000D01*
X143637000Y-142748000D02*
X142341000Y-142748000D01*
%TO.N,Net-(U2-SDO_A{slash}G)*%
X144212000Y-142561000D02*
X144780000Y-143129000D01*
X144212000Y-141923000D02*
X144212000Y-142561000D01*
%TO.N,Net-(U3-SDO_A{slash}G)*%
X131953000Y-118872000D02*
X141351000Y-118872000D01*
%TO.N,Net-(U3-SDO_M)*%
X139700000Y-129413000D02*
X141351000Y-131064000D01*
X134112000Y-129413000D02*
X139700000Y-129413000D01*
X132207000Y-127508000D02*
X134112000Y-129413000D01*
%TO.N,Net-(U3-SDO_A{slash}G)*%
X133975000Y-142611000D02*
X134620000Y-143256000D01*
X133975000Y-141913000D02*
X133975000Y-142611000D01*
%TO.N,Net-(U3-SDO_M)*%
X132334000Y-141605000D02*
X132207000Y-141732000D01*
X132353000Y-141878000D02*
X132334000Y-141605000D01*
X133400000Y-141878000D02*
X132353000Y-141878000D01*
%TO.N,+3V3*%
X132959000Y-139583000D02*
X133615000Y-139583000D01*
X132172107Y-140558000D02*
X132465000Y-140265107D01*
X131984000Y-140558000D02*
X132172107Y-140558000D01*
X132465000Y-140265107D02*
X132465000Y-140077000D01*
X132465000Y-140077000D02*
X132959000Y-139583000D01*
X131639000Y-140903000D02*
X131984000Y-140558000D01*
X131894000Y-142308000D02*
X131639000Y-142053000D01*
X132665000Y-142308000D02*
X131894000Y-142308000D01*
X131639000Y-142053000D02*
X131639000Y-140903000D01*
%TO.N,GND*%
X134742500Y-132583500D02*
X134747000Y-132588000D01*
X133469500Y-132583500D02*
X134742500Y-132583500D01*
X132969500Y-132583500D02*
X133469500Y-132583500D01*
D29*
%TO.N,+3V3*%
X145669000Y-93345000D02*
X145669000Y-105156000D01*
X145669000Y-105156000D02*
X138049000Y-112776000D01*
X153694516Y-85815000D02*
X153199000Y-85815000D01*
X154268000Y-85241516D02*
X153694516Y-85815000D01*
X154268000Y-83275000D02*
X154268000Y-85241516D01*
X153289000Y-82296000D02*
X154268000Y-83275000D01*
X153199000Y-85815000D02*
X145669000Y-93345000D01*
%TO.N,/Barometric pressure sensor/SCL*%
X131535000Y-136488000D02*
X134530000Y-136488000D01*
X130810000Y-135763000D02*
X131535000Y-136488000D01*
X134530000Y-136488000D02*
X135255000Y-135763000D01*
X130556000Y-135509000D02*
X130810000Y-135763000D01*
X130691000Y-133596000D02*
X130556000Y-133731000D01*
X132207000Y-133596000D02*
X130691000Y-133596000D01*
X130556000Y-133731000D02*
X130556000Y-135509000D01*
%TO.N,/Barometric pressure sensor/SDA*%
X132969000Y-135763000D02*
X132969500Y-135762500D01*
X132969500Y-134108500D02*
X132969000Y-135763000D01*
%TO.N,+3V3*%
X130622000Y-129540000D02*
X132019000Y-130937000D01*
X129667000Y-129540000D02*
X130622000Y-129540000D01*
X129667000Y-129540000D02*
X129667000Y-135635000D01*
D30*
X133292203Y-133596000D02*
X133732000Y-133596000D01*
X132792203Y-133096000D02*
X133292203Y-133596000D01*
X132207000Y-133096000D02*
X132792203Y-133096000D01*
X132469500Y-132583500D02*
X132469500Y-132833500D01*
X132469500Y-132833500D02*
X132207000Y-133096000D01*
X132019000Y-132133000D02*
X132469500Y-132583500D01*
X132019000Y-130937000D02*
X132019000Y-132133000D01*
X142888000Y-138535000D02*
X143863000Y-139510000D01*
X136428450Y-138535000D02*
X142888000Y-138535000D01*
X135525000Y-139438450D02*
X136428450Y-138535000D01*
X135525000Y-139583000D02*
X135525000Y-139438450D01*
D29*
%TO.N,Net-(D1-A)*%
X129524000Y-76073000D02*
X129524000Y-82150000D01*
X129524000Y-82150000D02*
X129667000Y-82293000D01*
D30*
%TO.N,/Barometric pressure sensor/SCL*%
X146215000Y-140907000D02*
X146088000Y-141034000D01*
X146058351Y-141034000D02*
X146215000Y-140907000D01*
X145502000Y-141590351D02*
X146058351Y-141034000D01*
X145502000Y-141923000D02*
X145502000Y-141590351D01*
%TO.N,/Barometric pressure sensor/SDA*%
X144691000Y-140907000D02*
X144691000Y-141034000D01*
%TO.N,+3V3*%
X145453000Y-139830000D02*
X145773000Y-139510000D01*
X145453000Y-141215087D02*
X145453000Y-139830000D01*
X145072000Y-141596087D02*
X145453000Y-141215087D01*
X145072000Y-141923000D02*
X145072000Y-141596087D01*
%TO.N,/Barometric pressure sensor/SDA*%
X144642000Y-141083000D02*
X144691000Y-140907000D01*
X144642000Y-141923000D02*
X144642000Y-141083000D01*
%TO.N,Net-(U2-SDO_M)*%
X143672000Y-141923000D02*
X143637000Y-141888000D01*
X143637000Y-141888000D02*
X143675000Y-141850000D01*
%TO.N,GND*%
X147231000Y-144590000D02*
X147231000Y-144590000D01*
X147231000Y-144463000D02*
X147231000Y-144590000D01*
X147104000Y-144463000D02*
X147231000Y-144463000D01*
X147109000Y-144468000D02*
X147104000Y-144463000D01*
X146077000Y-144468000D02*
X147109000Y-144468000D01*
X146077000Y-144038000D02*
X146077000Y-144468000D01*
%TO.N,+3V3*%
X148008000Y-141811000D02*
X147866000Y-141669000D01*
X148008000Y-142827239D02*
X148008000Y-141811000D01*
X147627239Y-143208000D02*
X148008000Y-142827239D01*
X146107000Y-143208000D02*
X147627239Y-143208000D01*
X146077000Y-143178000D02*
X146107000Y-143208000D01*
%TO.N,Net-(U2-C1)*%
X147358000Y-142558000D02*
X147231000Y-142431000D01*
X147118000Y-142318000D02*
X147358000Y-142558000D01*
X146077000Y-142318000D02*
X147118000Y-142318000D01*
%TO.N,Net-(U2-CAP)*%
X148850000Y-143608000D02*
X149517000Y-144275000D01*
X146077000Y-143608000D02*
X148850000Y-143608000D01*
%TO.N,+3V3*%
X143637000Y-142318000D02*
X143637000Y-142748000D01*
X146077000Y-143178000D02*
X146077000Y-142748000D01*
X146916000Y-140653000D02*
X145773000Y-139510000D01*
X147358000Y-140653000D02*
X146916000Y-140653000D01*
X147866000Y-141161000D02*
X147358000Y-140653000D01*
X147866000Y-141669000D02*
X147866000Y-141161000D01*
X147647000Y-141888000D02*
X147866000Y-141669000D01*
X146077000Y-141888000D02*
X147647000Y-141888000D01*
D29*
X143863000Y-139510000D02*
X145773000Y-139510000D01*
D30*
%TO.N,Net-(U3-C1)*%
X137052000Y-142308000D02*
X137237000Y-142123000D01*
X135840000Y-142308000D02*
X137052000Y-142308000D01*
%TO.N,+3V3*%
X136348000Y-139583000D02*
X135525000Y-139583000D01*
X136675000Y-139910000D02*
X136348000Y-139583000D01*
X136675000Y-140265107D02*
X136675000Y-139910000D01*
X137323000Y-140558000D02*
X136967893Y-140558000D01*
X137999000Y-142631000D02*
X137999000Y-141234000D01*
X137679000Y-142951000D02*
X137999000Y-142631000D01*
X136967893Y-140558000D02*
X136675000Y-140265107D01*
X136462497Y-142951000D02*
X137679000Y-142951000D01*
X137999000Y-141234000D02*
X137323000Y-140558000D01*
X136245497Y-143168000D02*
X136462497Y-142951000D01*
X135840000Y-143168000D02*
X136245497Y-143168000D01*
%TO.N,Net-(U3-CAP)*%
X136586761Y-143251000D02*
X138172000Y-143251000D01*
X136239761Y-143598000D02*
X136586761Y-143251000D01*
X138172000Y-143251000D02*
X139269000Y-144348000D01*
X135840000Y-143598000D02*
X136239761Y-143598000D01*
%TO.N,+3V3*%
X135840000Y-143168000D02*
X135840000Y-142738000D01*
%TO.N,GND*%
X136983000Y-143901000D02*
X136983000Y-143901000D01*
X136856000Y-143901000D02*
X136983000Y-143901000D01*
X136856000Y-144028000D02*
X136856000Y-143901000D01*
X136856000Y-144028000D02*
X136856000Y-144028000D01*
X135840000Y-144028000D02*
X136856000Y-144028000D01*
X135840000Y-144028000D02*
X135840000Y-144458000D01*
%TO.N,Net-(U3-SDO_M)*%
X133435000Y-141913000D02*
X133400000Y-141878000D01*
X133400000Y-141878000D02*
X133400000Y-141842000D01*
%TO.N,/Barometric pressure sensor/SDA*%
X134405000Y-141323000D02*
X134062000Y-140980000D01*
X134405000Y-141913000D02*
X134405000Y-141323000D01*
%TO.N,/Barometric pressure sensor/SCL*%
X135713000Y-140980000D02*
X135586000Y-140980000D01*
X135265000Y-141301000D02*
X135713000Y-140980000D01*
X135265000Y-141913000D02*
X135265000Y-141301000D01*
%TO.N,+3V3*%
X136729000Y-140599000D02*
X135713000Y-139583000D01*
X135713000Y-139583000D02*
X135525000Y-139583000D01*
X136729000Y-141615000D02*
X136729000Y-140599000D01*
X136466000Y-141878000D02*
X136729000Y-141615000D01*
X135840000Y-141878000D02*
X136466000Y-141878000D01*
X133095000Y-142738000D02*
X132665000Y-142308000D01*
X133400000Y-142738000D02*
X133095000Y-142738000D01*
X133400000Y-142308000D02*
X132665000Y-142308000D01*
X134835000Y-141913000D02*
X134835000Y-140273000D01*
X134835000Y-140273000D02*
X135525000Y-139583000D01*
D29*
X133615000Y-139583000D02*
X135525000Y-139583000D01*
%TD*%
%TA.AperFunction,Conductor*%
%TO.N,GND*%
G36*
X150803551Y-141352676D02*
G01*
X150811779Y-141360196D01*
X151993034Y-142541451D01*
X152026519Y-142602774D01*
X152029353Y-142629132D01*
X152029353Y-143371000D01*
X152029510Y-143373208D01*
X152029511Y-143373210D01*
X152034499Y-143442960D01*
X152055199Y-143513457D01*
X152075047Y-143581053D01*
X152119597Y-143650374D01*
X152152858Y-143702129D01*
X152261625Y-143796376D01*
X152392542Y-143856165D01*
X152535000Y-143876647D01*
X153506196Y-143876647D01*
X153573235Y-143896332D01*
X153618990Y-143949136D01*
X153628934Y-144018294D01*
X153599909Y-144081850D01*
X153574979Y-144103820D01*
X153561776Y-144112623D01*
X153497497Y-144155474D01*
X153405089Y-144265813D01*
X153347509Y-144397715D01*
X153329424Y-144540496D01*
X153352296Y-144682587D01*
X153414277Y-144812484D01*
X153681432Y-145213216D01*
X153702240Y-145279915D01*
X153683685Y-145347276D01*
X153681432Y-145350782D01*
X153468615Y-145670008D01*
X153453122Y-145688906D01*
X152803848Y-146338181D01*
X152742525Y-146371666D01*
X152716167Y-146374500D01*
X145299386Y-146374500D01*
X145232347Y-146354815D01*
X145211705Y-146338181D01*
X144713705Y-145840180D01*
X144680220Y-145778857D01*
X144685204Y-145709165D01*
X144727076Y-145653232D01*
X144792540Y-145628815D01*
X144801386Y-145628499D01*
X144824034Y-145628499D01*
X144827344Y-145628499D01*
X144843742Y-145626736D01*
X144870250Y-145626736D01*
X144886655Y-145628500D01*
X145257344Y-145628499D01*
X145273742Y-145626736D01*
X145300250Y-145626736D01*
X145316655Y-145628500D01*
X145687344Y-145628499D01*
X145747284Y-145622056D01*
X145882887Y-145571479D01*
X145893901Y-145563233D01*
X145959366Y-145538815D01*
X145968214Y-145538499D01*
X146384033Y-145538499D01*
X146387344Y-145538499D01*
X146447284Y-145532056D01*
X146582887Y-145481479D01*
X146698747Y-145394747D01*
X146785479Y-145278887D01*
X146836056Y-145143284D01*
X146842500Y-145083345D01*
X146842499Y-144712656D01*
X146840483Y-144693900D01*
X146840483Y-144667381D01*
X146841645Y-144656575D01*
X146842000Y-144649964D01*
X146842000Y-144608000D01*
X146824995Y-144590995D01*
X146796495Y-144546649D01*
X146785479Y-144517113D01*
X146785478Y-144517111D01*
X146779248Y-144500408D01*
X146782280Y-144499276D01*
X146767947Y-144460845D01*
X146782800Y-144392572D01*
X146808366Y-144367005D01*
X146805680Y-144364319D01*
X146841999Y-144328000D01*
X146841999Y-144282714D01*
X146842155Y-144288844D01*
X146858369Y-144220904D01*
X146908754Y-144172499D01*
X146965988Y-144158500D01*
X148167500Y-144158500D01*
X148234539Y-144178185D01*
X148280294Y-144230989D01*
X148291500Y-144282500D01*
X148291500Y-144571858D01*
X148291500Y-144571877D01*
X148291501Y-144575008D01*
X148291820Y-144578140D01*
X148291821Y-144578141D01*
X148302000Y-144677796D01*
X148357186Y-144844334D01*
X148449288Y-144993657D01*
X148573340Y-145117709D01*
X148573342Y-145117710D01*
X148573344Y-145117712D01*
X148576652Y-145119752D01*
X148623379Y-145171698D01*
X148634603Y-145240660D01*
X148606762Y-145304744D01*
X148576659Y-145330830D01*
X148573654Y-145332683D01*
X148449683Y-145456654D01*
X148357642Y-145605877D01*
X148302493Y-145772303D01*
X148292319Y-145871890D01*
X148292000Y-145878168D01*
X148292000Y-145925000D01*
X150741999Y-145925000D01*
X150741999Y-145878170D01*
X150741678Y-145871888D01*
X150731506Y-145772304D01*
X150676357Y-145605877D01*
X150584316Y-145456654D01*
X150460344Y-145332682D01*
X150457343Y-145330831D01*
X150410618Y-145278883D01*
X150399397Y-145209921D01*
X150427240Y-145145839D01*
X150457345Y-145119753D01*
X150460656Y-145117712D01*
X150584712Y-144993656D01*
X150676814Y-144844334D01*
X150731999Y-144677797D01*
X150742500Y-144575009D01*
X150742499Y-143974992D01*
X150731999Y-143872203D01*
X150676814Y-143705666D01*
X150584712Y-143556344D01*
X150584711Y-143556342D01*
X150562696Y-143534327D01*
X150529211Y-143473004D01*
X150534195Y-143403312D01*
X150562697Y-143358963D01*
X150584318Y-143337341D01*
X150676357Y-143188122D01*
X150731506Y-143021696D01*
X150741680Y-142922109D01*
X150742000Y-142915831D01*
X150742000Y-142869000D01*
X149391000Y-142869000D01*
X149323961Y-142849315D01*
X149278206Y-142796511D01*
X149267000Y-142745000D01*
X149267000Y-142493000D01*
X149286685Y-142425961D01*
X149339489Y-142380206D01*
X149391000Y-142369000D01*
X150741999Y-142369000D01*
X150741999Y-142322170D01*
X150741678Y-142315888D01*
X150731506Y-142216304D01*
X150676357Y-142049877D01*
X150584316Y-141900654D01*
X150460344Y-141776682D01*
X150457343Y-141774831D01*
X150410618Y-141722883D01*
X150399397Y-141653921D01*
X150427240Y-141589839D01*
X150457345Y-141563753D01*
X150460656Y-141561712D01*
X150584712Y-141437656D01*
X150618558Y-141382781D01*
X150670506Y-141336056D01*
X150739469Y-141324833D01*
X150803551Y-141352676D01*
G37*
%TD.AperFunction*%
%TA.AperFunction,Conductor*%
G36*
X129710332Y-136578770D02*
G01*
X129754680Y-136607271D01*
X131323076Y-138175667D01*
X131356561Y-138236990D01*
X131351577Y-138306682D01*
X131309705Y-138362615D01*
X131274399Y-138381054D01*
X131145877Y-138423642D01*
X130996654Y-138515683D01*
X130872683Y-138639654D01*
X130780642Y-138788877D01*
X130725493Y-138955303D01*
X130715319Y-139054890D01*
X130715000Y-139061168D01*
X130715000Y-139333000D01*
X131841000Y-139333000D01*
X131908039Y-139352685D01*
X131953794Y-139405489D01*
X131965000Y-139457000D01*
X131965000Y-139709000D01*
X131945315Y-139776039D01*
X131892511Y-139821794D01*
X131841000Y-139833000D01*
X130715001Y-139833000D01*
X130715001Y-140104829D01*
X130715321Y-140111111D01*
X130725493Y-140210695D01*
X130780642Y-140377122D01*
X130872683Y-140526345D01*
X130996653Y-140650315D01*
X131037747Y-140675662D01*
X131084471Y-140727610D01*
X131095694Y-140796573D01*
X131092053Y-140814650D01*
X131088500Y-140827333D01*
X131088500Y-140868417D01*
X131087850Y-140881098D01*
X131086490Y-140894332D01*
X131083648Y-140921972D01*
X131085396Y-140932112D01*
X131086697Y-140939654D01*
X131088500Y-140960724D01*
X131088500Y-141365642D01*
X131068815Y-141432681D01*
X131016011Y-141478436D01*
X130946853Y-141488380D01*
X130883300Y-141459357D01*
X130874374Y-141451623D01*
X130743457Y-141391834D01*
X130601000Y-141371353D01*
X129527500Y-141371353D01*
X129460461Y-141351668D01*
X129414706Y-141298864D01*
X129403500Y-141247353D01*
X129403500Y-136834452D01*
X129423185Y-136767413D01*
X129439813Y-136746776D01*
X129579321Y-136607268D01*
X129640640Y-136573786D01*
X129710332Y-136578770D01*
G37*
%TD.AperFunction*%
%TA.AperFunction,Conductor*%
G36*
X148727260Y-139279685D02*
G01*
X148747902Y-139296319D01*
X148969057Y-139517474D01*
X149002542Y-139578797D01*
X148997558Y-139648489D01*
X148955686Y-139704422D01*
X148893978Y-139728513D01*
X148889202Y-139729000D01*
X148776129Y-139766469D01*
X148706301Y-139768871D01*
X148690747Y-139760000D01*
X147547000Y-139760000D01*
X147479961Y-139740315D01*
X147434206Y-139687511D01*
X147423000Y-139636000D01*
X147423000Y-139384000D01*
X147442685Y-139316961D01*
X147495489Y-139271206D01*
X147547000Y-139260000D01*
X148660221Y-139260000D01*
X148727260Y-139279685D01*
G37*
%TD.AperFunction*%
%TA.AperFunction,Conductor*%
G36*
X131746144Y-134241185D02*
G01*
X131791899Y-134293989D01*
X131802044Y-134329316D01*
X131809620Y-134386866D01*
X131868818Y-134529783D01*
X131962990Y-134652509D01*
X132085717Y-134746682D01*
X132228631Y-134805878D01*
X132235934Y-134806840D01*
X132299831Y-134835105D01*
X132338303Y-134893429D01*
X132343751Y-134929817D01*
X132343710Y-135064116D01*
X132324005Y-135131149D01*
X132311860Y-135147050D01*
X132236466Y-135230783D01*
X132141820Y-135394715D01*
X132083326Y-135574742D01*
X132064753Y-135751461D01*
X132038168Y-135816076D01*
X131980871Y-135856061D01*
X131941432Y-135862500D01*
X131845452Y-135862500D01*
X131778413Y-135842815D01*
X131757771Y-135826181D01*
X131506334Y-135574744D01*
X131224471Y-135292880D01*
X131217821Y-135286230D01*
X131184335Y-135224914D01*
X131181500Y-135198556D01*
X131181499Y-134345499D01*
X131201185Y-134278460D01*
X131253989Y-134232706D01*
X131305500Y-134221500D01*
X131679105Y-134221500D01*
X131746144Y-134241185D01*
G37*
%TD.AperFunction*%
%TA.AperFunction,Conductor*%
G36*
X152068933Y-79423169D02*
G01*
X152124866Y-79465041D01*
X152149283Y-79530505D01*
X152149070Y-79550791D01*
X152130056Y-79755999D01*
X152149789Y-79968957D01*
X152208315Y-80174656D01*
X152303646Y-80366105D01*
X152312980Y-80378466D01*
X152891046Y-79800399D01*
X152903835Y-79881148D01*
X152961359Y-79994045D01*
X153050955Y-80083641D01*
X153163852Y-80141165D01*
X153244599Y-80153953D01*
X152669085Y-80729465D01*
X152772413Y-80793443D01*
X152971839Y-80870701D01*
X153149204Y-80903856D01*
X153211485Y-80935524D01*
X153246758Y-80995836D01*
X153243824Y-81065644D01*
X153203616Y-81122785D01*
X153149205Y-81147634D01*
X152971702Y-81180815D01*
X152772189Y-81258107D01*
X152590275Y-81370743D01*
X152432159Y-81514884D01*
X152303216Y-81685632D01*
X152207848Y-81877159D01*
X152149295Y-82082949D01*
X152129554Y-82296000D01*
X152149295Y-82509050D01*
X152207848Y-82714840D01*
X152303216Y-82906367D01*
X152432159Y-83077115D01*
X152590275Y-83221256D01*
X152590277Y-83221257D01*
X152590278Y-83221258D01*
X152772190Y-83333893D01*
X152971703Y-83411185D01*
X153147845Y-83444111D01*
X153210125Y-83475779D01*
X153245398Y-83536092D01*
X153242464Y-83605900D01*
X153202255Y-83663040D01*
X153147845Y-83687888D01*
X152971702Y-83720815D01*
X152971703Y-83720815D01*
X152772189Y-83798107D01*
X152590275Y-83910743D01*
X152432159Y-84054884D01*
X152303216Y-84225632D01*
X152207848Y-84417159D01*
X152149295Y-84622949D01*
X152129554Y-84836000D01*
X152149295Y-85049050D01*
X152207848Y-85254840D01*
X152303218Y-85446370D01*
X152401610Y-85576663D01*
X152426302Y-85642024D01*
X152411737Y-85710359D01*
X152390337Y-85739070D01*
X145285208Y-92844199D01*
X145269110Y-92857096D01*
X145221096Y-92908225D01*
X145218392Y-92911016D01*
X145201628Y-92927780D01*
X145201621Y-92927787D01*
X145198880Y-92930529D01*
X145196499Y-92933597D01*
X145196490Y-92933608D01*
X145196411Y-92933711D01*
X145188842Y-92942572D01*
X145158935Y-92974420D01*
X145149285Y-92991974D01*
X145138609Y-93008228D01*
X145126326Y-93024063D01*
X145108975Y-93064158D01*
X145103838Y-93074644D01*
X145082802Y-93112907D01*
X145077821Y-93132309D01*
X145071520Y-93150711D01*
X145063561Y-93169102D01*
X145056728Y-93212242D01*
X145054360Y-93223674D01*
X145043500Y-93265977D01*
X145043500Y-93286016D01*
X145041973Y-93305414D01*
X145038840Y-93325194D01*
X145042950Y-93368673D01*
X145043500Y-93380343D01*
X145043500Y-98621742D01*
X145023815Y-98688781D01*
X144971011Y-98734536D01*
X144901853Y-98744480D01*
X144869065Y-98735022D01*
X144805800Y-98706854D01*
X144620648Y-98667500D01*
X144620646Y-98667500D01*
X144431354Y-98667500D01*
X144431352Y-98667500D01*
X144246197Y-98706855D01*
X144073269Y-98783848D01*
X143920129Y-98895110D01*
X143793466Y-99035783D01*
X143698820Y-99199715D01*
X143640326Y-99379742D01*
X143620540Y-99568000D01*
X143640326Y-99756257D01*
X143687740Y-99902182D01*
X143689735Y-99972023D01*
X143653654Y-100031856D01*
X143590953Y-100062684D01*
X143569809Y-100064500D01*
X143542352Y-100064500D01*
X143357197Y-100103855D01*
X143184269Y-100180848D01*
X143031129Y-100292110D01*
X142911050Y-100425472D01*
X142851563Y-100462121D01*
X142818900Y-100466500D01*
X139302417Y-100466500D01*
X139235378Y-100446815D01*
X139189623Y-100394011D01*
X139179679Y-100324853D01*
X139183151Y-100308564D01*
X139187832Y-100292112D01*
X139188704Y-100289048D01*
X139208446Y-100076000D01*
X139188704Y-99862952D01*
X139188704Y-99862949D01*
X139130151Y-99657159D01*
X139034783Y-99465632D01*
X138905840Y-99294884D01*
X138747724Y-99150743D01*
X138565810Y-99038107D01*
X138559811Y-99035783D01*
X138366297Y-98960815D01*
X138190153Y-98927888D01*
X138127874Y-98896221D01*
X138092601Y-98835909D01*
X138095535Y-98766100D01*
X138135744Y-98708960D01*
X138190152Y-98684112D01*
X138366297Y-98651185D01*
X138565810Y-98573893D01*
X138747722Y-98461258D01*
X138905841Y-98317114D01*
X139034781Y-98146370D01*
X139034781Y-98146368D01*
X139034783Y-98146367D01*
X139130151Y-97954840D01*
X139188704Y-97749050D01*
X139192318Y-97710046D01*
X139208446Y-97536000D01*
X139188704Y-97322952D01*
X139188704Y-97322949D01*
X139130151Y-97117159D01*
X139034783Y-96925632D01*
X138905840Y-96754884D01*
X138747724Y-96610743D01*
X138565810Y-96498107D01*
X138565809Y-96498107D01*
X138366297Y-96420815D01*
X138190153Y-96387888D01*
X138127874Y-96356221D01*
X138092601Y-96295909D01*
X138095535Y-96226100D01*
X138135744Y-96168960D01*
X138190152Y-96144112D01*
X138366297Y-96111185D01*
X138565810Y-96033893D01*
X138747722Y-95921258D01*
X138905841Y-95777114D01*
X139034781Y-95606370D01*
X139034781Y-95606368D01*
X139034783Y-95606367D01*
X139130151Y-95414840D01*
X139188704Y-95209050D01*
X139192925Y-95163500D01*
X139208446Y-94996000D01*
X139188704Y-94782952D01*
X139188704Y-94782949D01*
X139130151Y-94577159D01*
X139034783Y-94385632D01*
X138905840Y-94214884D01*
X138747724Y-94070743D01*
X138565810Y-93958107D01*
X138565809Y-93958107D01*
X138366297Y-93880815D01*
X138190153Y-93847888D01*
X138127874Y-93816221D01*
X138092601Y-93755909D01*
X138095535Y-93686100D01*
X138135744Y-93628960D01*
X138190152Y-93604112D01*
X138366297Y-93571185D01*
X138565810Y-93493893D01*
X138747722Y-93381258D01*
X138905841Y-93237114D01*
X139034781Y-93066370D01*
X139034781Y-93066368D01*
X139034783Y-93066367D01*
X139130151Y-92874840D01*
X139188704Y-92669050D01*
X139191790Y-92635739D01*
X139208446Y-92456000D01*
X139188704Y-92242952D01*
X139188704Y-92242949D01*
X139130151Y-92037159D01*
X139034783Y-91845632D01*
X138905840Y-91674884D01*
X138747724Y-91530743D01*
X138565810Y-91418107D01*
X138565809Y-91418107D01*
X138366297Y-91340815D01*
X138190153Y-91307888D01*
X138127874Y-91276221D01*
X138092601Y-91215909D01*
X138095535Y-91146100D01*
X138135744Y-91088960D01*
X138190152Y-91064112D01*
X138366297Y-91031185D01*
X138565810Y-90953893D01*
X138747722Y-90841258D01*
X138881711Y-90719111D01*
X138905840Y-90697115D01*
X139034783Y-90526367D01*
X139130151Y-90334840D01*
X139188704Y-90129050D01*
X139203947Y-89964548D01*
X139208446Y-89916000D01*
X139188704Y-89702952D01*
X139188704Y-89702949D01*
X139130151Y-89497159D01*
X139034783Y-89305632D01*
X138905840Y-89134884D01*
X138747724Y-88990743D01*
X138565810Y-88878107D01*
X138549811Y-88871909D01*
X138366297Y-88800815D01*
X138190153Y-88767888D01*
X138127874Y-88736221D01*
X138092601Y-88675909D01*
X138095535Y-88606100D01*
X138135744Y-88548960D01*
X138190152Y-88524112D01*
X138366297Y-88491185D01*
X138565810Y-88413893D01*
X138747722Y-88301258D01*
X138905841Y-88157114D01*
X139034781Y-87986370D01*
X139034781Y-87986368D01*
X139034783Y-87986367D01*
X139130151Y-87794840D01*
X139188704Y-87589050D01*
X139191790Y-87555739D01*
X139208446Y-87376000D01*
X139188704Y-87162952D01*
X139188704Y-87162949D01*
X139130151Y-86957159D01*
X139034783Y-86765632D01*
X138905840Y-86594884D01*
X138747724Y-86450743D01*
X138565810Y-86338107D01*
X138501440Y-86313170D01*
X138366297Y-86260815D01*
X138190153Y-86227888D01*
X138127874Y-86196221D01*
X138092601Y-86135909D01*
X138095535Y-86066100D01*
X138135744Y-86008960D01*
X138190152Y-85984112D01*
X138366297Y-85951185D01*
X138565810Y-85873893D01*
X138747722Y-85761258D01*
X138905841Y-85617114D01*
X139034781Y-85446370D01*
X139034781Y-85446368D01*
X139034783Y-85446367D01*
X139130151Y-85254840D01*
X139188704Y-85049050D01*
X139191790Y-85015739D01*
X139208446Y-84836000D01*
X139190303Y-84640203D01*
X139188704Y-84622949D01*
X139130151Y-84417159D01*
X139107053Y-84370771D01*
X139094792Y-84301986D01*
X139121665Y-84237491D01*
X139179142Y-84197763D01*
X139218053Y-84191500D01*
X146856256Y-84191500D01*
X146876762Y-84193764D01*
X146879665Y-84193672D01*
X146879667Y-84193673D01*
X146946872Y-84191561D01*
X146950768Y-84191500D01*
X146974448Y-84191500D01*
X146978350Y-84191500D01*
X146982313Y-84190999D01*
X146993962Y-84190080D01*
X147037627Y-84188709D01*
X147056859Y-84183120D01*
X147075918Y-84179174D01*
X147082196Y-84178381D01*
X147095792Y-84176664D01*
X147136407Y-84160582D01*
X147147444Y-84156803D01*
X147189390Y-84144618D01*
X147206629Y-84134422D01*
X147224102Y-84125862D01*
X147242732Y-84118486D01*
X147278064Y-84092814D01*
X147287830Y-84086400D01*
X147325418Y-84064171D01*
X147325417Y-84064171D01*
X147325420Y-84064170D01*
X147339585Y-84050004D01*
X147354373Y-84037373D01*
X147370587Y-84025594D01*
X147398438Y-83991926D01*
X147406279Y-83983309D01*
X151937920Y-79451668D01*
X151999241Y-79418185D01*
X152068933Y-79423169D01*
G37*
%TD.AperFunction*%
%TA.AperFunction,Conductor*%
G36*
X121524619Y-72280750D02*
G01*
X121655308Y-72359383D01*
X121660996Y-72365569D01*
X121685849Y-72378146D01*
X121693787Y-72382535D01*
X121803166Y-72448346D01*
X121970748Y-72525877D01*
X121977506Y-72531792D01*
X122004749Y-72541992D01*
X122013317Y-72545572D01*
X122124539Y-72597029D01*
X122302466Y-72656979D01*
X122310290Y-72662455D01*
X122339583Y-72669873D01*
X122348722Y-72672565D01*
X122460103Y-72710094D01*
X122646519Y-72751127D01*
X122655377Y-72755992D01*
X122686334Y-72760285D01*
X122695937Y-72762004D01*
X122805925Y-72786215D01*
X122977906Y-72804919D01*
X122998787Y-72807190D01*
X123008632Y-72811282D01*
X123040846Y-72812170D01*
X123050814Y-72812848D01*
X123157950Y-72824500D01*
X123161308Y-72824500D01*
X123355080Y-72824500D01*
X123365841Y-72827660D01*
X123398859Y-72824924D01*
X123409099Y-72824500D01*
X123508692Y-72824500D01*
X123512050Y-72824500D01*
X123711142Y-72802847D01*
X123722711Y-72804919D01*
X123756037Y-72798410D01*
X123766395Y-72796838D01*
X123864075Y-72786215D01*
X124062718Y-72742490D01*
X124074975Y-72743336D01*
X124108109Y-72732973D01*
X124118457Y-72730221D01*
X124209897Y-72710094D01*
X124405617Y-72644147D01*
X124418426Y-72643642D01*
X124450878Y-72629408D01*
X124461084Y-72625458D01*
X124545461Y-72597029D01*
X124735760Y-72508986D01*
X124748954Y-72507023D01*
X124780211Y-72488977D01*
X124790117Y-72483838D01*
X124866834Y-72448346D01*
X125049199Y-72338620D01*
X125062597Y-72335112D01*
X125092161Y-72313385D01*
X125101654Y-72307059D01*
X125145383Y-72280748D01*
X125209310Y-72263000D01*
X150144690Y-72263000D01*
X150208619Y-72280750D01*
X150339308Y-72359383D01*
X150344996Y-72365569D01*
X150369849Y-72378146D01*
X150377787Y-72382535D01*
X150487166Y-72448346D01*
X150654748Y-72525877D01*
X150661506Y-72531792D01*
X150688749Y-72541992D01*
X150697317Y-72545572D01*
X150808539Y-72597029D01*
X150986466Y-72656979D01*
X150994290Y-72662455D01*
X151023583Y-72669873D01*
X151032722Y-72672565D01*
X151144103Y-72710094D01*
X151330519Y-72751127D01*
X151339377Y-72755992D01*
X151370334Y-72760285D01*
X151379937Y-72762004D01*
X151489925Y-72786215D01*
X151661906Y-72804919D01*
X151682787Y-72807190D01*
X151692632Y-72811282D01*
X151724846Y-72812170D01*
X151734814Y-72812848D01*
X151841950Y-72824500D01*
X151845308Y-72824500D01*
X152039080Y-72824500D01*
X152049841Y-72827660D01*
X152082859Y-72824924D01*
X152093099Y-72824500D01*
X152192692Y-72824500D01*
X152196050Y-72824500D01*
X152395142Y-72802847D01*
X152406711Y-72804919D01*
X152440037Y-72798410D01*
X152450395Y-72796838D01*
X152548075Y-72786215D01*
X152746718Y-72742490D01*
X152758975Y-72743336D01*
X152792109Y-72732973D01*
X152802457Y-72730221D01*
X152893897Y-72710094D01*
X153089617Y-72644147D01*
X153102426Y-72643642D01*
X153134878Y-72629408D01*
X153145084Y-72625458D01*
X153229461Y-72597029D01*
X153419760Y-72508986D01*
X153432954Y-72507023D01*
X153464211Y-72488977D01*
X153474117Y-72483838D01*
X153550834Y-72448346D01*
X153733199Y-72338620D01*
X153746597Y-72335112D01*
X153776161Y-72313385D01*
X153785654Y-72307059D01*
X153829383Y-72280748D01*
X153893310Y-72263000D01*
X156086000Y-72263000D01*
X156153039Y-72282685D01*
X156198794Y-72335489D01*
X156210000Y-72387000D01*
X156210000Y-151006000D01*
X156190315Y-151073039D01*
X156137511Y-151118794D01*
X156086000Y-151130000D01*
X119123000Y-151130000D01*
X119055961Y-151110315D01*
X119010206Y-151057511D01*
X118999000Y-151006000D01*
X118999000Y-108740578D01*
X121562500Y-108740578D01*
X121562501Y-108743872D01*
X121562853Y-108747152D01*
X121562854Y-108747159D01*
X121568909Y-108803484D01*
X121584062Y-108844111D01*
X121619204Y-108938331D01*
X121705454Y-109053546D01*
X121820669Y-109139796D01*
X121955517Y-109190091D01*
X122015127Y-109196500D01*
X123627546Y-109196499D01*
X123694585Y-109216184D01*
X123715227Y-109232818D01*
X123887196Y-109404787D01*
X123900096Y-109420888D01*
X123951223Y-109468900D01*
X123954020Y-109471611D01*
X123973529Y-109491120D01*
X123976709Y-109493587D01*
X123985571Y-109501155D01*
X124017418Y-109531062D01*
X124034972Y-109540712D01*
X124051236Y-109551396D01*
X124062972Y-109560499D01*
X124067064Y-109563673D01*
X124091909Y-109574424D01*
X124107152Y-109581021D01*
X124117631Y-109586154D01*
X124155908Y-109607197D01*
X124175306Y-109612177D01*
X124193708Y-109618477D01*
X124212104Y-109626438D01*
X124255261Y-109633273D01*
X124266664Y-109635634D01*
X124308981Y-109646500D01*
X124329016Y-109646500D01*
X124348413Y-109648026D01*
X124368196Y-109651160D01*
X124411674Y-109647050D01*
X124423344Y-109646500D01*
X136852561Y-109646500D01*
X136919600Y-109666185D01*
X136965355Y-109718989D01*
X136975299Y-109788147D01*
X136969799Y-109805768D01*
X136970993Y-109806108D01*
X136909295Y-110022949D01*
X136889554Y-110235999D01*
X136909295Y-110449050D01*
X136967848Y-110654840D01*
X137063216Y-110846367D01*
X137192159Y-111017115D01*
X137350275Y-111161256D01*
X137350277Y-111161257D01*
X137350278Y-111161258D01*
X137532190Y-111273893D01*
X137731703Y-111351185D01*
X137907845Y-111384111D01*
X137970125Y-111415779D01*
X138005398Y-111476092D01*
X138002464Y-111545900D01*
X137962255Y-111603040D01*
X137907845Y-111627888D01*
X137731703Y-111660814D01*
X137731703Y-111660815D01*
X137532189Y-111738107D01*
X137350275Y-111850743D01*
X137192159Y-111994884D01*
X137111854Y-112101227D01*
X137055745Y-112142863D01*
X137012900Y-112150500D01*
X135718744Y-112150500D01*
X135698236Y-112148235D01*
X135628113Y-112150439D01*
X135624219Y-112150500D01*
X135596650Y-112150500D01*
X135592794Y-112150986D01*
X135592791Y-112150987D01*
X135592735Y-112150994D01*
X135592662Y-112151003D01*
X135581043Y-112151917D01*
X135537372Y-112153289D01*
X135518128Y-112158880D01*
X135499084Y-112162824D01*
X135479208Y-112165335D01*
X135438600Y-112181413D01*
X135427554Y-112185194D01*
X135385610Y-112197382D01*
X135385607Y-112197383D01*
X135368365Y-112207579D01*
X135350904Y-112216133D01*
X135332267Y-112223512D01*
X135296931Y-112249185D01*
X135287174Y-112255595D01*
X135249580Y-112277829D01*
X135235413Y-112291996D01*
X135220624Y-112304626D01*
X135204413Y-112316404D01*
X135176572Y-112350058D01*
X135168711Y-112358697D01*
X129283208Y-118244199D01*
X129267110Y-118257096D01*
X129219096Y-118308225D01*
X129216392Y-118311016D01*
X129199628Y-118327780D01*
X129199621Y-118327787D01*
X129196880Y-118330529D01*
X129194499Y-118333597D01*
X129194490Y-118333608D01*
X129194411Y-118333711D01*
X129186842Y-118342572D01*
X129156935Y-118374420D01*
X129147285Y-118391974D01*
X129136609Y-118408228D01*
X129124326Y-118424063D01*
X129106975Y-118464158D01*
X129101838Y-118474644D01*
X129080802Y-118512907D01*
X129075821Y-118532309D01*
X129069520Y-118550711D01*
X129061561Y-118569102D01*
X129054728Y-118612242D01*
X129052360Y-118623674D01*
X129041500Y-118665977D01*
X129041500Y-118686016D01*
X129039973Y-118705414D01*
X129036840Y-118725194D01*
X129040950Y-118768673D01*
X129041500Y-118780343D01*
X129041500Y-125647255D01*
X129039235Y-125667767D01*
X129041437Y-125737873D01*
X129041498Y-125741765D01*
X129041498Y-129469156D01*
X129039303Y-129492385D01*
X129037772Y-129500409D01*
X129041255Y-129555757D01*
X129041500Y-129563544D01*
X129041499Y-135324546D01*
X129021814Y-135391585D01*
X129005180Y-135412227D01*
X128394208Y-136023199D01*
X128378110Y-136036096D01*
X128330096Y-136087225D01*
X128327392Y-136090016D01*
X128310628Y-136106780D01*
X128310621Y-136106787D01*
X128307880Y-136109529D01*
X128305499Y-136112597D01*
X128305490Y-136112608D01*
X128305411Y-136112711D01*
X128297842Y-136121572D01*
X128267935Y-136153420D01*
X128258285Y-136170974D01*
X128247609Y-136187228D01*
X128235326Y-136203063D01*
X128217975Y-136243158D01*
X128212838Y-136253644D01*
X128191802Y-136291907D01*
X128186821Y-136311309D01*
X128180520Y-136329711D01*
X128172561Y-136348102D01*
X128165728Y-136391242D01*
X128163360Y-136402674D01*
X128152499Y-136444977D01*
X128152500Y-136465016D01*
X128150973Y-136484414D01*
X128147840Y-136504194D01*
X128151950Y-136547673D01*
X128152500Y-136559343D01*
X128152499Y-141262104D01*
X128132814Y-141329143D01*
X128080010Y-141374898D01*
X128063434Y-141381081D01*
X127940948Y-141417046D01*
X127819870Y-141494858D01*
X127725623Y-141603625D01*
X127665834Y-141734542D01*
X127646216Y-141871000D01*
X127645353Y-141877000D01*
X127645353Y-143377000D01*
X127645510Y-143379208D01*
X127645511Y-143379210D01*
X127650499Y-143448960D01*
X127671199Y-143519457D01*
X127691047Y-143587053D01*
X127731741Y-143650374D01*
X127768858Y-143708129D01*
X127877625Y-143802376D01*
X128008542Y-143862165D01*
X128151000Y-143882647D01*
X129122196Y-143882647D01*
X129189235Y-143902332D01*
X129234990Y-143955136D01*
X129244934Y-144024294D01*
X129215909Y-144087850D01*
X129190979Y-144109820D01*
X129186776Y-144112623D01*
X129113497Y-144161474D01*
X129021089Y-144271813D01*
X128963509Y-144403715D01*
X128945424Y-144546496D01*
X128968296Y-144688587D01*
X129030277Y-144818484D01*
X129297431Y-145219217D01*
X129318239Y-145285917D01*
X129299684Y-145353277D01*
X129297431Y-145356783D01*
X129031648Y-145755459D01*
X129031640Y-145755470D01*
X129030276Y-145757518D01*
X129029078Y-145759669D01*
X128991045Y-145827950D01*
X128950500Y-145966037D01*
X128950500Y-145966038D01*
X128950500Y-145966039D01*
X128950500Y-146109961D01*
X128991047Y-146248053D01*
X129031741Y-146311374D01*
X129068858Y-146369129D01*
X129177625Y-146463376D01*
X129308542Y-146523165D01*
X129451000Y-146543647D01*
X130598785Y-146543647D01*
X130601000Y-146543647D01*
X130672961Y-146538500D01*
X130810893Y-146498000D01*
X138044001Y-146498000D01*
X138044001Y-146544829D01*
X138044321Y-146551111D01*
X138054493Y-146650695D01*
X138109642Y-146817122D01*
X138201683Y-146966345D01*
X138325654Y-147090316D01*
X138474877Y-147182357D01*
X138641303Y-147237506D01*
X138740890Y-147247680D01*
X138747168Y-147247999D01*
X139018999Y-147247999D01*
X139019000Y-147247998D01*
X139019000Y-146498000D01*
X139519000Y-146498000D01*
X139519000Y-147247999D01*
X139790829Y-147247999D01*
X139797111Y-147247678D01*
X139896695Y-147237506D01*
X140063122Y-147182357D01*
X140212345Y-147090316D01*
X140336316Y-146966345D01*
X140428357Y-146817122D01*
X140483506Y-146650696D01*
X140493680Y-146551109D01*
X140494000Y-146544831D01*
X140494000Y-146498000D01*
X139519000Y-146498000D01*
X139019000Y-146498000D01*
X138044001Y-146498000D01*
X130810893Y-146498000D01*
X130811053Y-146497953D01*
X130932128Y-146420143D01*
X131026377Y-146311373D01*
X131086165Y-146180457D01*
X131106647Y-146038000D01*
X131106647Y-145962499D01*
X131126332Y-145895461D01*
X131179136Y-145849706D01*
X131230647Y-145838500D01*
X132988478Y-145838500D01*
X132992711Y-145838572D01*
X133056824Y-145840762D01*
X133056824Y-145840761D01*
X133056826Y-145840762D01*
X133096751Y-145831031D01*
X133109196Y-145828666D01*
X133149920Y-145823070D01*
X133166383Y-145815918D01*
X133186419Y-145809180D01*
X133203852Y-145804933D01*
X133239695Y-145784778D01*
X133251015Y-145779157D01*
X133288720Y-145762780D01*
X133302635Y-145751458D01*
X133320111Y-145739563D01*
X133335759Y-145730766D01*
X133364813Y-145701710D01*
X133374228Y-145693213D01*
X133406108Y-145667278D01*
X133416458Y-145652614D01*
X133430077Y-145636446D01*
X133472893Y-145593631D01*
X133534216Y-145560146D01*
X133603903Y-145565130D01*
X133729716Y-145612056D01*
X133789655Y-145618500D01*
X134160344Y-145618499D01*
X134176742Y-145616736D01*
X134203250Y-145616736D01*
X134219655Y-145618500D01*
X134590344Y-145618499D01*
X134606742Y-145616736D01*
X134633250Y-145616736D01*
X134649655Y-145618500D01*
X135020344Y-145618499D01*
X135036742Y-145616736D01*
X135063250Y-145616736D01*
X135079655Y-145618500D01*
X135450344Y-145618499D01*
X135510284Y-145612056D01*
X135645887Y-145561479D01*
X135656901Y-145553233D01*
X135722366Y-145528815D01*
X135731214Y-145528499D01*
X136147033Y-145528499D01*
X136150344Y-145528499D01*
X136210284Y-145522056D01*
X136345887Y-145471479D01*
X136461747Y-145384747D01*
X136548479Y-145268887D01*
X136599056Y-145133284D01*
X136605500Y-145073345D01*
X136605499Y-144702656D01*
X136603483Y-144683900D01*
X136603483Y-144657381D01*
X136604645Y-144646575D01*
X136605000Y-144639964D01*
X136605000Y-144598000D01*
X136587995Y-144580995D01*
X136559495Y-144536649D01*
X136548479Y-144507113D01*
X136548478Y-144507111D01*
X136542248Y-144490408D01*
X136545280Y-144489276D01*
X136530947Y-144450845D01*
X136545800Y-144382572D01*
X136571366Y-144357005D01*
X136568680Y-144354319D01*
X136604999Y-144318000D01*
X136604999Y-144276025D01*
X136604644Y-144269415D01*
X136603230Y-144256257D01*
X136603230Y-144229740D01*
X136604644Y-144216584D01*
X136605000Y-144209964D01*
X136605000Y-144159415D01*
X136581841Y-144117003D01*
X136586825Y-144047311D01*
X136624754Y-143994456D01*
X136631599Y-143988887D01*
X136645869Y-143977278D01*
X136656219Y-143962614D01*
X136669838Y-143946446D01*
X136778468Y-143837818D01*
X136839791Y-143804334D01*
X136866148Y-143801500D01*
X137892612Y-143801500D01*
X137959651Y-143821185D01*
X137980293Y-143837819D01*
X138015456Y-143872982D01*
X138048941Y-143934305D01*
X138051133Y-143973264D01*
X138044441Y-144038780D01*
X138043500Y-144047991D01*
X138043500Y-144051138D01*
X138043500Y-144051139D01*
X138043500Y-144644858D01*
X138043500Y-144644877D01*
X138043501Y-144648008D01*
X138043820Y-144651140D01*
X138043821Y-144651141D01*
X138054000Y-144750796D01*
X138109186Y-144917334D01*
X138201288Y-145066657D01*
X138325340Y-145190709D01*
X138325342Y-145190710D01*
X138325344Y-145190712D01*
X138328652Y-145192752D01*
X138375379Y-145244698D01*
X138386603Y-145313660D01*
X138358762Y-145377744D01*
X138328659Y-145403830D01*
X138325654Y-145405683D01*
X138201683Y-145529654D01*
X138109642Y-145678877D01*
X138054493Y-145845303D01*
X138044319Y-145944890D01*
X138044000Y-145951168D01*
X138044000Y-145998000D01*
X140493999Y-145998000D01*
X140493999Y-145951170D01*
X140493678Y-145944888D01*
X140483506Y-145845304D01*
X140428357Y-145678877D01*
X140336316Y-145529654D01*
X140212344Y-145405682D01*
X140209343Y-145403831D01*
X140162618Y-145351883D01*
X140151397Y-145282921D01*
X140179240Y-145218839D01*
X140209345Y-145192753D01*
X140212656Y-145190712D01*
X140336712Y-145066656D01*
X140428814Y-144917334D01*
X140483999Y-144750797D01*
X140494500Y-144648009D01*
X140494499Y-144047992D01*
X140483999Y-143945203D01*
X140428814Y-143778666D01*
X140336712Y-143629344D01*
X140336711Y-143629342D01*
X140314696Y-143607327D01*
X140281211Y-143546004D01*
X140286195Y-143476312D01*
X140314697Y-143431963D01*
X140336318Y-143410341D01*
X140428357Y-143261122D01*
X140483506Y-143094696D01*
X140493680Y-142995109D01*
X140494000Y-142988831D01*
X140494000Y-142942000D01*
X139143000Y-142942000D01*
X139075961Y-142922315D01*
X139030206Y-142869511D01*
X139019000Y-142818000D01*
X139019000Y-142566000D01*
X139038685Y-142498961D01*
X139091489Y-142453206D01*
X139143000Y-142442000D01*
X140493999Y-142442000D01*
X140493999Y-142395170D01*
X140493678Y-142388888D01*
X140483506Y-142289304D01*
X140428357Y-142122877D01*
X140336316Y-141973654D01*
X140212344Y-141849682D01*
X140209343Y-141847831D01*
X140162618Y-141795883D01*
X140151397Y-141726921D01*
X140179240Y-141662839D01*
X140209345Y-141636753D01*
X140212656Y-141634712D01*
X140336712Y-141510656D01*
X140428814Y-141361334D01*
X140483999Y-141194797D01*
X140494500Y-141092009D01*
X140494499Y-140491992D01*
X140483999Y-140389203D01*
X140428814Y-140222666D01*
X140356132Y-140104829D01*
X140336711Y-140073342D01*
X140212657Y-139949288D01*
X140063334Y-139857186D01*
X139896797Y-139802000D01*
X139797141Y-139791819D01*
X139797122Y-139791818D01*
X139794009Y-139791500D01*
X139790860Y-139791500D01*
X138747140Y-139791500D01*
X138747120Y-139791500D01*
X138743992Y-139791501D01*
X138740860Y-139791820D01*
X138740858Y-139791821D01*
X138641201Y-139802000D01*
X138528129Y-139839469D01*
X138458301Y-139841871D01*
X138442747Y-139833000D01*
X137323076Y-139833000D01*
X137256037Y-139813315D01*
X137210282Y-139760511D01*
X137209345Y-139758408D01*
X137202922Y-139743623D01*
X137196178Y-139723570D01*
X137191933Y-139706149D01*
X137191933Y-139706148D01*
X137190911Y-139704331D01*
X137175000Y-139643562D01*
X137175000Y-139457000D01*
X137194685Y-139389961D01*
X137247489Y-139344206D01*
X137299000Y-139333000D01*
X138424999Y-139333000D01*
X138424999Y-139209500D01*
X138444684Y-139142461D01*
X138497488Y-139096706D01*
X138548999Y-139085500D01*
X140839000Y-139085500D01*
X140906039Y-139105185D01*
X140951794Y-139157989D01*
X140963000Y-139209500D01*
X140963000Y-139260000D01*
X142089000Y-139260000D01*
X142156039Y-139279685D01*
X142201794Y-139332489D01*
X142213000Y-139384000D01*
X142213000Y-139589971D01*
X142203737Y-139623036D01*
X142207925Y-139624210D01*
X142195247Y-139669456D01*
X142158205Y-139728699D01*
X142095014Y-139758510D01*
X142075846Y-139760000D01*
X140963001Y-139760000D01*
X140963001Y-140031829D01*
X140963321Y-140038111D01*
X140973493Y-140137695D01*
X141028642Y-140304122D01*
X141120683Y-140453345D01*
X141147694Y-140480356D01*
X141181179Y-140541679D01*
X141176195Y-140611371D01*
X141165959Y-140632469D01*
X141152605Y-140654427D01*
X141145466Y-140664916D01*
X141120638Y-140697658D01*
X141114054Y-140714354D01*
X141104654Y-140733280D01*
X141102767Y-140736384D01*
X141095328Y-140748618D01*
X141088934Y-140771436D01*
X141084242Y-140788181D01*
X141080197Y-140800207D01*
X141065123Y-140838434D01*
X141063288Y-140856285D01*
X141059342Y-140877048D01*
X141054500Y-140894332D01*
X141054500Y-140935417D01*
X141053850Y-140948098D01*
X141049648Y-140988971D01*
X141052697Y-141006654D01*
X141054500Y-141027724D01*
X141054500Y-142000476D01*
X141054428Y-142004709D01*
X141052237Y-142068826D01*
X141061963Y-142108733D01*
X141064334Y-142121207D01*
X141069930Y-142161922D01*
X141077079Y-142178380D01*
X141083819Y-142198421D01*
X141088067Y-142215853D01*
X141108206Y-142251672D01*
X141113852Y-142263039D01*
X141130220Y-142300720D01*
X141138009Y-142310294D01*
X141141542Y-142314637D01*
X141153437Y-142332116D01*
X141162232Y-142347757D01*
X141191285Y-142376810D01*
X141199793Y-142386237D01*
X141207060Y-142395170D01*
X141225722Y-142418108D01*
X141236847Y-142425961D01*
X141240378Y-142428453D01*
X141256552Y-142442077D01*
X141943579Y-143129103D01*
X141946492Y-143132116D01*
X141990320Y-143179044D01*
X142005249Y-143188122D01*
X142025425Y-143200391D01*
X142035918Y-143207532D01*
X142068658Y-143232361D01*
X142085353Y-143238944D01*
X142104292Y-143248352D01*
X142119618Y-143257672D01*
X142159181Y-143268757D01*
X142171213Y-143272803D01*
X142209436Y-143287876D01*
X142227285Y-143289711D01*
X142248046Y-143293656D01*
X142265335Y-143298500D01*
X142306418Y-143298500D01*
X142319098Y-143299149D01*
X142359972Y-143303352D01*
X142377656Y-143300303D01*
X142398725Y-143298500D01*
X142747508Y-143298500D01*
X142814547Y-143318185D01*
X142860302Y-143370989D01*
X142871339Y-143428872D01*
X142871500Y-143422655D01*
X142871500Y-143790030D01*
X142871500Y-143790048D01*
X142871501Y-143793344D01*
X142871853Y-143796626D01*
X142871855Y-143796649D01*
X142873263Y-143809749D01*
X142873263Y-143836243D01*
X142871854Y-143849352D01*
X142871852Y-143849371D01*
X142871500Y-143852655D01*
X142871500Y-143855965D01*
X142871500Y-143855966D01*
X142871500Y-144220030D01*
X142871500Y-144220048D01*
X142871501Y-144223344D01*
X142871853Y-144226626D01*
X142871855Y-144226649D01*
X142873263Y-144239749D01*
X142873263Y-144266243D01*
X142871855Y-144279348D01*
X142871500Y-144282655D01*
X142871500Y-144285965D01*
X142871500Y-144285966D01*
X142871500Y-144650030D01*
X142871500Y-144650048D01*
X142871501Y-144653344D01*
X142871853Y-144656626D01*
X142871855Y-144656649D01*
X142873263Y-144669749D01*
X142873263Y-144696243D01*
X142871854Y-144709352D01*
X142871854Y-144709359D01*
X142871500Y-144712655D01*
X142871500Y-144715965D01*
X142871500Y-144715966D01*
X142871500Y-145080032D01*
X142871500Y-145080050D01*
X142871501Y-145083344D01*
X142871853Y-145086623D01*
X142871854Y-145086633D01*
X142877944Y-145143284D01*
X142928521Y-145278888D01*
X143015252Y-145394747D01*
X143036810Y-145410885D01*
X143078682Y-145466818D01*
X143086500Y-145510152D01*
X143086500Y-145530476D01*
X143086428Y-145534709D01*
X143084237Y-145598826D01*
X143093963Y-145638733D01*
X143096334Y-145651207D01*
X143101930Y-145691922D01*
X143109079Y-145708380D01*
X143115819Y-145728421D01*
X143120067Y-145745853D01*
X143140206Y-145781672D01*
X143145852Y-145793039D01*
X143162220Y-145830720D01*
X143168550Y-145838500D01*
X143173542Y-145844637D01*
X143185437Y-145862116D01*
X143194232Y-145877757D01*
X143223285Y-145906810D01*
X143231793Y-145916237D01*
X143257721Y-145948107D01*
X143272378Y-145958453D01*
X143288552Y-145972077D01*
X144622579Y-147306103D01*
X144625492Y-147309116D01*
X144669320Y-147356044D01*
X144688592Y-147367763D01*
X144704425Y-147377391D01*
X144714918Y-147384532D01*
X144747658Y-147409361D01*
X144764353Y-147415944D01*
X144783290Y-147425351D01*
X144798618Y-147434672D01*
X144838179Y-147445756D01*
X144850215Y-147449803D01*
X144888435Y-147464876D01*
X144906283Y-147466710D01*
X144927046Y-147470656D01*
X144944335Y-147475500D01*
X144985417Y-147475500D01*
X144998097Y-147476149D01*
X145038971Y-147480352D01*
X145056655Y-147477303D01*
X145077724Y-147475500D01*
X152984032Y-147475500D01*
X152988265Y-147475572D01*
X153052378Y-147477762D01*
X153052378Y-147477761D01*
X153052380Y-147477762D01*
X153092305Y-147468031D01*
X153104750Y-147465666D01*
X153145474Y-147460070D01*
X153161937Y-147452918D01*
X153181973Y-147446180D01*
X153199406Y-147441933D01*
X153235249Y-147421778D01*
X153246569Y-147416157D01*
X153284274Y-147399780D01*
X153298189Y-147388458D01*
X153315665Y-147376563D01*
X153331313Y-147367766D01*
X153360367Y-147338710D01*
X153369784Y-147330211D01*
X153401662Y-147304278D01*
X153412015Y-147289610D01*
X153425627Y-147273450D01*
X154125112Y-146573966D01*
X154186436Y-146540481D01*
X154212794Y-146537647D01*
X154982785Y-146537647D01*
X154985000Y-146537647D01*
X155056961Y-146532500D01*
X155195053Y-146491953D01*
X155316128Y-146414143D01*
X155410377Y-146305373D01*
X155470165Y-146174457D01*
X155490647Y-146032000D01*
X155490647Y-144532000D01*
X155485500Y-144460039D01*
X155444953Y-144321947D01*
X155367143Y-144200872D01*
X155356303Y-144191479D01*
X155258374Y-144106623D01*
X155184268Y-144072780D01*
X155168597Y-144065623D01*
X155115795Y-144019869D01*
X155096110Y-143952830D01*
X155115795Y-143885790D01*
X155168599Y-143840036D01*
X155185176Y-143833853D01*
X155195053Y-143830953D01*
X155316128Y-143753143D01*
X155410377Y-143644373D01*
X155470165Y-143513457D01*
X155490647Y-143371000D01*
X155490647Y-141871000D01*
X155485500Y-141799039D01*
X155444953Y-141660947D01*
X155367143Y-141539872D01*
X155296242Y-141478436D01*
X155258374Y-141445623D01*
X155127457Y-141385834D01*
X154985000Y-141365353D01*
X153835000Y-141365353D01*
X153832545Y-141365549D01*
X153832528Y-141365550D01*
X153754638Y-141371779D01*
X153726240Y-141380638D01*
X153671668Y-141385002D01*
X153535001Y-141365353D01*
X153535000Y-141365353D01*
X152637479Y-141365353D01*
X152570440Y-141345668D01*
X152549798Y-141329034D01*
X148758475Y-137537711D01*
X148745579Y-137521613D01*
X148694448Y-137473598D01*
X148691651Y-137470887D01*
X148674900Y-137454136D01*
X148672144Y-137451380D01*
X148668963Y-137448912D01*
X148660095Y-137441337D01*
X148628255Y-137411438D01*
X148610697Y-137401785D01*
X148594437Y-137391104D01*
X148578609Y-137378827D01*
X148538524Y-137361480D01*
X148528034Y-137356341D01*
X148489764Y-137335302D01*
X148470364Y-137330321D01*
X148451957Y-137324019D01*
X148433570Y-137316062D01*
X148390431Y-137309229D01*
X148378997Y-137306861D01*
X148336692Y-137296000D01*
X148316657Y-137296000D01*
X148297259Y-137294473D01*
X148289835Y-137293297D01*
X148277478Y-137291340D01*
X148277477Y-137291340D01*
X148244424Y-137294464D01*
X148233998Y-137295450D01*
X148222329Y-137296000D01*
X134845793Y-137296000D01*
X134778754Y-137276315D01*
X134732999Y-137223511D01*
X134723055Y-137154353D01*
X134752080Y-137090797D01*
X134782664Y-137065272D01*
X134797634Y-137056419D01*
X134815102Y-137047862D01*
X134833732Y-137040486D01*
X134869064Y-137014814D01*
X134878830Y-137008400D01*
X134916418Y-136986171D01*
X134916417Y-136986171D01*
X134916420Y-136986170D01*
X134930585Y-136972004D01*
X134945373Y-136959373D01*
X134961587Y-136947594D01*
X134989438Y-136913926D01*
X134997269Y-136905319D01*
X135202772Y-136699816D01*
X135264094Y-136666334D01*
X135290452Y-136663500D01*
X135349648Y-136663500D01*
X135473084Y-136637262D01*
X135534803Y-136624144D01*
X135707730Y-136547151D01*
X135766853Y-136504196D01*
X135860870Y-136435889D01*
X135901071Y-136391242D01*
X135987533Y-136295216D01*
X136082179Y-136131284D01*
X136140674Y-135951256D01*
X136160460Y-135763000D01*
X136140674Y-135574744D01*
X136110261Y-135481144D01*
X136082179Y-135394715D01*
X135987533Y-135230783D01*
X135860870Y-135090110D01*
X135707730Y-134978848D01*
X135534802Y-134901855D01*
X135349648Y-134862500D01*
X135349646Y-134862500D01*
X135160354Y-134862500D01*
X135160352Y-134862500D01*
X134975197Y-134901855D01*
X134802269Y-134978848D01*
X134649129Y-135090110D01*
X134522466Y-135230783D01*
X134427820Y-135394715D01*
X134369326Y-135574742D01*
X134351679Y-135742649D01*
X134325094Y-135807263D01*
X134316044Y-135817363D01*
X134307232Y-135826176D01*
X134245911Y-135859665D01*
X134219546Y-135862500D01*
X133996568Y-135862500D01*
X133929529Y-135842815D01*
X133883774Y-135790011D01*
X133873247Y-135751461D01*
X133861112Y-135636000D01*
X133854674Y-135574744D01*
X133824261Y-135481144D01*
X133796179Y-135394715D01*
X133701533Y-135230784D01*
X133626560Y-135147518D01*
X133596330Y-135084527D01*
X133594710Y-135064508D01*
X133594711Y-135064116D01*
X133594751Y-134929806D01*
X133614456Y-134862774D01*
X133667274Y-134817035D01*
X133702571Y-134806905D01*
X133710370Y-134805878D01*
X133853283Y-134746681D01*
X133976009Y-134652509D01*
X134070182Y-134529782D01*
X134129378Y-134386868D01*
X134143970Y-134276030D01*
X134144499Y-134267966D01*
X134144499Y-134265219D01*
X134144731Y-134264427D01*
X134144766Y-134263899D01*
X134144750Y-134264360D01*
X134164174Y-134198177D01*
X134193009Y-134166829D01*
X134276367Y-134102867D01*
X134287941Y-134087784D01*
X134338987Y-134021258D01*
X134370617Y-133980037D01*
X134429865Y-133836999D01*
X134445000Y-133722040D01*
X134445000Y-133469960D01*
X134430811Y-133362184D01*
X134430811Y-133329813D01*
X134445000Y-133222040D01*
X134445000Y-132969960D01*
X134429865Y-132855001D01*
X134370617Y-132711963D01*
X134327814Y-132656180D01*
X134276367Y-132589132D01*
X134193013Y-132525173D01*
X134151810Y-132468745D01*
X134144499Y-132426797D01*
X134144499Y-132424044D01*
X134143969Y-132415965D01*
X134128638Y-132299497D01*
X134139404Y-132230462D01*
X134185785Y-132178207D01*
X134238976Y-132159956D01*
X134321695Y-132151506D01*
X134488122Y-132096357D01*
X134637345Y-132004316D01*
X134761316Y-131880345D01*
X134853357Y-131731122D01*
X134908506Y-131564696D01*
X134918680Y-131465109D01*
X134919000Y-131458831D01*
X134919000Y-131187000D01*
X133793000Y-131187000D01*
X133725961Y-131167315D01*
X133680206Y-131114511D01*
X133669000Y-131063000D01*
X133669000Y-130811000D01*
X133688685Y-130743961D01*
X133741489Y-130698206D01*
X133793000Y-130687000D01*
X134918999Y-130687000D01*
X134918999Y-130415170D01*
X134918678Y-130408888D01*
X134908506Y-130309304D01*
X134848799Y-130129121D01*
X134852584Y-130127866D01*
X134840912Y-130085198D01*
X134861838Y-130018536D01*
X134915482Y-129973769D01*
X134964891Y-129963500D01*
X136854054Y-129963500D01*
X136921093Y-129983185D01*
X136966848Y-130035989D01*
X136976792Y-130105147D01*
X136970313Y-130125914D01*
X136970993Y-130126108D01*
X136909295Y-130342949D01*
X136889554Y-130556000D01*
X136909295Y-130769050D01*
X136967848Y-130974840D01*
X137063216Y-131166367D01*
X137192159Y-131337115D01*
X137350275Y-131481256D01*
X137350277Y-131481257D01*
X137350278Y-131481258D01*
X137532190Y-131593893D01*
X137731703Y-131671185D01*
X137907845Y-131704111D01*
X137970125Y-131735779D01*
X138005398Y-131796092D01*
X138002464Y-131865900D01*
X137962255Y-131923040D01*
X137907845Y-131947888D01*
X137731702Y-131980814D01*
X137731703Y-131980815D01*
X137532189Y-132058107D01*
X137350275Y-132170743D01*
X137192159Y-132314884D01*
X137063216Y-132485632D01*
X136967848Y-132677159D01*
X136909295Y-132882949D01*
X136889554Y-133096000D01*
X136909295Y-133309050D01*
X136967848Y-133514840D01*
X137063216Y-133706367D01*
X137192159Y-133877115D01*
X137350275Y-134021256D01*
X137350277Y-134021257D01*
X137350278Y-134021258D01*
X137532190Y-134133893D01*
X137731703Y-134211185D01*
X137907845Y-134244111D01*
X137970125Y-134275779D01*
X138005398Y-134336092D01*
X138002464Y-134405900D01*
X137962255Y-134463040D01*
X137907845Y-134487888D01*
X137731703Y-134520815D01*
X137532189Y-134598107D01*
X137350275Y-134710743D01*
X137192159Y-134854884D01*
X137063216Y-135025632D01*
X136967848Y-135217159D01*
X136909295Y-135422949D01*
X136889554Y-135636000D01*
X136909295Y-135849050D01*
X136967848Y-136054840D01*
X137063216Y-136246367D01*
X137192159Y-136417115D01*
X137350275Y-136561256D01*
X137350277Y-136561257D01*
X137350278Y-136561258D01*
X137532190Y-136673893D01*
X137731703Y-136751185D01*
X137942020Y-136790500D01*
X137942022Y-136790500D01*
X138155978Y-136790500D01*
X138155980Y-136790500D01*
X138366297Y-136751185D01*
X138565810Y-136673893D01*
X138747722Y-136561258D01*
X138905841Y-136417114D01*
X139034781Y-136246370D01*
X139034781Y-136246368D01*
X139034783Y-136246367D01*
X139130151Y-136054840D01*
X139188704Y-135849050D01*
X139192576Y-135807263D01*
X139208446Y-135636000D01*
X139188704Y-135422952D01*
X139188704Y-135422949D01*
X139130151Y-135217159D01*
X139034783Y-135025632D01*
X138905840Y-134854884D01*
X138747724Y-134710743D01*
X138565810Y-134598107D01*
X138565809Y-134598107D01*
X138366297Y-134520815D01*
X138190153Y-134487888D01*
X138127874Y-134456221D01*
X138092601Y-134395909D01*
X138095535Y-134326100D01*
X138135744Y-134268960D01*
X138190152Y-134244112D01*
X138366297Y-134211185D01*
X138565810Y-134133893D01*
X138747722Y-134021258D01*
X138905841Y-133877114D01*
X139034781Y-133706370D01*
X139034781Y-133706368D01*
X139034783Y-133706367D01*
X139130151Y-133514840D01*
X139188704Y-133309050D01*
X139196394Y-133226059D01*
X139208446Y-133096000D01*
X139191448Y-132912561D01*
X139188704Y-132882949D01*
X139130151Y-132677159D01*
X139034783Y-132485632D01*
X138905840Y-132314884D01*
X138747724Y-132170743D01*
X138565810Y-132058107D01*
X138565809Y-132058106D01*
X138366297Y-131980815D01*
X138190153Y-131947888D01*
X138127874Y-131916221D01*
X138092601Y-131855909D01*
X138095535Y-131786100D01*
X138135744Y-131728960D01*
X138190152Y-131704112D01*
X138366297Y-131671185D01*
X138565810Y-131593893D01*
X138747722Y-131481258D01*
X138905841Y-131337114D01*
X139034781Y-131166370D01*
X139034781Y-131166368D01*
X139034783Y-131166367D01*
X139130151Y-130974840D01*
X139188704Y-130769050D01*
X139191790Y-130735739D01*
X139208446Y-130556000D01*
X139188704Y-130342952D01*
X139188704Y-130342949D01*
X139127007Y-130126108D01*
X139129830Y-130125304D01*
X139120685Y-130073978D01*
X139147563Y-130009485D01*
X139205042Y-129969761D01*
X139243946Y-129963500D01*
X139420613Y-129963500D01*
X139487652Y-129983185D01*
X139508294Y-129999819D01*
X140415790Y-130907315D01*
X140449275Y-130968638D01*
X140451430Y-131007956D01*
X140445540Y-131063998D01*
X140465326Y-131252257D01*
X140523820Y-131432284D01*
X140618466Y-131596216D01*
X140745129Y-131736889D01*
X140898269Y-131848151D01*
X141071197Y-131925144D01*
X141256352Y-131964500D01*
X141256354Y-131964500D01*
X141445648Y-131964500D01*
X141569083Y-131938262D01*
X141630803Y-131925144D01*
X141803730Y-131848151D01*
X141825615Y-131832251D01*
X141956870Y-131736889D01*
X141957870Y-131735779D01*
X142083533Y-131596216D01*
X142178179Y-131432284D01*
X142236674Y-131252256D01*
X142256460Y-131064000D01*
X147049540Y-131064000D01*
X147069326Y-131252257D01*
X147127820Y-131432284D01*
X147222466Y-131596216D01*
X147349129Y-131736889D01*
X147480385Y-131832251D01*
X147523051Y-131887580D01*
X147531500Y-131932569D01*
X147531500Y-133843701D01*
X147511815Y-133910740D01*
X147480391Y-133944015D01*
X147476133Y-133947108D01*
X147349464Y-134087786D01*
X147254820Y-134251715D01*
X147196326Y-134431742D01*
X147176540Y-134620000D01*
X147196326Y-134808257D01*
X147254820Y-134988284D01*
X147349466Y-135152216D01*
X147476129Y-135292889D01*
X147629269Y-135404151D01*
X147802197Y-135481144D01*
X147987352Y-135520500D01*
X147987354Y-135520500D01*
X148176648Y-135520500D01*
X148300083Y-135494262D01*
X148361803Y-135481144D01*
X148534730Y-135404151D01*
X148573602Y-135375909D01*
X148687870Y-135292889D01*
X148814533Y-135152216D01*
X148909179Y-134988284D01*
X148937261Y-134901856D01*
X148967674Y-134808256D01*
X148987460Y-134620000D01*
X148967674Y-134431744D01*
X148933348Y-134326100D01*
X148909179Y-134251715D01*
X148814535Y-134087786D01*
X148798741Y-134070246D01*
X148687871Y-133947112D01*
X148687866Y-133947109D01*
X148687866Y-133947108D01*
X148683609Y-133944015D01*
X148640947Y-133888683D01*
X148632500Y-133843701D01*
X148632500Y-131704935D01*
X148652185Y-131637896D01*
X148664351Y-131621962D01*
X148687533Y-131596216D01*
X148782179Y-131432284D01*
X148840674Y-131252256D01*
X148860460Y-131064000D01*
X148840674Y-130875744D01*
X148782179Y-130695716D01*
X148782179Y-130695715D01*
X148687533Y-130531783D01*
X148560870Y-130391110D01*
X148407730Y-130279848D01*
X148234802Y-130202855D01*
X148049648Y-130163500D01*
X148049646Y-130163500D01*
X147860354Y-130163500D01*
X147860352Y-130163500D01*
X147675197Y-130202855D01*
X147502269Y-130279848D01*
X147349129Y-130391110D01*
X147222466Y-130531783D01*
X147127820Y-130695715D01*
X147069326Y-130875742D01*
X147049540Y-131064000D01*
X142256460Y-131064000D01*
X142236674Y-130875744D01*
X142178179Y-130695716D01*
X142178179Y-130695715D01*
X142083533Y-130531783D01*
X141956870Y-130391110D01*
X141803730Y-130279848D01*
X141630802Y-130202855D01*
X141445648Y-130163500D01*
X141445646Y-130163500D01*
X141280387Y-130163500D01*
X141213348Y-130143815D01*
X141192706Y-130127181D01*
X140097406Y-129031881D01*
X140094492Y-129028867D01*
X140050680Y-128981956D01*
X140050679Y-128981955D01*
X140050678Y-128981954D01*
X140015574Y-128960607D01*
X140005079Y-128953464D01*
X139995757Y-128946395D01*
X139972342Y-128928639D01*
X139972340Y-128928638D01*
X139955644Y-128922053D01*
X139936714Y-128912650D01*
X139921384Y-128903328D01*
X139890924Y-128894793D01*
X139881814Y-128892240D01*
X139869795Y-128888199D01*
X139831564Y-128873124D01*
X139831563Y-128873123D01*
X139831561Y-128873123D01*
X139813715Y-128871288D01*
X139792952Y-128867342D01*
X139775668Y-128862500D01*
X139775665Y-128862500D01*
X139734582Y-128862500D01*
X139721901Y-128861850D01*
X139681027Y-128857647D01*
X139663344Y-128860697D01*
X139642275Y-128862500D01*
X139105490Y-128862500D01*
X139038451Y-128842815D01*
X138992696Y-128790011D01*
X138982752Y-128720853D01*
X139006536Y-128663774D01*
X139034781Y-128626370D01*
X139130151Y-128434840D01*
X139188704Y-128229050D01*
X139197558Y-128133500D01*
X139208446Y-128016000D01*
X139188704Y-127802952D01*
X139188704Y-127802949D01*
X139130151Y-127597159D01*
X139034783Y-127405632D01*
X138939326Y-127279227D01*
X138914634Y-127213865D01*
X138929199Y-127145531D01*
X138978397Y-127095918D01*
X139038280Y-127080500D01*
X141511548Y-127080500D01*
X141578587Y-127100185D01*
X141599229Y-127116819D01*
X141936038Y-127453629D01*
X141969523Y-127514952D01*
X141971678Y-127528348D01*
X141989326Y-127696257D01*
X142047820Y-127876284D01*
X142142466Y-128040216D01*
X142269129Y-128180889D01*
X142422269Y-128292151D01*
X142595197Y-128369144D01*
X142780352Y-128408500D01*
X142780354Y-128408500D01*
X142969648Y-128408500D01*
X143093084Y-128382262D01*
X143154803Y-128369144D01*
X143327730Y-128292151D01*
X143480871Y-128180888D01*
X143486598Y-128174527D01*
X143546084Y-128137879D01*
X143578747Y-128133500D01*
X148775253Y-128133500D01*
X148842292Y-128153185D01*
X148867400Y-128174526D01*
X148873129Y-128180888D01*
X149026270Y-128292151D01*
X149026271Y-128292151D01*
X149026272Y-128292152D01*
X149199197Y-128369144D01*
X149384352Y-128408500D01*
X149384354Y-128408500D01*
X149573648Y-128408500D01*
X149697083Y-128382262D01*
X149758803Y-128369144D01*
X149931730Y-128292151D01*
X149931729Y-128292151D01*
X150084870Y-128180889D01*
X150090598Y-128174528D01*
X150211533Y-128040216D01*
X150306179Y-127876284D01*
X150364674Y-127696256D01*
X150384460Y-127508000D01*
X150364674Y-127319744D01*
X150310492Y-127152989D01*
X150306179Y-127139715D01*
X150211533Y-126975783D01*
X150084870Y-126835110D01*
X149931730Y-126723848D01*
X149758802Y-126646855D01*
X149573648Y-126607500D01*
X149573646Y-126607500D01*
X149384354Y-126607500D01*
X149384352Y-126607500D01*
X149199197Y-126646855D01*
X149026272Y-126723847D01*
X148924175Y-126798024D01*
X148873129Y-126835112D01*
X148867401Y-126841472D01*
X148807916Y-126878121D01*
X148775253Y-126882500D01*
X143578747Y-126882500D01*
X143511708Y-126862815D01*
X143486599Y-126841473D01*
X143480871Y-126835112D01*
X143327730Y-126723849D01*
X143327729Y-126723848D01*
X143327727Y-126723847D01*
X143154802Y-126646855D01*
X142969648Y-126607500D01*
X142969646Y-126607500D01*
X142910452Y-126607500D01*
X142843413Y-126587815D01*
X142822771Y-126571181D01*
X142322802Y-126071211D01*
X142309906Y-126055113D01*
X142258775Y-126007098D01*
X142255978Y-126004387D01*
X142239227Y-125987636D01*
X142236471Y-125984880D01*
X142233290Y-125982412D01*
X142224422Y-125974837D01*
X142192582Y-125944938D01*
X142175024Y-125935285D01*
X142158764Y-125924604D01*
X142142936Y-125912327D01*
X142102851Y-125894980D01*
X142092361Y-125889841D01*
X142054091Y-125868802D01*
X142034691Y-125863821D01*
X142016284Y-125857519D01*
X141997897Y-125849562D01*
X141954758Y-125842729D01*
X141943324Y-125840361D01*
X141901019Y-125829500D01*
X141880984Y-125829500D01*
X141861586Y-125827973D01*
X141854162Y-125826797D01*
X141841805Y-125824840D01*
X141841804Y-125824840D01*
X141808751Y-125827964D01*
X141798325Y-125828950D01*
X141786656Y-125829500D01*
X139311711Y-125829500D01*
X139244672Y-125809815D01*
X139198917Y-125757011D01*
X139188240Y-125694059D01*
X139193390Y-125638472D01*
X139208446Y-125476000D01*
X139188704Y-125262952D01*
X139188704Y-125262949D01*
X139130151Y-125057159D01*
X139034783Y-124865632D01*
X138905840Y-124694884D01*
X138747724Y-124550743D01*
X138565810Y-124438107D01*
X138565809Y-124438107D01*
X138366297Y-124360815D01*
X138190153Y-124327888D01*
X138127874Y-124296221D01*
X138092601Y-124235909D01*
X138095535Y-124166100D01*
X138135744Y-124108960D01*
X138190152Y-124084112D01*
X138366297Y-124051185D01*
X138565810Y-123973893D01*
X138747722Y-123861258D01*
X138905841Y-123717114D01*
X139034781Y-123546370D01*
X139034781Y-123546368D01*
X139034783Y-123546367D01*
X139130151Y-123354840D01*
X139188704Y-123149050D01*
X139191790Y-123115739D01*
X139208446Y-122936000D01*
X139188704Y-122722952D01*
X139188704Y-122722949D01*
X139130151Y-122517159D01*
X139034783Y-122325632D01*
X138905840Y-122154884D01*
X138747724Y-122010743D01*
X138565810Y-121898107D01*
X138550418Y-121892144D01*
X138366297Y-121820815D01*
X138190153Y-121787888D01*
X138127874Y-121756221D01*
X138092601Y-121695909D01*
X138095535Y-121626100D01*
X138135744Y-121568960D01*
X138190152Y-121544112D01*
X138366297Y-121511185D01*
X138565810Y-121433893D01*
X138747722Y-121321258D01*
X138905841Y-121177114D01*
X139034781Y-121006370D01*
X139034781Y-121006368D01*
X139034783Y-121006367D01*
X139130151Y-120814840D01*
X139188704Y-120609050D01*
X139191790Y-120575739D01*
X139208446Y-120396000D01*
X139188704Y-120182952D01*
X139188704Y-120182949D01*
X139130151Y-119977159D01*
X139034783Y-119785632D01*
X138910630Y-119621227D01*
X138885938Y-119555865D01*
X138900503Y-119487531D01*
X138949701Y-119437918D01*
X139009584Y-119422500D01*
X140579722Y-119422500D01*
X140646761Y-119442185D01*
X140671872Y-119463528D01*
X140745129Y-119544889D01*
X140898269Y-119656151D01*
X141071197Y-119733144D01*
X141256352Y-119772500D01*
X141256354Y-119772500D01*
X141445648Y-119772500D01*
X141569083Y-119746262D01*
X141630803Y-119733144D01*
X141803730Y-119656151D01*
X141860527Y-119614886D01*
X141956870Y-119544889D01*
X142083533Y-119404216D01*
X142178179Y-119240284D01*
X142225030Y-119096092D01*
X142236674Y-119060256D01*
X142256460Y-118872000D01*
X142236674Y-118683744D01*
X142190540Y-118541759D01*
X142178179Y-118503715D01*
X142083533Y-118339783D01*
X141956870Y-118199110D01*
X141803730Y-118087848D01*
X141630802Y-118010855D01*
X141445648Y-117971500D01*
X141445646Y-117971500D01*
X141256354Y-117971500D01*
X141256352Y-117971500D01*
X141071197Y-118010855D01*
X140898269Y-118087848D01*
X140745129Y-118199110D01*
X140671872Y-118280472D01*
X140612385Y-118317121D01*
X140579722Y-118321500D01*
X139281078Y-118321500D01*
X139214039Y-118301815D01*
X139168284Y-118249011D01*
X139158340Y-118179853D01*
X139161812Y-118163566D01*
X139188704Y-118069050D01*
X139194096Y-118010855D01*
X139208446Y-117856000D01*
X139188704Y-117642952D01*
X139188704Y-117642949D01*
X139130151Y-117437159D01*
X139034783Y-117245632D01*
X138905840Y-117074884D01*
X138747724Y-116930743D01*
X138565810Y-116818107D01*
X138366297Y-116740815D01*
X138190154Y-116707888D01*
X138127874Y-116676219D01*
X138092601Y-116615907D01*
X138095535Y-116546099D01*
X138135744Y-116488959D01*
X138190150Y-116464112D01*
X138366297Y-116431185D01*
X138565810Y-116353893D01*
X138747722Y-116241258D01*
X138853134Y-116145161D01*
X138905840Y-116097115D01*
X138987569Y-115988889D01*
X139034781Y-115926370D01*
X139034781Y-115926368D01*
X139034783Y-115926367D01*
X139130151Y-115734840D01*
X139188704Y-115529050D01*
X139191566Y-115498154D01*
X139208446Y-115316000D01*
X139188704Y-115102952D01*
X139188704Y-115102949D01*
X139130151Y-114897159D01*
X139034783Y-114705632D01*
X138905840Y-114534884D01*
X138747724Y-114390743D01*
X138565810Y-114278107D01*
X138565809Y-114278107D01*
X138366297Y-114200815D01*
X138190153Y-114167888D01*
X138127874Y-114136221D01*
X138092601Y-114075909D01*
X138095535Y-114006100D01*
X138135744Y-113948960D01*
X138190152Y-113924112D01*
X138366297Y-113891185D01*
X138565810Y-113813893D01*
X138747722Y-113701258D01*
X138905841Y-113557114D01*
X138986145Y-113450773D01*
X139042255Y-113409137D01*
X139085100Y-113401500D01*
X140024548Y-113401500D01*
X140091587Y-113421185D01*
X140112229Y-113437819D01*
X141936038Y-115261629D01*
X141969523Y-115322952D01*
X141971678Y-115336348D01*
X141989326Y-115504257D01*
X142047820Y-115684284D01*
X142142466Y-115848216D01*
X142269129Y-115988889D01*
X142422269Y-116100151D01*
X142595197Y-116177144D01*
X142780352Y-116216500D01*
X142780354Y-116216500D01*
X142969648Y-116216500D01*
X143093084Y-116190262D01*
X143154803Y-116177144D01*
X143327730Y-116100151D01*
X143480871Y-115988888D01*
X143486598Y-115982527D01*
X143546084Y-115945879D01*
X143578747Y-115941500D01*
X148775253Y-115941500D01*
X148842292Y-115961185D01*
X148867400Y-115982526D01*
X148873129Y-115988888D01*
X149026270Y-116100151D01*
X149026271Y-116100151D01*
X149026272Y-116100152D01*
X149199197Y-116177144D01*
X149384352Y-116216500D01*
X149384354Y-116216500D01*
X149573648Y-116216500D01*
X149697083Y-116190262D01*
X149758803Y-116177144D01*
X149931730Y-116100151D01*
X150084871Y-115988888D01*
X150211533Y-115848216D01*
X150306179Y-115684284D01*
X150364674Y-115504256D01*
X150384460Y-115316000D01*
X150364674Y-115127744D01*
X150306179Y-114947716D01*
X150306179Y-114947715D01*
X150211533Y-114783783D01*
X150084870Y-114643110D01*
X149931730Y-114531848D01*
X149758802Y-114454855D01*
X149573648Y-114415500D01*
X149573646Y-114415500D01*
X149384354Y-114415500D01*
X149384352Y-114415500D01*
X149199197Y-114454855D01*
X149026272Y-114531847D01*
X148924175Y-114606024D01*
X148873129Y-114643112D01*
X148867401Y-114649472D01*
X148807916Y-114686121D01*
X148775253Y-114690500D01*
X143578747Y-114690500D01*
X143511708Y-114670815D01*
X143486599Y-114649473D01*
X143480871Y-114643112D01*
X143327730Y-114531849D01*
X143327729Y-114531848D01*
X143327727Y-114531847D01*
X143154802Y-114454855D01*
X142969648Y-114415500D01*
X142969646Y-114415500D01*
X142910453Y-114415500D01*
X142843414Y-114395815D01*
X142822772Y-114379181D01*
X140835802Y-112392211D01*
X140822906Y-112376113D01*
X140771775Y-112328098D01*
X140768978Y-112325387D01*
X140752227Y-112308636D01*
X140749471Y-112305880D01*
X140746290Y-112303412D01*
X140737422Y-112295837D01*
X140705582Y-112265938D01*
X140688024Y-112256285D01*
X140671764Y-112245604D01*
X140655936Y-112233327D01*
X140615851Y-112215980D01*
X140605361Y-112210841D01*
X140567091Y-112189802D01*
X140547691Y-112184821D01*
X140529284Y-112178519D01*
X140510897Y-112170562D01*
X140467758Y-112163729D01*
X140456324Y-112161361D01*
X140414019Y-112150500D01*
X140393984Y-112150500D01*
X140374586Y-112148973D01*
X140367162Y-112147797D01*
X140354805Y-112145840D01*
X140354804Y-112145840D01*
X140329468Y-112148235D01*
X140311325Y-112149950D01*
X140299656Y-112150500D01*
X139858452Y-112150500D01*
X139791413Y-112130815D01*
X139745658Y-112078011D01*
X139735714Y-112008853D01*
X139764739Y-111945297D01*
X139770771Y-111938819D01*
X142906107Y-108803483D01*
X146052789Y-105656800D01*
X146068885Y-105643906D01*
X146070873Y-105641787D01*
X146070877Y-105641786D01*
X146116949Y-105592723D01*
X146119534Y-105590055D01*
X146139120Y-105570471D01*
X146141585Y-105567292D01*
X146149167Y-105558416D01*
X146179062Y-105526582D01*
X146188717Y-105509018D01*
X146199394Y-105492764D01*
X146211673Y-105476936D01*
X146229018Y-105436852D01*
X146234160Y-105426356D01*
X146255197Y-105388092D01*
X146260179Y-105368684D01*
X146266481Y-105350280D01*
X146274437Y-105331896D01*
X146281269Y-105288752D01*
X146283633Y-105277338D01*
X146294500Y-105235019D01*
X146294500Y-105214982D01*
X146296027Y-105195584D01*
X146299160Y-105175804D01*
X146295050Y-105132324D01*
X146294500Y-105120655D01*
X146294500Y-100514257D01*
X146314185Y-100447218D01*
X146366989Y-100401463D01*
X146436147Y-100391519D01*
X146468933Y-100400977D01*
X146520637Y-100423997D01*
X146532199Y-100429145D01*
X146717352Y-100468500D01*
X146717354Y-100468500D01*
X146775133Y-100468500D01*
X146842172Y-100488185D01*
X146860017Y-100502108D01*
X146883223Y-100523900D01*
X146886020Y-100526611D01*
X146905529Y-100546120D01*
X146908709Y-100548587D01*
X146917578Y-100556162D01*
X146934092Y-100571670D01*
X146969486Y-100631911D01*
X146967138Y-100700378D01*
X146942326Y-100776740D01*
X146922540Y-100965000D01*
X146942326Y-101153257D01*
X147000820Y-101333284D01*
X147095464Y-101497213D01*
X147132307Y-101538131D01*
X147168302Y-101578107D01*
X147170650Y-101580714D01*
X147200880Y-101643706D01*
X147202500Y-101663687D01*
X147202500Y-102152256D01*
X147200235Y-102172766D01*
X147202439Y-102242872D01*
X147202500Y-102246767D01*
X147202500Y-102274350D01*
X147202988Y-102278219D01*
X147202989Y-102278225D01*
X147203004Y-102278343D01*
X147203918Y-102289967D01*
X147205290Y-102333626D01*
X147210879Y-102352860D01*
X147214825Y-102371916D01*
X147217335Y-102391792D01*
X147233414Y-102432404D01*
X147237197Y-102443451D01*
X147249382Y-102485391D01*
X147259580Y-102502635D01*
X147268136Y-102520100D01*
X147275514Y-102538732D01*
X147275515Y-102538733D01*
X147301180Y-102574059D01*
X147307593Y-102583822D01*
X147329826Y-102621416D01*
X147329829Y-102621419D01*
X147329830Y-102621420D01*
X147343995Y-102635585D01*
X147356627Y-102650375D01*
X147368406Y-102666587D01*
X147402058Y-102694426D01*
X147410699Y-102702289D01*
X152111702Y-107403293D01*
X152145187Y-107464616D01*
X152147492Y-107502415D01*
X152129554Y-107695999D01*
X152149295Y-107909050D01*
X152207848Y-108114840D01*
X152303216Y-108306367D01*
X152432159Y-108477115D01*
X152590275Y-108621256D01*
X152590277Y-108621257D01*
X152590278Y-108621258D01*
X152772190Y-108733893D01*
X152971703Y-108811185D01*
X153147845Y-108844111D01*
X153210125Y-108875779D01*
X153245398Y-108936092D01*
X153242464Y-109005900D01*
X153202255Y-109063040D01*
X153147845Y-109087888D01*
X152971703Y-109120815D01*
X152772189Y-109198107D01*
X152590275Y-109310743D01*
X152432159Y-109454884D01*
X152303216Y-109625632D01*
X152207848Y-109817159D01*
X152149295Y-110022949D01*
X152129554Y-110235999D01*
X152149295Y-110449050D01*
X152207848Y-110654840D01*
X152303216Y-110846367D01*
X152432159Y-111017115D01*
X152590275Y-111161256D01*
X152590277Y-111161257D01*
X152590278Y-111161258D01*
X152772190Y-111273893D01*
X152971703Y-111351185D01*
X153149205Y-111384366D01*
X153211485Y-111416033D01*
X153246758Y-111476345D01*
X153243824Y-111546154D01*
X153203615Y-111603294D01*
X153149204Y-111628143D01*
X152971840Y-111661298D01*
X152772410Y-111738557D01*
X152669086Y-111802532D01*
X152669085Y-111802533D01*
X153244599Y-112378046D01*
X153163852Y-112390835D01*
X153050955Y-112448359D01*
X152961359Y-112537955D01*
X152903835Y-112650852D01*
X152891046Y-112731598D01*
X152312980Y-112153532D01*
X152303646Y-112165895D01*
X152208315Y-112357343D01*
X152149789Y-112563042D01*
X152130056Y-112776000D01*
X152149789Y-112988957D01*
X152208315Y-113194656D01*
X152303646Y-113386105D01*
X152312980Y-113398466D01*
X152891046Y-112820400D01*
X152903835Y-112901148D01*
X152961359Y-113014045D01*
X153050955Y-113103641D01*
X153163852Y-113161165D01*
X153244599Y-113173953D01*
X152669085Y-113749465D01*
X152772413Y-113813443D01*
X152971839Y-113890701D01*
X153149204Y-113923856D01*
X153211485Y-113955524D01*
X153246758Y-114015836D01*
X153243824Y-114085644D01*
X153203616Y-114142785D01*
X153149205Y-114167634D01*
X152971702Y-114200815D01*
X152772189Y-114278107D01*
X152590275Y-114390743D01*
X152432159Y-114534884D01*
X152303216Y-114705632D01*
X152207848Y-114897159D01*
X152149295Y-115102949D01*
X152129554Y-115315999D01*
X152149295Y-115529050D01*
X152207848Y-115734840D01*
X152303216Y-115926367D01*
X152432159Y-116097115D01*
X152590275Y-116241256D01*
X152590277Y-116241257D01*
X152590278Y-116241258D01*
X152772190Y-116353893D01*
X152971703Y-116431185D01*
X153147846Y-116464111D01*
X153210124Y-116495778D01*
X153245398Y-116556090D01*
X153242465Y-116625898D01*
X153202256Y-116683038D01*
X153147845Y-116707888D01*
X152971702Y-116740815D01*
X152772189Y-116818107D01*
X152590275Y-116930743D01*
X152432159Y-117074884D01*
X152303216Y-117245632D01*
X152207848Y-117437159D01*
X152149295Y-117642949D01*
X152129554Y-117856000D01*
X152149295Y-118069050D01*
X152207848Y-118274840D01*
X152303216Y-118466367D01*
X152432159Y-118637115D01*
X152590275Y-118781256D01*
X152590277Y-118781257D01*
X152590278Y-118781258D01*
X152772190Y-118893893D01*
X152971703Y-118971185D01*
X153147845Y-119004111D01*
X153210125Y-119035779D01*
X153245398Y-119096092D01*
X153242464Y-119165900D01*
X153202255Y-119223040D01*
X153147845Y-119247888D01*
X152971703Y-119280815D01*
X152772189Y-119358107D01*
X152590275Y-119470743D01*
X152432159Y-119614884D01*
X152303216Y-119785632D01*
X152207848Y-119977159D01*
X152151010Y-120176925D01*
X152113731Y-120236019D01*
X152050421Y-120265576D01*
X151981182Y-120256214D01*
X151969169Y-120249270D01*
X151790802Y-120169855D01*
X151605648Y-120130500D01*
X151605646Y-120130500D01*
X151416354Y-120130500D01*
X151416352Y-120130500D01*
X151231197Y-120169855D01*
X151058269Y-120246848D01*
X150905129Y-120358110D01*
X150831872Y-120439472D01*
X150772385Y-120476121D01*
X150739722Y-120480500D01*
X150393386Y-120480500D01*
X150326347Y-120460815D01*
X150305705Y-120444181D01*
X148890209Y-119028684D01*
X148856724Y-118967361D01*
X148854569Y-118928044D01*
X148860460Y-118872000D01*
X148840674Y-118683744D01*
X148794540Y-118541759D01*
X148782179Y-118503715D01*
X148687533Y-118339783D01*
X148560870Y-118199110D01*
X148407730Y-118087848D01*
X148234802Y-118010855D01*
X148049648Y-117971500D01*
X148049646Y-117971500D01*
X147860354Y-117971500D01*
X147860352Y-117971500D01*
X147675197Y-118010855D01*
X147502269Y-118087848D01*
X147349129Y-118199110D01*
X147222466Y-118339783D01*
X147127820Y-118503715D01*
X147069326Y-118683742D01*
X147049540Y-118872000D01*
X147069326Y-119060257D01*
X147127820Y-119240284D01*
X147222466Y-119404216D01*
X147349129Y-119544889D01*
X147502269Y-119656151D01*
X147675197Y-119733144D01*
X147860352Y-119772500D01*
X148025613Y-119772500D01*
X148092652Y-119792185D01*
X148113294Y-119808819D01*
X149716579Y-121412103D01*
X149719492Y-121415116D01*
X149763320Y-121462044D01*
X149798425Y-121483391D01*
X149808918Y-121490532D01*
X149841658Y-121515361D01*
X149858353Y-121521944D01*
X149877292Y-121531352D01*
X149892618Y-121540672D01*
X149932181Y-121551757D01*
X149944213Y-121555803D01*
X149982436Y-121570876D01*
X150000285Y-121572711D01*
X150021046Y-121576656D01*
X150038335Y-121581500D01*
X150079418Y-121581500D01*
X150092098Y-121582149D01*
X150132972Y-121586352D01*
X150150656Y-121583303D01*
X150171725Y-121581500D01*
X150739722Y-121581500D01*
X150806761Y-121601185D01*
X150831872Y-121622528D01*
X150905129Y-121703889D01*
X151058269Y-121815151D01*
X151231197Y-121892144D01*
X151416352Y-121931500D01*
X151416354Y-121931500D01*
X151605648Y-121931500D01*
X151762749Y-121898107D01*
X151790803Y-121892144D01*
X151963730Y-121815151D01*
X152116871Y-121703888D01*
X152243533Y-121563216D01*
X152338179Y-121399284D01*
X152355941Y-121344616D01*
X152395379Y-121286940D01*
X152459737Y-121259741D01*
X152528584Y-121271655D01*
X152557408Y-121291293D01*
X152590278Y-121321258D01*
X152772190Y-121433893D01*
X152971703Y-121511185D01*
X153147845Y-121544111D01*
X153210125Y-121575779D01*
X153245398Y-121636092D01*
X153242464Y-121705900D01*
X153202255Y-121763040D01*
X153147845Y-121787888D01*
X153002003Y-121815151D01*
X152971703Y-121820815D01*
X152772189Y-121898107D01*
X152590275Y-122010743D01*
X152432159Y-122154884D01*
X152303216Y-122325632D01*
X152207848Y-122517159D01*
X152149295Y-122722949D01*
X152129554Y-122936000D01*
X152149295Y-123149050D01*
X152207848Y-123354840D01*
X152303216Y-123546367D01*
X152432159Y-123717115D01*
X152590275Y-123861256D01*
X152590277Y-123861257D01*
X152590278Y-123861258D01*
X152772190Y-123973893D01*
X152971703Y-124051185D01*
X153147845Y-124084111D01*
X153210125Y-124115779D01*
X153245398Y-124176092D01*
X153242464Y-124245900D01*
X153202255Y-124303040D01*
X153147845Y-124327888D01*
X152971702Y-124360815D01*
X152971703Y-124360815D01*
X152772189Y-124438107D01*
X152590275Y-124550743D01*
X152432159Y-124694884D01*
X152303216Y-124865632D01*
X152207848Y-125057159D01*
X152149295Y-125262949D01*
X152129554Y-125476000D01*
X152149295Y-125689050D01*
X152207848Y-125894840D01*
X152303216Y-126086367D01*
X152432159Y-126257115D01*
X152590275Y-126401256D01*
X152590277Y-126401257D01*
X152590278Y-126401258D01*
X152772190Y-126513893D01*
X152971703Y-126591185D01*
X153147846Y-126624111D01*
X153210124Y-126655778D01*
X153245398Y-126716090D01*
X153242465Y-126785898D01*
X153202256Y-126843038D01*
X153147845Y-126867888D01*
X152971702Y-126900815D01*
X152772189Y-126978107D01*
X152590275Y-127090743D01*
X152432159Y-127234884D01*
X152303216Y-127405632D01*
X152207848Y-127597159D01*
X152149295Y-127802949D01*
X152129554Y-128016000D01*
X152149295Y-128229050D01*
X152207848Y-128434840D01*
X152303216Y-128626367D01*
X152432159Y-128797115D01*
X152590275Y-128941256D01*
X152590277Y-128941257D01*
X152590278Y-128941258D01*
X152772190Y-129053893D01*
X152971703Y-129131185D01*
X153147846Y-129164111D01*
X153210124Y-129195778D01*
X153245398Y-129256090D01*
X153242465Y-129325898D01*
X153202256Y-129383038D01*
X153147845Y-129407888D01*
X152971702Y-129440815D01*
X152772189Y-129518107D01*
X152590275Y-129630743D01*
X152432159Y-129774884D01*
X152303216Y-129945632D01*
X152207848Y-130137159D01*
X152149295Y-130342949D01*
X152129554Y-130555999D01*
X152149295Y-130769050D01*
X152207848Y-130974840D01*
X152303216Y-131166367D01*
X152432159Y-131337115D01*
X152590275Y-131481256D01*
X152590277Y-131481257D01*
X152590278Y-131481258D01*
X152772190Y-131593893D01*
X152971703Y-131671185D01*
X153147845Y-131704111D01*
X153210125Y-131735779D01*
X153245398Y-131796092D01*
X153242464Y-131865900D01*
X153202255Y-131923040D01*
X153147845Y-131947888D01*
X152971703Y-131980814D01*
X152971703Y-131980815D01*
X152772189Y-132058107D01*
X152590275Y-132170743D01*
X152432159Y-132314884D01*
X152303216Y-132485632D01*
X152207848Y-132677159D01*
X152149295Y-132882949D01*
X152129554Y-133095999D01*
X152149295Y-133309050D01*
X152207848Y-133514840D01*
X152303216Y-133706367D01*
X152432159Y-133877115D01*
X152590275Y-134021256D01*
X152590277Y-134021257D01*
X152590278Y-134021258D01*
X152772190Y-134133893D01*
X152971703Y-134211185D01*
X153147845Y-134244111D01*
X153210125Y-134275779D01*
X153245398Y-134336092D01*
X153242464Y-134405900D01*
X153202255Y-134463040D01*
X153147845Y-134487888D01*
X152971702Y-134520815D01*
X152971703Y-134520815D01*
X152772189Y-134598107D01*
X152590275Y-134710743D01*
X152432159Y-134854884D01*
X152303216Y-135025632D01*
X152207848Y-135217159D01*
X152149295Y-135422949D01*
X152129554Y-135636000D01*
X152149295Y-135849050D01*
X152207848Y-136054840D01*
X152303216Y-136246367D01*
X152432159Y-136417115D01*
X152590275Y-136561256D01*
X152590277Y-136561257D01*
X152590278Y-136561258D01*
X152772190Y-136673893D01*
X152971703Y-136751185D01*
X153182020Y-136790500D01*
X153182022Y-136790500D01*
X153395978Y-136790500D01*
X153395980Y-136790500D01*
X153606297Y-136751185D01*
X153805810Y-136673893D01*
X153987722Y-136561258D01*
X154145841Y-136417114D01*
X154274781Y-136246370D01*
X154274781Y-136246368D01*
X154274783Y-136246367D01*
X154370151Y-136054840D01*
X154428704Y-135849050D01*
X154432576Y-135807263D01*
X154448446Y-135636000D01*
X154428704Y-135422952D01*
X154428704Y-135422949D01*
X154370151Y-135217159D01*
X154274783Y-135025632D01*
X154145840Y-134854884D01*
X153987724Y-134710743D01*
X153805810Y-134598107D01*
X153606297Y-134520815D01*
X153430153Y-134487888D01*
X153367874Y-134456221D01*
X153332601Y-134395909D01*
X153335535Y-134326100D01*
X153375744Y-134268960D01*
X153430152Y-134244112D01*
X153606297Y-134211185D01*
X153805810Y-134133893D01*
X153987722Y-134021258D01*
X154145841Y-133877114D01*
X154274781Y-133706370D01*
X154274781Y-133706368D01*
X154274783Y-133706367D01*
X154370151Y-133514840D01*
X154428704Y-133309050D01*
X154436394Y-133226059D01*
X154448446Y-133096000D01*
X154431448Y-132912561D01*
X154428704Y-132882949D01*
X154370151Y-132677159D01*
X154274783Y-132485632D01*
X154145840Y-132314884D01*
X153987724Y-132170743D01*
X153805810Y-132058107D01*
X153606297Y-131980815D01*
X153430153Y-131947888D01*
X153367874Y-131916221D01*
X153332601Y-131855909D01*
X153335535Y-131786100D01*
X153375744Y-131728960D01*
X153430152Y-131704112D01*
X153606297Y-131671185D01*
X153805810Y-131593893D01*
X153987722Y-131481258D01*
X154145841Y-131337114D01*
X154274781Y-131166370D01*
X154274781Y-131166368D01*
X154274783Y-131166367D01*
X154370151Y-130974840D01*
X154428704Y-130769050D01*
X154431566Y-130738154D01*
X154448446Y-130556000D01*
X154428704Y-130342952D01*
X154428704Y-130342949D01*
X154370151Y-130137159D01*
X154274783Y-129945632D01*
X154145840Y-129774884D01*
X153987724Y-129630743D01*
X153805810Y-129518107D01*
X153606297Y-129440815D01*
X153430154Y-129407888D01*
X153367874Y-129376219D01*
X153332601Y-129315907D01*
X153335535Y-129246099D01*
X153375744Y-129188959D01*
X153430150Y-129164112D01*
X153606297Y-129131185D01*
X153805810Y-129053893D01*
X153987722Y-128941258D01*
X154113956Y-128826181D01*
X154145840Y-128797115D01*
X154145841Y-128797114D01*
X154274781Y-128626370D01*
X154274781Y-128626368D01*
X154274783Y-128626367D01*
X154370151Y-128434840D01*
X154428704Y-128229050D01*
X154437558Y-128133500D01*
X154448446Y-128016000D01*
X154428704Y-127802952D01*
X154428704Y-127802949D01*
X154370151Y-127597159D01*
X154274783Y-127405632D01*
X154145840Y-127234884D01*
X153987724Y-127090743D01*
X153805810Y-126978107D01*
X153799811Y-126975783D01*
X153606297Y-126900815D01*
X153430153Y-126867888D01*
X153367874Y-126836221D01*
X153332601Y-126775909D01*
X153335535Y-126706100D01*
X153375744Y-126648960D01*
X153430152Y-126624112D01*
X153606297Y-126591185D01*
X153805810Y-126513893D01*
X153987722Y-126401258D01*
X154145841Y-126257114D01*
X154274781Y-126086370D01*
X154274781Y-126086368D01*
X154274783Y-126086367D01*
X154370151Y-125894840D01*
X154428704Y-125689050D01*
X154432577Y-125647255D01*
X154448446Y-125476000D01*
X154428704Y-125262952D01*
X154428704Y-125262949D01*
X154370151Y-125057159D01*
X154274783Y-124865632D01*
X154145840Y-124694884D01*
X153987724Y-124550743D01*
X153805810Y-124438107D01*
X153805809Y-124438107D01*
X153606297Y-124360815D01*
X153430153Y-124327888D01*
X153367874Y-124296221D01*
X153332601Y-124235909D01*
X153335535Y-124166100D01*
X153375744Y-124108960D01*
X153430152Y-124084112D01*
X153606297Y-124051185D01*
X153805810Y-123973893D01*
X153987722Y-123861258D01*
X154145841Y-123717114D01*
X154274781Y-123546370D01*
X154274781Y-123546368D01*
X154274783Y-123546367D01*
X154370151Y-123354840D01*
X154428704Y-123149050D01*
X154431790Y-123115739D01*
X154448446Y-122936000D01*
X154428704Y-122722952D01*
X154428704Y-122722949D01*
X154370151Y-122517159D01*
X154274783Y-122325632D01*
X154145840Y-122154884D01*
X153987724Y-122010743D01*
X153805810Y-121898107D01*
X153790418Y-121892144D01*
X153606297Y-121820815D01*
X153430153Y-121787888D01*
X153367874Y-121756221D01*
X153332601Y-121695909D01*
X153335535Y-121626100D01*
X153375744Y-121568960D01*
X153430152Y-121544112D01*
X153606297Y-121511185D01*
X153805810Y-121433893D01*
X153987722Y-121321258D01*
X154145841Y-121177114D01*
X154274781Y-121006370D01*
X154274781Y-121006368D01*
X154274783Y-121006367D01*
X154370151Y-120814840D01*
X154428704Y-120609050D01*
X154431790Y-120575739D01*
X154448446Y-120396000D01*
X154428704Y-120182952D01*
X154428704Y-120182949D01*
X154370151Y-119977159D01*
X154274783Y-119785632D01*
X154145840Y-119614884D01*
X153987724Y-119470743D01*
X153805810Y-119358107D01*
X153606297Y-119280815D01*
X153430153Y-119247888D01*
X153367874Y-119216221D01*
X153332601Y-119155909D01*
X153335535Y-119086100D01*
X153375744Y-119028960D01*
X153430152Y-119004112D01*
X153606297Y-118971185D01*
X153805810Y-118893893D01*
X153987722Y-118781258D01*
X154145841Y-118637114D01*
X154274781Y-118466370D01*
X154274781Y-118466368D01*
X154274783Y-118466367D01*
X154370151Y-118274840D01*
X154428704Y-118069050D01*
X154434096Y-118010855D01*
X154448446Y-117856000D01*
X154428704Y-117642952D01*
X154428704Y-117642949D01*
X154370151Y-117437159D01*
X154274783Y-117245632D01*
X154145840Y-117074884D01*
X153987724Y-116930743D01*
X153805810Y-116818107D01*
X153606297Y-116740815D01*
X153430154Y-116707888D01*
X153367874Y-116676219D01*
X153332601Y-116615907D01*
X153335535Y-116546099D01*
X153375744Y-116488959D01*
X153430150Y-116464112D01*
X153606297Y-116431185D01*
X153805810Y-116353893D01*
X153987722Y-116241258D01*
X154093134Y-116145161D01*
X154145840Y-116097115D01*
X154227569Y-115988889D01*
X154274781Y-115926370D01*
X154274781Y-115926368D01*
X154274783Y-115926367D01*
X154370151Y-115734840D01*
X154428704Y-115529050D01*
X154431566Y-115498154D01*
X154448446Y-115316000D01*
X154428704Y-115102952D01*
X154428704Y-115102949D01*
X154370151Y-114897159D01*
X154274783Y-114705632D01*
X154145840Y-114534884D01*
X153987724Y-114390743D01*
X153805810Y-114278107D01*
X153805809Y-114278107D01*
X153606297Y-114200815D01*
X153515148Y-114183776D01*
X153428795Y-114167634D01*
X153366514Y-114135965D01*
X153331241Y-114075653D01*
X153334175Y-114005845D01*
X153374384Y-113948705D01*
X153428795Y-113923856D01*
X153606160Y-113890701D01*
X153805586Y-113813443D01*
X153908913Y-113749465D01*
X153333401Y-113173953D01*
X153414148Y-113161165D01*
X153527045Y-113103641D01*
X153616641Y-113014045D01*
X153674165Y-112901148D01*
X153686953Y-112820399D01*
X154265018Y-113398465D01*
X154274355Y-113386102D01*
X154369684Y-113194656D01*
X154428210Y-112988957D01*
X154447943Y-112776000D01*
X154428210Y-112563042D01*
X154369684Y-112357343D01*
X154274353Y-112165893D01*
X154265019Y-112153533D01*
X154265018Y-112153533D01*
X153686953Y-112731597D01*
X153674165Y-112650852D01*
X153616641Y-112537955D01*
X153527045Y-112448359D01*
X153414148Y-112390835D01*
X153333401Y-112378046D01*
X153908913Y-111802533D01*
X153908912Y-111802532D01*
X153805589Y-111738557D01*
X153606159Y-111661298D01*
X153428795Y-111628143D01*
X153366514Y-111596475D01*
X153331241Y-111536162D01*
X153334175Y-111466354D01*
X153374384Y-111409214D01*
X153428791Y-111384366D01*
X153606297Y-111351185D01*
X153805810Y-111273893D01*
X153987722Y-111161258D01*
X154145841Y-111017114D01*
X154274781Y-110846370D01*
X154274781Y-110846368D01*
X154274783Y-110846367D01*
X154370151Y-110654840D01*
X154428704Y-110449050D01*
X154431566Y-110418154D01*
X154448446Y-110236000D01*
X154428704Y-110022952D01*
X154428704Y-110022949D01*
X154370151Y-109817159D01*
X154274783Y-109625632D01*
X154145840Y-109454884D01*
X153987724Y-109310743D01*
X153805810Y-109198107D01*
X153801659Y-109196499D01*
X153606297Y-109120815D01*
X153430153Y-109087888D01*
X153367874Y-109056221D01*
X153332601Y-108995909D01*
X153335535Y-108926100D01*
X153375744Y-108868960D01*
X153430152Y-108844112D01*
X153606297Y-108811185D01*
X153805810Y-108733893D01*
X153987722Y-108621258D01*
X154145841Y-108477114D01*
X154274781Y-108306370D01*
X154274781Y-108306368D01*
X154274783Y-108306367D01*
X154370151Y-108114840D01*
X154428704Y-107909050D01*
X154441784Y-107767889D01*
X154448446Y-107696000D01*
X154428704Y-107482952D01*
X154428704Y-107482949D01*
X154370151Y-107277159D01*
X154274783Y-107085632D01*
X154145840Y-106914884D01*
X153987724Y-106770743D01*
X153805810Y-106658107D01*
X153771546Y-106644833D01*
X153606297Y-106580815D01*
X153430153Y-106547888D01*
X153367874Y-106516221D01*
X153332601Y-106455909D01*
X153335535Y-106386100D01*
X153375744Y-106328960D01*
X153430152Y-106304112D01*
X153606297Y-106271185D01*
X153805810Y-106193893D01*
X153987722Y-106081258D01*
X154145841Y-105937114D01*
X154274781Y-105766370D01*
X154274781Y-105766368D01*
X154274783Y-105766367D01*
X154370151Y-105574840D01*
X154428704Y-105369050D01*
X154432147Y-105331895D01*
X154448446Y-105156000D01*
X154428704Y-104942952D01*
X154428704Y-104942949D01*
X154370151Y-104737159D01*
X154274783Y-104545632D01*
X154145840Y-104374884D01*
X153987724Y-104230743D01*
X153805810Y-104118107D01*
X153805809Y-104118107D01*
X153606297Y-104040815D01*
X153430153Y-104007888D01*
X153367874Y-103976221D01*
X153332601Y-103915909D01*
X153335535Y-103846100D01*
X153375744Y-103788960D01*
X153430152Y-103764112D01*
X153606297Y-103731185D01*
X153805810Y-103653893D01*
X153987722Y-103541258D01*
X154145841Y-103397114D01*
X154274781Y-103226370D01*
X154274781Y-103226368D01*
X154274783Y-103226367D01*
X154370151Y-103034840D01*
X154428704Y-102829050D01*
X154440833Y-102698152D01*
X154448446Y-102616000D01*
X154428704Y-102402952D01*
X154428704Y-102402949D01*
X154370151Y-102197159D01*
X154274783Y-102005632D01*
X154145840Y-101834884D01*
X153987724Y-101690743D01*
X153805810Y-101578107D01*
X153757434Y-101559366D01*
X153606297Y-101500815D01*
X153430153Y-101467888D01*
X153367874Y-101436221D01*
X153332601Y-101375909D01*
X153335535Y-101306100D01*
X153375744Y-101248960D01*
X153430152Y-101224112D01*
X153606297Y-101191185D01*
X153805810Y-101113893D01*
X153987722Y-101001258D01*
X154137506Y-100864712D01*
X154145840Y-100857115D01*
X154159927Y-100838461D01*
X154274781Y-100686370D01*
X154274781Y-100686368D01*
X154274783Y-100686367D01*
X154370151Y-100494840D01*
X154428704Y-100289050D01*
X154439419Y-100173414D01*
X154448446Y-100076000D01*
X154428704Y-99862952D01*
X154428704Y-99862949D01*
X154370151Y-99657159D01*
X154274783Y-99465632D01*
X154145840Y-99294884D01*
X153987724Y-99150743D01*
X153805810Y-99038107D01*
X153799811Y-99035783D01*
X153606297Y-98960815D01*
X153430153Y-98927888D01*
X153367874Y-98896221D01*
X153332601Y-98835909D01*
X153335535Y-98766100D01*
X153375744Y-98708960D01*
X153430152Y-98684112D01*
X153606297Y-98651185D01*
X153805810Y-98573893D01*
X153987722Y-98461258D01*
X154145841Y-98317114D01*
X154274781Y-98146370D01*
X154274781Y-98146368D01*
X154274783Y-98146367D01*
X154370151Y-97954840D01*
X154428704Y-97749050D01*
X154432318Y-97710046D01*
X154448446Y-97536000D01*
X154428704Y-97322952D01*
X154428704Y-97322949D01*
X154370151Y-97117159D01*
X154274783Y-96925632D01*
X154145840Y-96754884D01*
X153987724Y-96610743D01*
X153805810Y-96498107D01*
X153805809Y-96498106D01*
X153606297Y-96420815D01*
X153430153Y-96387888D01*
X153367874Y-96356221D01*
X153332601Y-96295909D01*
X153335535Y-96226100D01*
X153375744Y-96168960D01*
X153430152Y-96144112D01*
X153606297Y-96111185D01*
X153805810Y-96033893D01*
X153987722Y-95921258D01*
X154145841Y-95777114D01*
X154274781Y-95606370D01*
X154274781Y-95606368D01*
X154274783Y-95606367D01*
X154370151Y-95414840D01*
X154428704Y-95209050D01*
X154432925Y-95163500D01*
X154448446Y-94996000D01*
X154428704Y-94782952D01*
X154428704Y-94782949D01*
X154370151Y-94577159D01*
X154274783Y-94385632D01*
X154145840Y-94214884D01*
X153987724Y-94070743D01*
X153805810Y-93958107D01*
X153805809Y-93958106D01*
X153606297Y-93880815D01*
X153430153Y-93847888D01*
X153367874Y-93816221D01*
X153332601Y-93755909D01*
X153335535Y-93686100D01*
X153375744Y-93628960D01*
X153430152Y-93604112D01*
X153606297Y-93571185D01*
X153805810Y-93493893D01*
X153987722Y-93381258D01*
X154145841Y-93237114D01*
X154274781Y-93066370D01*
X154274781Y-93066368D01*
X154274783Y-93066367D01*
X154370151Y-92874840D01*
X154428704Y-92669050D01*
X154431566Y-92638154D01*
X154448446Y-92456000D01*
X154428704Y-92242952D01*
X154428704Y-92242949D01*
X154370151Y-92037159D01*
X154274783Y-91845632D01*
X154145840Y-91674884D01*
X153987724Y-91530743D01*
X153805810Y-91418107D01*
X153805809Y-91418106D01*
X153606297Y-91340815D01*
X153430153Y-91307888D01*
X153367874Y-91276221D01*
X153332601Y-91215909D01*
X153335535Y-91146100D01*
X153375744Y-91088960D01*
X153430152Y-91064112D01*
X153606297Y-91031185D01*
X153805810Y-90953893D01*
X153987722Y-90841258D01*
X154121711Y-90719111D01*
X154145840Y-90697115D01*
X154274783Y-90526367D01*
X154370151Y-90334840D01*
X154428704Y-90129050D01*
X154443947Y-89964548D01*
X154448446Y-89916000D01*
X154428704Y-89702952D01*
X154428704Y-89702949D01*
X154370151Y-89497159D01*
X154274783Y-89305632D01*
X154145840Y-89134884D01*
X153987724Y-88990743D01*
X153805810Y-88878107D01*
X153789811Y-88871909D01*
X153606297Y-88800815D01*
X153430153Y-88767888D01*
X153367874Y-88736221D01*
X153332601Y-88675909D01*
X153335535Y-88606100D01*
X153375744Y-88548960D01*
X153430152Y-88524112D01*
X153606297Y-88491185D01*
X153805810Y-88413893D01*
X153987722Y-88301258D01*
X154145841Y-88157114D01*
X154274781Y-87986370D01*
X154274781Y-87986368D01*
X154274783Y-87986367D01*
X154370151Y-87794840D01*
X154428704Y-87589050D01*
X154431790Y-87555739D01*
X154448446Y-87376000D01*
X154428704Y-87162952D01*
X154428704Y-87162949D01*
X154370151Y-86957159D01*
X154274783Y-86765632D01*
X154145840Y-86594884D01*
X154056816Y-86513729D01*
X154020534Y-86454018D01*
X154022295Y-86384171D01*
X154061538Y-86326363D01*
X154077235Y-86315359D01*
X154080934Y-86313171D01*
X154080933Y-86313171D01*
X154080936Y-86313170D01*
X154095101Y-86299004D01*
X154109889Y-86286373D01*
X154126103Y-86274594D01*
X154153954Y-86240926D01*
X154161795Y-86232309D01*
X154651792Y-85742313D01*
X154667885Y-85729422D01*
X154669873Y-85727303D01*
X154669877Y-85727302D01*
X154715949Y-85678239D01*
X154718534Y-85675571D01*
X154738120Y-85655987D01*
X154740585Y-85652808D01*
X154748167Y-85643932D01*
X154749959Y-85642024D01*
X154778062Y-85612098D01*
X154787712Y-85594543D01*
X154798400Y-85578273D01*
X154810671Y-85562454D01*
X154810673Y-85562452D01*
X154828026Y-85522348D01*
X154833157Y-85511878D01*
X154854197Y-85473608D01*
X154859175Y-85454215D01*
X154865481Y-85435798D01*
X154867018Y-85432244D01*
X154873438Y-85417412D01*
X154880272Y-85374261D01*
X154882635Y-85362847D01*
X154893500Y-85320535D01*
X154893500Y-85300499D01*
X154895027Y-85281100D01*
X154898160Y-85261320D01*
X154894050Y-85217840D01*
X154893500Y-85206171D01*
X154893500Y-83357740D01*
X154895763Y-83337239D01*
X154893561Y-83267144D01*
X154893500Y-83263250D01*
X154893500Y-83239544D01*
X154893500Y-83235650D01*
X154892998Y-83231681D01*
X154892080Y-83220024D01*
X154891002Y-83185711D01*
X154890709Y-83176373D01*
X154885120Y-83157140D01*
X154881174Y-83138082D01*
X154878664Y-83118206D01*
X154862588Y-83077604D01*
X154858804Y-83066553D01*
X154850852Y-83039185D01*
X154846618Y-83024610D01*
X154836414Y-83007355D01*
X154827861Y-82989895D01*
X154820486Y-82971269D01*
X154820486Y-82971268D01*
X154794808Y-82935925D01*
X154788401Y-82926171D01*
X154766170Y-82888580D01*
X154752006Y-82874416D01*
X154739367Y-82859617D01*
X154727595Y-82843413D01*
X154693941Y-82815573D01*
X154685299Y-82807709D01*
X154466297Y-82588707D01*
X154432812Y-82527384D01*
X154430507Y-82489588D01*
X154448446Y-82296000D01*
X154428704Y-82082952D01*
X154428704Y-82082949D01*
X154370151Y-81877159D01*
X154274783Y-81685632D01*
X154145840Y-81514884D01*
X153987724Y-81370743D01*
X153805810Y-81258107D01*
X153788071Y-81251235D01*
X153606297Y-81180815D01*
X153515148Y-81163776D01*
X153428795Y-81147634D01*
X153366514Y-81115965D01*
X153331241Y-81055653D01*
X153334175Y-80985845D01*
X153374384Y-80928705D01*
X153428795Y-80903856D01*
X153606160Y-80870701D01*
X153805586Y-80793443D01*
X153908913Y-80729465D01*
X153333401Y-80153953D01*
X153414148Y-80141165D01*
X153527045Y-80083641D01*
X153616641Y-79994045D01*
X153674165Y-79881148D01*
X153686953Y-79800400D01*
X154265018Y-80378465D01*
X154274355Y-80366102D01*
X154369684Y-80174656D01*
X154428210Y-79968957D01*
X154447943Y-79755999D01*
X154428210Y-79543042D01*
X154369684Y-79337343D01*
X154274353Y-79145893D01*
X154265019Y-79133533D01*
X153686953Y-79711598D01*
X153674165Y-79630852D01*
X153616641Y-79517955D01*
X153527045Y-79428359D01*
X153414148Y-79370835D01*
X153333399Y-79358046D01*
X153908913Y-78782533D01*
X153908912Y-78782532D01*
X153805589Y-78718557D01*
X153606159Y-78641298D01*
X153428795Y-78608143D01*
X153366514Y-78576475D01*
X153331241Y-78516162D01*
X153334175Y-78446354D01*
X153374384Y-78389214D01*
X153428791Y-78364366D01*
X153606297Y-78331185D01*
X153805810Y-78253893D01*
X153987722Y-78141258D01*
X154145841Y-77997114D01*
X154274781Y-77826370D01*
X154274781Y-77826368D01*
X154274783Y-77826367D01*
X154370151Y-77634840D01*
X154428704Y-77429050D01*
X154440355Y-77303312D01*
X154448446Y-77216000D01*
X154432998Y-77049292D01*
X154428704Y-77002949D01*
X154370151Y-76797159D01*
X154274783Y-76605632D01*
X154145840Y-76434884D01*
X153987724Y-76290743D01*
X153805810Y-76178107D01*
X153805809Y-76178106D01*
X153606297Y-76100815D01*
X153395980Y-76061500D01*
X153182020Y-76061500D01*
X152971702Y-76100814D01*
X152971703Y-76100815D01*
X152772189Y-76178107D01*
X152590275Y-76290743D01*
X152432159Y-76434884D01*
X152303216Y-76605632D01*
X152207848Y-76797159D01*
X152149295Y-77002949D01*
X152129554Y-77216000D01*
X152147492Y-77409583D01*
X152134077Y-77478153D01*
X152111702Y-77508705D01*
X146716228Y-82904181D01*
X146654905Y-82937666D01*
X146628547Y-82940500D01*
X139218053Y-82940500D01*
X139151014Y-82920815D01*
X139105259Y-82868011D01*
X139095315Y-82798853D01*
X139107053Y-82761229D01*
X139130151Y-82714840D01*
X139188704Y-82509050D01*
X139191790Y-82475739D01*
X139208446Y-82296000D01*
X139188704Y-82082952D01*
X139188704Y-82082949D01*
X139130151Y-81877159D01*
X139034783Y-81685632D01*
X138905840Y-81514884D01*
X138747724Y-81370743D01*
X138565810Y-81258107D01*
X138548071Y-81251235D01*
X138366297Y-81180815D01*
X138190153Y-81147888D01*
X138127874Y-81116221D01*
X138092601Y-81055909D01*
X138095535Y-80986100D01*
X138135744Y-80928960D01*
X138190152Y-80904112D01*
X138366297Y-80871185D01*
X138565810Y-80793893D01*
X138747722Y-80681258D01*
X138905841Y-80537114D01*
X139034781Y-80366370D01*
X139034781Y-80366368D01*
X139034783Y-80366367D01*
X139130151Y-80174840D01*
X139188704Y-79969050D01*
X139196849Y-79881148D01*
X139208446Y-79756000D01*
X139192998Y-79589292D01*
X139188704Y-79542949D01*
X139130151Y-79337159D01*
X139034783Y-79145632D01*
X138905840Y-78974884D01*
X138747724Y-78830743D01*
X138565810Y-78718107D01*
X138565809Y-78718106D01*
X138366297Y-78640815D01*
X138275148Y-78623776D01*
X138188795Y-78607634D01*
X138126514Y-78575965D01*
X138091241Y-78515653D01*
X138094175Y-78445845D01*
X138134384Y-78388705D01*
X138188795Y-78363856D01*
X138366160Y-78330701D01*
X138565586Y-78253443D01*
X138668913Y-78189465D01*
X138093401Y-77613953D01*
X138174148Y-77601165D01*
X138287045Y-77543641D01*
X138376641Y-77454045D01*
X138434165Y-77341148D01*
X138446953Y-77260400D01*
X139025018Y-77838465D01*
X139034355Y-77826102D01*
X139129684Y-77634656D01*
X139188210Y-77428957D01*
X139207943Y-77216000D01*
X139188210Y-77003042D01*
X139129684Y-76797343D01*
X139034353Y-76605893D01*
X139025019Y-76593533D01*
X138446953Y-77171598D01*
X138434165Y-77090852D01*
X138376641Y-76977955D01*
X138287045Y-76888359D01*
X138174148Y-76830835D01*
X138093400Y-76818046D01*
X138668913Y-76242533D01*
X138668912Y-76242532D01*
X138565589Y-76178557D01*
X138366159Y-76101298D01*
X138155932Y-76062000D01*
X137942068Y-76062000D01*
X137731840Y-76101298D01*
X137532410Y-76178557D01*
X137429086Y-76242532D01*
X137429085Y-76242533D01*
X138004599Y-76818046D01*
X137923852Y-76830835D01*
X137810955Y-76888359D01*
X137721359Y-76977955D01*
X137663835Y-77090852D01*
X137651046Y-77171598D01*
X137072980Y-76593532D01*
X137063646Y-76605895D01*
X136968315Y-76797343D01*
X136909789Y-77003042D01*
X136890056Y-77216000D01*
X136909789Y-77428957D01*
X136968315Y-77634656D01*
X137063646Y-77826105D01*
X137072980Y-77838466D01*
X137651046Y-77260400D01*
X137663835Y-77341148D01*
X137721359Y-77454045D01*
X137810955Y-77543641D01*
X137923852Y-77601165D01*
X138004599Y-77613953D01*
X137429085Y-78189465D01*
X137532413Y-78253443D01*
X137731839Y-78330701D01*
X137909204Y-78363856D01*
X137971485Y-78395524D01*
X138006758Y-78455836D01*
X138003824Y-78525644D01*
X137963616Y-78582785D01*
X137909205Y-78607634D01*
X137731702Y-78640815D01*
X137532189Y-78718107D01*
X137350275Y-78830743D01*
X137192159Y-78974884D01*
X137063216Y-79145632D01*
X136967848Y-79337159D01*
X136909295Y-79542949D01*
X136889554Y-79756000D01*
X136909295Y-79969050D01*
X136967848Y-80174840D01*
X137063216Y-80366367D01*
X137192159Y-80537115D01*
X137350275Y-80681256D01*
X137350277Y-80681257D01*
X137350278Y-80681258D01*
X137532190Y-80793893D01*
X137731703Y-80871185D01*
X137907845Y-80904111D01*
X137970125Y-80935779D01*
X138005398Y-80996092D01*
X138002464Y-81065900D01*
X137962255Y-81123040D01*
X137907845Y-81147888D01*
X137731703Y-81180814D01*
X137731703Y-81180815D01*
X137532189Y-81258107D01*
X137350275Y-81370743D01*
X137192159Y-81514884D01*
X137063216Y-81685632D01*
X136967848Y-81877159D01*
X136909295Y-82082949D01*
X136889554Y-82296000D01*
X136909295Y-82509050D01*
X136967848Y-82714840D01*
X136996809Y-82773001D01*
X137009070Y-82841786D01*
X136982197Y-82906281D01*
X136924721Y-82946008D01*
X136920390Y-82947352D01*
X136915118Y-82948883D01*
X136896081Y-82952825D01*
X136876209Y-82955335D01*
X136835599Y-82971413D01*
X136824554Y-82975194D01*
X136782610Y-82987381D01*
X136765365Y-82997579D01*
X136747904Y-83006133D01*
X136729267Y-83013512D01*
X136693931Y-83039185D01*
X136684174Y-83045595D01*
X136646580Y-83067829D01*
X136632413Y-83081996D01*
X136617624Y-83094626D01*
X136601413Y-83106404D01*
X136573572Y-83140058D01*
X136565711Y-83148697D01*
X131054180Y-88660228D01*
X130992857Y-88693713D01*
X130923165Y-88688729D01*
X130867232Y-88646857D01*
X130842815Y-88581393D01*
X130842499Y-88572547D01*
X130842499Y-88212439D01*
X130842499Y-88212438D01*
X130842499Y-88209128D01*
X130836091Y-88149517D01*
X130785796Y-88014669D01*
X130699546Y-87899454D01*
X130584331Y-87813204D01*
X130449483Y-87762909D01*
X130403242Y-87757937D01*
X130338693Y-87731200D01*
X130298845Y-87673807D01*
X130292499Y-87634653D01*
X130292499Y-86143216D01*
X130312184Y-86076178D01*
X130351401Y-86037679D01*
X130435656Y-85985712D01*
X130559712Y-85861656D01*
X130651814Y-85712334D01*
X130706999Y-85545797D01*
X130717500Y-85443009D01*
X130717499Y-84742992D01*
X130706999Y-84640203D01*
X130651814Y-84473666D01*
X130559712Y-84324344D01*
X130559711Y-84324342D01*
X130435657Y-84200288D01*
X130286334Y-84108186D01*
X130119797Y-84053000D01*
X130020141Y-84042819D01*
X130020122Y-84042818D01*
X130017009Y-84042500D01*
X130013860Y-84042500D01*
X129320141Y-84042500D01*
X129320121Y-84042500D01*
X129316992Y-84042501D01*
X129313860Y-84042820D01*
X129313858Y-84042821D01*
X129214203Y-84053000D01*
X129047665Y-84108186D01*
X128898342Y-84200288D01*
X128774288Y-84324342D01*
X128682186Y-84473665D01*
X128627000Y-84640202D01*
X128616819Y-84739858D01*
X128616817Y-84739878D01*
X128616500Y-84742991D01*
X128616500Y-84746138D01*
X128616500Y-84746139D01*
X128616500Y-85439858D01*
X128616500Y-85439877D01*
X128616501Y-85443008D01*
X128616820Y-85446140D01*
X128616821Y-85446141D01*
X128627000Y-85545796D01*
X128682186Y-85712334D01*
X128774286Y-85861654D01*
X128774287Y-85861655D01*
X128774288Y-85861656D01*
X128898344Y-85985712D01*
X128982596Y-86037678D01*
X129029321Y-86089625D01*
X129041500Y-86143217D01*
X129041500Y-87634648D01*
X129021815Y-87701687D01*
X128969011Y-87747442D01*
X128930755Y-87757937D01*
X128884519Y-87762907D01*
X128749669Y-87813204D01*
X128634454Y-87899454D01*
X128548204Y-88014668D01*
X128497910Y-88149515D01*
X128497909Y-88149517D01*
X128491500Y-88209127D01*
X128491500Y-88212448D01*
X128491500Y-88212449D01*
X128491500Y-89651560D01*
X128491500Y-89651578D01*
X128491501Y-89654872D01*
X128497909Y-89714483D01*
X128548204Y-89849331D01*
X128598112Y-89915999D01*
X128634455Y-89964548D01*
X128720104Y-90028665D01*
X128761975Y-90084598D01*
X128766959Y-90154290D01*
X128744747Y-90202657D01*
X128663288Y-90310525D01*
X128566181Y-90505542D01*
X128506564Y-90715074D01*
X128486464Y-90931999D01*
X128506564Y-91148925D01*
X128566181Y-91358457D01*
X128663287Y-91553471D01*
X128794573Y-91727323D01*
X128875070Y-91800705D01*
X128955568Y-91874088D01*
X128982776Y-91890934D01*
X129029412Y-91942962D01*
X129041499Y-91996361D01*
X129041499Y-95039500D01*
X129021814Y-95106539D01*
X128969010Y-95152294D01*
X128917500Y-95163500D01*
X128675641Y-95163500D01*
X128675621Y-95163500D01*
X128672492Y-95163501D01*
X128669360Y-95163820D01*
X128669358Y-95163821D01*
X128569703Y-95174000D01*
X128403165Y-95229186D01*
X128253842Y-95321288D01*
X128129788Y-95445342D01*
X128037686Y-95594665D01*
X127982500Y-95761202D01*
X127972319Y-95860858D01*
X127972317Y-95860878D01*
X127972000Y-95863991D01*
X127972000Y-95867138D01*
X127972000Y-95867139D01*
X127972000Y-96860859D01*
X127972000Y-96860878D01*
X127972001Y-96864008D01*
X127972320Y-96867140D01*
X127972321Y-96867141D01*
X127982500Y-96966796D01*
X128037686Y-97133334D01*
X128129788Y-97282657D01*
X128253842Y-97406711D01*
X128300595Y-97435548D01*
X128403166Y-97498814D01*
X128514517Y-97535712D01*
X128569702Y-97553999D01*
X128669358Y-97564180D01*
X128669359Y-97564180D01*
X128672491Y-97564500D01*
X129297508Y-97564499D01*
X129400297Y-97553999D01*
X129566834Y-97498814D01*
X129716156Y-97406712D01*
X129809820Y-97313047D01*
X129871141Y-97279564D01*
X129940833Y-97284548D01*
X129985181Y-97313049D01*
X130078844Y-97406712D01*
X130125596Y-97435548D01*
X130172321Y-97487495D01*
X130184500Y-97541087D01*
X130184500Y-97710047D01*
X130164815Y-97777086D01*
X130148181Y-97797728D01*
X129360727Y-98585181D01*
X129299404Y-98618666D01*
X129273046Y-98621500D01*
X128699141Y-98621500D01*
X128699121Y-98621500D01*
X128695992Y-98621501D01*
X128692860Y-98621820D01*
X128692858Y-98621821D01*
X128593203Y-98632000D01*
X128426665Y-98687186D01*
X128277342Y-98779288D01*
X128153288Y-98903342D01*
X128061186Y-99052665D01*
X128006000Y-99219202D01*
X127995819Y-99318858D01*
X127995817Y-99318878D01*
X127995500Y-99321991D01*
X127995500Y-99325138D01*
X127995500Y-99325139D01*
X127995500Y-100318859D01*
X127995500Y-100318878D01*
X127995501Y-100322008D01*
X127995820Y-100325140D01*
X127995821Y-100325141D01*
X128006000Y-100424796D01*
X128061186Y-100591334D01*
X128153288Y-100740657D01*
X128277342Y-100864711D01*
X128333895Y-100899592D01*
X128426666Y-100956814D01*
X128538016Y-100993712D01*
X128593202Y-101011999D01*
X128692858Y-101022180D01*
X128692859Y-101022180D01*
X128695991Y-101022500D01*
X129321008Y-101022499D01*
X129423797Y-101011999D01*
X129590334Y-100956814D01*
X129739656Y-100864712D01*
X129833673Y-100770694D01*
X129894994Y-100737211D01*
X129964686Y-100742195D01*
X130009034Y-100770696D01*
X130102654Y-100864316D01*
X130251877Y-100956357D01*
X130418303Y-101011506D01*
X130517891Y-101021680D01*
X130524167Y-101021999D01*
X130583499Y-101021998D01*
X130583500Y-101021998D01*
X130583500Y-99696000D01*
X130603185Y-99628961D01*
X130655989Y-99583206D01*
X130707500Y-99572000D01*
X130959500Y-99572000D01*
X131026539Y-99591685D01*
X131072294Y-99644489D01*
X131083500Y-99696000D01*
X131083500Y-101021999D01*
X131142829Y-101021999D01*
X131149111Y-101021678D01*
X131248695Y-101011506D01*
X131415122Y-100956357D01*
X131564345Y-100864316D01*
X131688316Y-100740345D01*
X131780357Y-100591122D01*
X131835506Y-100424696D01*
X131845680Y-100325109D01*
X131845999Y-100318832D01*
X131845999Y-100240454D01*
X131865683Y-100173414D01*
X131918486Y-100127658D01*
X131987645Y-100117714D01*
X132051201Y-100146738D01*
X132057680Y-100152771D01*
X133380696Y-101475787D01*
X133393596Y-101491888D01*
X133444723Y-101539900D01*
X133447520Y-101542611D01*
X133467029Y-101562120D01*
X133470209Y-101564587D01*
X133479071Y-101572155D01*
X133510918Y-101602062D01*
X133528472Y-101611712D01*
X133544736Y-101622396D01*
X133556472Y-101631499D01*
X133560564Y-101634673D01*
X133581438Y-101643706D01*
X133600652Y-101652021D01*
X133611131Y-101657154D01*
X133649408Y-101678197D01*
X133668806Y-101683177D01*
X133687208Y-101689477D01*
X133705604Y-101697438D01*
X133748761Y-101704273D01*
X133760164Y-101706634D01*
X133802481Y-101717500D01*
X133822516Y-101717500D01*
X133841913Y-101719026D01*
X133861696Y-101722160D01*
X133905174Y-101718050D01*
X133916844Y-101717500D01*
X137031779Y-101717500D01*
X137098818Y-101737185D01*
X137144573Y-101789989D01*
X137154517Y-101859147D01*
X137130733Y-101916227D01*
X137063216Y-102005632D01*
X136967848Y-102197159D01*
X136909295Y-102402949D01*
X136889554Y-102615999D01*
X136909295Y-102829050D01*
X136967848Y-103034840D01*
X137063216Y-103226367D01*
X137192159Y-103397115D01*
X137350275Y-103541256D01*
X137350277Y-103541257D01*
X137350278Y-103541258D01*
X137532190Y-103653893D01*
X137731703Y-103731185D01*
X137907845Y-103764111D01*
X137970125Y-103795779D01*
X138005398Y-103856092D01*
X138002464Y-103925900D01*
X137962255Y-103983040D01*
X137907845Y-104007888D01*
X137731703Y-104040815D01*
X137532189Y-104118107D01*
X137350275Y-104230743D01*
X137192159Y-104374884D01*
X137063216Y-104545632D01*
X136967848Y-104737159D01*
X136909295Y-104942949D01*
X136889554Y-105155999D01*
X136909295Y-105369050D01*
X136967848Y-105574840D01*
X137063216Y-105766367D01*
X137192159Y-105937115D01*
X137350275Y-106081256D01*
X137350277Y-106081257D01*
X137350278Y-106081258D01*
X137532190Y-106193893D01*
X137731703Y-106271185D01*
X137907846Y-106304111D01*
X137970124Y-106335778D01*
X138005398Y-106396090D01*
X138002465Y-106465898D01*
X137962256Y-106523038D01*
X137907845Y-106547888D01*
X137731702Y-106580815D01*
X137532189Y-106658107D01*
X137350275Y-106770743D01*
X137192159Y-106914884D01*
X137063216Y-107085632D01*
X136967848Y-107277159D01*
X136909295Y-107482949D01*
X136889554Y-107695999D01*
X136909295Y-107909050D01*
X136967847Y-108114838D01*
X137018334Y-108216228D01*
X137030595Y-108285014D01*
X137003722Y-108349509D01*
X136946246Y-108389236D01*
X136907334Y-108395500D01*
X129583927Y-108395500D01*
X129516888Y-108375815D01*
X129471133Y-108323011D01*
X129461189Y-108253853D01*
X129470371Y-108221691D01*
X129486585Y-108184724D01*
X129547613Y-107943732D01*
X129568141Y-107696000D01*
X129547613Y-107448267D01*
X129486586Y-107207278D01*
X129386730Y-106979630D01*
X129286434Y-106826116D01*
X128546076Y-107566474D01*
X128522493Y-107486156D01*
X128444761Y-107365202D01*
X128336100Y-107271048D01*
X128205315Y-107211320D01*
X128195534Y-107209913D01*
X128933057Y-106472390D01*
X128933056Y-106472388D01*
X128886235Y-106435947D01*
X128667606Y-106317631D01*
X128432493Y-106236916D01*
X128187293Y-106196000D01*
X127938707Y-106196000D01*
X127693506Y-106236916D01*
X127458393Y-106317631D01*
X127239764Y-106435946D01*
X127192942Y-106472388D01*
X127192942Y-106472390D01*
X127930466Y-107209913D01*
X127920685Y-107211320D01*
X127789900Y-107271048D01*
X127681239Y-107365202D01*
X127603507Y-107486156D01*
X127579923Y-107566475D01*
X126839564Y-106826116D01*
X126739266Y-106979634D01*
X126639413Y-107207278D01*
X126578386Y-107448267D01*
X126557858Y-107695999D01*
X126578386Y-107943732D01*
X126639414Y-108184724D01*
X126655629Y-108221691D01*
X126664532Y-108290991D01*
X126634554Y-108354103D01*
X126575214Y-108390989D01*
X126542073Y-108395500D01*
X124698452Y-108395500D01*
X124631413Y-108375815D01*
X124610771Y-108359181D01*
X124599818Y-108348228D01*
X124566333Y-108286905D01*
X124563499Y-108260547D01*
X124563499Y-106651439D01*
X124563499Y-106648128D01*
X124557091Y-106588517D01*
X124506796Y-106453669D01*
X124420546Y-106338454D01*
X124305331Y-106252204D01*
X124170483Y-106201909D01*
X124170483Y-106201908D01*
X124114166Y-106195854D01*
X124114165Y-106195853D01*
X124110873Y-106195500D01*
X124107550Y-106195500D01*
X122018439Y-106195500D01*
X122018420Y-106195500D01*
X122015128Y-106195501D01*
X122011848Y-106195853D01*
X122011840Y-106195854D01*
X121955515Y-106201909D01*
X121820669Y-106252204D01*
X121705454Y-106338454D01*
X121619204Y-106453668D01*
X121568910Y-106588515D01*
X121568909Y-106588517D01*
X121562500Y-106648127D01*
X121562500Y-106651448D01*
X121562500Y-106651449D01*
X121562500Y-108740560D01*
X121562500Y-108740578D01*
X118999000Y-108740578D01*
X118999000Y-75822999D01*
X126373494Y-75822999D01*
X126373495Y-75823000D01*
X127208314Y-75823000D01*
X127196359Y-75834955D01*
X127138835Y-75947852D01*
X127119014Y-76073000D01*
X127138835Y-76198148D01*
X127196359Y-76311045D01*
X127208314Y-76323000D01*
X126373495Y-76323000D01*
X126423651Y-76499278D01*
X126520712Y-76694205D01*
X126651944Y-76867985D01*
X126812868Y-77014685D01*
X126998012Y-77129322D01*
X127201069Y-77207986D01*
X127274000Y-77221619D01*
X127274000Y-76388686D01*
X127285955Y-76400641D01*
X127398852Y-76458165D01*
X127492519Y-76473000D01*
X127555481Y-76473000D01*
X127649148Y-76458165D01*
X127762045Y-76400641D01*
X127773999Y-76388686D01*
X127773999Y-77221619D01*
X127846930Y-77207986D01*
X128049987Y-77129322D01*
X128235130Y-77014685D01*
X128246107Y-77004679D01*
X128308910Y-76974060D01*
X128378297Y-76982256D01*
X128428913Y-77022002D01*
X128491454Y-77105546D01*
X128606669Y-77191796D01*
X128741517Y-77242091D01*
X128787756Y-77247062D01*
X128852305Y-77273798D01*
X128892154Y-77331190D01*
X128898500Y-77370351D01*
X128898500Y-81348769D01*
X128878815Y-81415808D01*
X128862181Y-81436450D01*
X128774288Y-81524342D01*
X128682186Y-81673665D01*
X128627000Y-81840202D01*
X128616819Y-81939858D01*
X128616817Y-81939878D01*
X128616500Y-81942991D01*
X128616500Y-81946138D01*
X128616500Y-81946139D01*
X128616500Y-82639858D01*
X128616500Y-82639877D01*
X128616501Y-82643008D01*
X128616820Y-82646140D01*
X128616821Y-82646141D01*
X128627000Y-82745796D01*
X128682186Y-82912334D01*
X128774288Y-83061657D01*
X128898342Y-83185711D01*
X128898344Y-83185712D01*
X129047666Y-83277814D01*
X129159016Y-83314712D01*
X129214202Y-83332999D01*
X129313858Y-83343180D01*
X129313859Y-83343180D01*
X129316991Y-83343500D01*
X130017008Y-83343499D01*
X130119797Y-83332999D01*
X130286334Y-83277814D01*
X130435656Y-83185712D01*
X130559712Y-83061656D01*
X130651814Y-82912334D01*
X130706999Y-82745797D01*
X130717500Y-82643009D01*
X130717499Y-81942992D01*
X130706999Y-81840203D01*
X130651814Y-81673666D01*
X130559712Y-81524344D01*
X130559711Y-81524342D01*
X130435657Y-81400288D01*
X130343555Y-81343479D01*
X130286334Y-81308186D01*
X130234493Y-81291007D01*
X130177049Y-81251235D01*
X130150227Y-81186719D01*
X130149500Y-81173320D01*
X130149499Y-77370351D01*
X130169185Y-77303312D01*
X130221989Y-77257557D01*
X130260245Y-77247061D01*
X130306483Y-77242091D01*
X130441331Y-77191796D01*
X130556546Y-77105546D01*
X130642796Y-76990331D01*
X130693091Y-76855483D01*
X130699500Y-76795873D01*
X130699499Y-75350128D01*
X130693091Y-75290517D01*
X130642796Y-75155669D01*
X130556546Y-75040454D01*
X130441331Y-74954204D01*
X130306483Y-74903909D01*
X130246873Y-74897500D01*
X130243550Y-74897500D01*
X128804439Y-74897500D01*
X128804420Y-74897500D01*
X128801128Y-74897501D01*
X128797848Y-74897853D01*
X128797840Y-74897854D01*
X128741515Y-74903909D01*
X128606669Y-74954204D01*
X128491451Y-75040455D01*
X128428913Y-75123996D01*
X128372980Y-75165867D01*
X128303288Y-75170851D01*
X128246109Y-75141322D01*
X128235131Y-75131314D01*
X128049987Y-75016677D01*
X127846927Y-74938011D01*
X127774000Y-74924378D01*
X127773999Y-74924379D01*
X127773999Y-75757313D01*
X127762045Y-75745359D01*
X127649148Y-75687835D01*
X127555481Y-75673000D01*
X127492519Y-75673000D01*
X127398852Y-75687835D01*
X127285955Y-75745359D01*
X127273999Y-75757314D01*
X127274000Y-74924379D01*
X127273998Y-74924378D01*
X127201072Y-74938011D01*
X126998012Y-75016677D01*
X126812868Y-75131314D01*
X126651944Y-75278014D01*
X126520712Y-75451794D01*
X126423651Y-75646721D01*
X126373494Y-75822999D01*
X118999000Y-75822999D01*
X118999000Y-72387000D01*
X119018685Y-72319961D01*
X119071489Y-72274206D01*
X119123000Y-72263000D01*
X121460690Y-72263000D01*
X121524619Y-72280750D01*
G37*
%TD.AperFunction*%
%TD*%
M02*
