M48
; DRILL file {KiCad 7.0.2} date Tue Aug  1 20:04:03 2023
; FORMAT={-:-/ absolute / metric / decimal}
; #@! TF.CreationDate,2023-08-01T20:04:03-04:00
; #@! TF.GenerationSoftware,Kicad,Pcbnew,7.0.2
; #@! TF.FileFunction,Plated,1,2,PTH
FMAT,2
METRIC
; #@! TA.AperFunction,Plated,PTH,ViaDrill
T1C0.400
; #@! TA.AperFunction,Plated,PTH,ComponentDrill
T2C0.800
; #@! TA.AperFunction,Plated,PTH,ComponentDrill
T3C1.000
%
G90
G05
T1
X130.048Y-137.668
X131.318Y-134.874
X131.953Y-118.872
X132.207Y-127.508
X132.334Y-141.605
X132.969Y-135.763
X134.062Y-140.98
X134.62Y-143.256
X135.255Y-135.763
X135.382Y-134.239
X135.713Y-140.98
X136.856Y-143.901
X137.237Y-142.123
X139.269Y-140.726
X141.351Y-118.872
X141.351Y-131.064
X142.494Y-141.478
X142.875Y-115.316
X142.875Y-127.508
X143.637Y-100.965
X144.526Y-99.568
X144.691Y-140.907
X144.78Y-143.129
X146.215Y-140.907
X146.812Y-99.568
X147.231Y-144.463
X147.358Y-142.558
X147.828Y-100.965
X147.828Y-100.965
X147.955Y-118.872
X147.955Y-131.064
X148.082Y-134.62
X149.479Y-115.316
X149.479Y-127.508
X149.479Y-131.064
X149.517Y-140.653
X151.511Y-121.031
T2
X127.524Y-76.073
X129.524Y-76.073
X129.667Y-88.932
X129.667Y-90.932
X138.049Y-77.216
X138.049Y-79.756
X138.049Y-82.296
X138.049Y-84.836
X138.049Y-87.376
X138.049Y-89.916
X138.049Y-92.456
X138.049Y-94.996
X138.049Y-97.536
X138.049Y-100.076
X138.049Y-102.616
X138.049Y-105.156
X138.049Y-107.696
X138.049Y-110.236
X138.049Y-112.776
X138.049Y-115.316
X138.049Y-117.856
X138.049Y-120.396
X138.049Y-122.936
X138.049Y-125.476
X138.049Y-128.016
X138.049Y-130.556
X138.049Y-133.096
X138.049Y-135.636
X153.289Y-77.216
X153.289Y-79.756
X153.289Y-82.296
X153.289Y-84.836
X153.289Y-87.376
X153.289Y-89.916
X153.289Y-92.456
X153.289Y-94.996
X153.289Y-97.536
X153.289Y-100.076
X153.289Y-102.616
X153.289Y-105.156
X153.289Y-107.696
X153.289Y-110.236
X153.289Y-112.776
X153.289Y-115.316
X153.289Y-117.856
X153.289Y-120.396
X153.289Y-122.936
X153.289Y-125.476
X153.289Y-128.016
X153.289Y-130.556
X153.289Y-133.096
X153.289Y-135.636
T3
X123.063Y-107.696
X128.063Y-107.696
T0
M30
