%TF.GenerationSoftware,KiCad,Pcbnew,7.0.2*%
%TF.CreationDate,2023-08-01T20:04:04-04:00*%
%TF.ProjectId,imu-testbed,696d752d-7465-4737-9462-65642e6b6963,rev?*%
%TF.SameCoordinates,Original*%
%TF.FileFunction,Drillmap*%
%TF.FilePolarity,Positive*%
%FSLAX45Y45*%
G04 Gerber Fmt 4.5, Leading zero omitted, Abs format (unit mm)*
G04 Created by KiCad (PCBNEW 7.0.2) date 2023-08-01 20:04:04*
%MOMM*%
%LPD*%
G01*
G04 APERTURE LIST*
%ADD10C,0.100000*%
%ADD11C,0.200000*%
G04 APERTURE END LIST*
D10*
X15528400Y-15447300D02*
G75*
G03*
X15528400Y-15447300I-326500J0D01*
G01*
X12660000Y-15447300D02*
G75*
G03*
X12660000Y-15447300I-326500J0D01*
G01*
X12660000Y-6955900D02*
G75*
G03*
X12660000Y-6955900I-326500J0D01*
G01*
X15528400Y-6955900D02*
G75*
G03*
X15528400Y-6955900I-326500J0D01*
G01*
X11849100Y-6477000D02*
X15684500Y-6477000D01*
X15684500Y-15933420D01*
X11849100Y-15933420D01*
X11849100Y-6477000D01*
D11*
X12091719Y-16250944D02*
X12091719Y-16050944D01*
X12091719Y-16050944D02*
X12139338Y-16050944D01*
X12139338Y-16050944D02*
X12167909Y-16060468D01*
X12167909Y-16060468D02*
X12186957Y-16079515D01*
X12186957Y-16079515D02*
X12196481Y-16098563D01*
X12196481Y-16098563D02*
X12206005Y-16136658D01*
X12206005Y-16136658D02*
X12206005Y-16165229D01*
X12206005Y-16165229D02*
X12196481Y-16203325D01*
X12196481Y-16203325D02*
X12186957Y-16222372D01*
X12186957Y-16222372D02*
X12167909Y-16241420D01*
X12167909Y-16241420D02*
X12139338Y-16250944D01*
X12139338Y-16250944D02*
X12091719Y-16250944D01*
X12291719Y-16250944D02*
X12291719Y-16117610D01*
X12291719Y-16155706D02*
X12301243Y-16136658D01*
X12301243Y-16136658D02*
X12310767Y-16127134D01*
X12310767Y-16127134D02*
X12329814Y-16117610D01*
X12329814Y-16117610D02*
X12348862Y-16117610D01*
X12415528Y-16250944D02*
X12415528Y-16117610D01*
X12415528Y-16050944D02*
X12406005Y-16060468D01*
X12406005Y-16060468D02*
X12415528Y-16069991D01*
X12415528Y-16069991D02*
X12425052Y-16060468D01*
X12425052Y-16060468D02*
X12415528Y-16050944D01*
X12415528Y-16050944D02*
X12415528Y-16069991D01*
X12539338Y-16250944D02*
X12520290Y-16241420D01*
X12520290Y-16241420D02*
X12510767Y-16222372D01*
X12510767Y-16222372D02*
X12510767Y-16050944D01*
X12644100Y-16250944D02*
X12625052Y-16241420D01*
X12625052Y-16241420D02*
X12615528Y-16222372D01*
X12615528Y-16222372D02*
X12615528Y-16050944D01*
X12872671Y-16250944D02*
X12872671Y-16050944D01*
X12872671Y-16050944D02*
X12939338Y-16193801D01*
X12939338Y-16193801D02*
X13006005Y-16050944D01*
X13006005Y-16050944D02*
X13006005Y-16250944D01*
X13186957Y-16250944D02*
X13186957Y-16146182D01*
X13186957Y-16146182D02*
X13177433Y-16127134D01*
X13177433Y-16127134D02*
X13158386Y-16117610D01*
X13158386Y-16117610D02*
X13120290Y-16117610D01*
X13120290Y-16117610D02*
X13101243Y-16127134D01*
X13186957Y-16241420D02*
X13167909Y-16250944D01*
X13167909Y-16250944D02*
X13120290Y-16250944D01*
X13120290Y-16250944D02*
X13101243Y-16241420D01*
X13101243Y-16241420D02*
X13091719Y-16222372D01*
X13091719Y-16222372D02*
X13091719Y-16203325D01*
X13091719Y-16203325D02*
X13101243Y-16184277D01*
X13101243Y-16184277D02*
X13120290Y-16174753D01*
X13120290Y-16174753D02*
X13167909Y-16174753D01*
X13167909Y-16174753D02*
X13186957Y-16165229D01*
X13282195Y-16117610D02*
X13282195Y-16317610D01*
X13282195Y-16127134D02*
X13301243Y-16117610D01*
X13301243Y-16117610D02*
X13339338Y-16117610D01*
X13339338Y-16117610D02*
X13358386Y-16127134D01*
X13358386Y-16127134D02*
X13367909Y-16136658D01*
X13367909Y-16136658D02*
X13377433Y-16155706D01*
X13377433Y-16155706D02*
X13377433Y-16212848D01*
X13377433Y-16212848D02*
X13367909Y-16231896D01*
X13367909Y-16231896D02*
X13358386Y-16241420D01*
X13358386Y-16241420D02*
X13339338Y-16250944D01*
X13339338Y-16250944D02*
X13301243Y-16250944D01*
X13301243Y-16250944D02*
X13282195Y-16241420D01*
X13463148Y-16231896D02*
X13472671Y-16241420D01*
X13472671Y-16241420D02*
X13463148Y-16250944D01*
X13463148Y-16250944D02*
X13453624Y-16241420D01*
X13453624Y-16241420D02*
X13463148Y-16231896D01*
X13463148Y-16231896D02*
X13463148Y-16250944D01*
X13463148Y-16127134D02*
X13472671Y-16136658D01*
X13472671Y-16136658D02*
X13463148Y-16146182D01*
X13463148Y-16146182D02*
X13453624Y-16136658D01*
X13453624Y-16136658D02*
X13463148Y-16127134D01*
X13463148Y-16127134D02*
X13463148Y-16146182D01*
M02*
