%TF.GenerationSoftware,KiCad,Pcbnew,7.0.2*%
%TF.CreationDate,2023-08-01T20:03:33-04:00*%
%TF.ProjectId,imu-testbed,696d752d-7465-4737-9462-65642e6b6963,rev?*%
%TF.SameCoordinates,Original*%
%TF.FileFunction,Copper,L2,Bot*%
%TF.FilePolarity,Positive*%
%FSLAX46Y46*%
G04 Gerber Fmt 4.6, Leading zero omitted, Abs format (unit mm)*
G04 Created by KiCad (PCBNEW 7.0.2) date 2023-08-01 20:03:33*
%MOMM*%
%LPD*%
G01*
G04 APERTURE LIST*
G04 Aperture macros list*
%AMFreePoly0*
4,1,6,0.500000,-0.750000,-0.650000,-0.750000,-0.150000,0.000000,-0.650000,0.750000,0.500000,0.750000,0.500000,-0.750000,0.500000,-0.750000,$1*%
%AMFreePoly1*
4,1,6,1.000000,0.000000,0.500000,-0.750000,-0.500000,-0.750000,-0.500000,0.750000,0.500000,0.750000,1.000000,0.000000,1.000000,0.000000,$1*%
G04 Aperture macros list end*
%TA.AperFunction,ComponentPad*%
%ADD10R,2.000000X2.000000*%
%TD*%
%TA.AperFunction,ComponentPad*%
%ADD11C,2.000000*%
%TD*%
%TA.AperFunction,ComponentPad*%
%ADD12R,1.350000X1.350000*%
%TD*%
%TA.AperFunction,ComponentPad*%
%ADD13O,1.350000X1.350000*%
%TD*%
%TA.AperFunction,SMDPad,CuDef*%
%ADD14FreePoly0,180.000000*%
%TD*%
%TA.AperFunction,SMDPad,CuDef*%
%ADD15FreePoly1,180.000000*%
%TD*%
%TA.AperFunction,ComponentPad*%
%ADD16C,1.308000*%
%TD*%
%TA.AperFunction,ViaPad*%
%ADD17C,0.800000*%
%TD*%
%TA.AperFunction,Conductor*%
%ADD18C,0.250000*%
%TD*%
%TA.AperFunction,Conductor*%
%ADD19C,0.100000*%
%TD*%
G04 APERTURE END LIST*
D10*
%TO.P,BZ1,1,-*%
%TO.N,/Teensy 4.1/BUZZ*%
X123063000Y-107696000D03*
D11*
%TO.P,BZ1,2,+*%
%TO.N,GND*%
X128063000Y-107696000D03*
%TD*%
D12*
%TO.P,J2,1,Pin_1*%
%TO.N,/BATT_IN*%
X129667000Y-88932000D03*
D13*
%TO.P,J2,2,Pin_2*%
%TO.N,/Teensy 4.1/VIN*%
X129667000Y-90932000D03*
%TD*%
D14*
%TO.P,R8,2*%
%TO.N,Net-(U3-SDO_M)*%
X141515000Y-131064000D03*
D15*
%TO.P,R8,1*%
%TO.N,GND*%
X142965000Y-131064000D03*
%TD*%
D14*
%TO.P,R7,2*%
%TO.N,Net-(U3-SDO_M)*%
X141515000Y-127508000D03*
D15*
%TO.P,R7,1*%
%TO.N,+3V3*%
X142965000Y-127508000D03*
%TD*%
D14*
%TO.P,R6,2*%
%TO.N,Net-(U2-SDO_M)*%
X148119000Y-131064000D03*
D15*
%TO.P,R6,1*%
%TO.N,GND*%
X149569000Y-131064000D03*
%TD*%
D14*
%TO.P,R5,2*%
%TO.N,Net-(U2-SDO_M)*%
X148119000Y-127508000D03*
D15*
%TO.P,R5,1*%
%TO.N,+3V3*%
X149569000Y-127508000D03*
%TD*%
%TO.P,R4,1*%
%TO.N,GND*%
X142965000Y-118866000D03*
D14*
%TO.P,R4,2*%
%TO.N,Net-(U3-SDO_A{slash}G)*%
X141515000Y-118866000D03*
%TD*%
D15*
%TO.P,R3,1*%
%TO.N,GND*%
X149569000Y-118866000D03*
D14*
%TO.P,R3,2*%
%TO.N,Net-(U2-SDO_A{slash}G)*%
X148119000Y-118866000D03*
%TD*%
D15*
%TO.P,R2,1*%
%TO.N,+3V3*%
X142965000Y-115316000D03*
D14*
%TO.P,R2,2*%
%TO.N,Net-(U3-SDO_A{slash}G)*%
X141515000Y-115316000D03*
%TD*%
D15*
%TO.P,R1,1*%
%TO.N,+3V3*%
X149569000Y-115316000D03*
D14*
%TO.P,R1,2*%
%TO.N,Net-(U2-SDO_A{slash}G)*%
X148119000Y-115316000D03*
%TD*%
D13*
%TO.P,J1,2,Pin_2*%
%TO.N,GND*%
X127524000Y-76073000D03*
D12*
%TO.P,J1,1,Pin_1*%
%TO.N,Net-(D1-A)*%
X129524000Y-76073000D03*
%TD*%
D16*
%TO.P,U1,0,RX1*%
%TO.N,unconnected-(U1-RX1-Pad0)*%
X138049000Y-79756000D03*
%TO.P,U1,1,TX1*%
%TO.N,unconnected-(U1-TX1-Pad1)*%
X138049000Y-82296000D03*
%TO.P,U1,2,OUT2*%
%TO.N,unconnected-(U1-OUT2-Pad2)*%
X138049000Y-84836000D03*
%TO.P,U1,3,LRCLK2*%
%TO.N,unconnected-(U1-LRCLK2-Pad3)*%
X138049000Y-87376000D03*
%TO.P,U1,3.3V_1,3.3V*%
%TO.N,+3V3*%
X138049000Y-112776000D03*
%TO.P,U1,3.3V_2,3.3V*%
X153289000Y-82296000D03*
%TO.P,U1,4,BCLK2*%
%TO.N,unconnected-(U1-BCLK2-Pad4)*%
X138049000Y-89916000D03*
%TO.P,U1,5,IN2*%
%TO.N,unconnected-(U1-IN2-Pad5)*%
X138049000Y-92456000D03*
%TO.P,U1,6,OUT1D*%
%TO.N,unconnected-(U1-OUT1D-Pad6)*%
X138049000Y-94996000D03*
%TO.P,U1,7,RX2*%
%TO.N,unconnected-(U1-RX2-Pad7)*%
X138049000Y-97536000D03*
%TO.P,U1,8,TX2*%
%TO.N,unconnected-(U1-TX2-Pad8)*%
X138049000Y-100076000D03*
%TO.P,U1,9,OUT1C*%
%TO.N,unconnected-(U1-OUT1C-Pad9)*%
X138049000Y-102616000D03*
%TO.P,U1,10,CS1*%
%TO.N,unconnected-(U1-CS1-Pad10)*%
X138049000Y-105156000D03*
%TO.P,U1,11,MOSI*%
%TO.N,unconnected-(U1-MOSI-Pad11)*%
X138049000Y-107696000D03*
%TO.P,U1,12,MISO*%
%TO.N,unconnected-(U1-MISO-Pad12)*%
X138049000Y-110236000D03*
%TO.P,U1,13,SCK*%
%TO.N,unconnected-(U1-SCK-Pad13)*%
X153289000Y-110236000D03*
%TO.P,U1,14,A0*%
%TO.N,/Teensy 4.1/1s lipo analog voltage splitter/V_SCALED*%
X153289000Y-107696000D03*
%TO.P,U1,15,A1*%
%TO.N,unconnected-(U1-A1-Pad15)*%
X153289000Y-105156000D03*
%TO.P,U1,16,A2*%
%TO.N,unconnected-(U1-A2-Pad16)*%
X153289000Y-102616000D03*
%TO.P,U1,17,A3*%
%TO.N,/Teensy 4.1/BUZZ*%
X153289000Y-100076000D03*
%TO.P,U1,18,A4*%
%TO.N,/Barometric pressure sensor/SDA*%
X153289000Y-97536000D03*
%TO.P,U1,19,A5*%
%TO.N,/Barometric pressure sensor/SCL*%
X153289000Y-94996000D03*
%TO.P,U1,20,A6*%
%TO.N,unconnected-(U1-A6-Pad20)*%
X153289000Y-92456000D03*
%TO.P,U1,21,A7*%
%TO.N,unconnected-(U1-A7-Pad21)*%
X153289000Y-89916000D03*
%TO.P,U1,22,A8*%
%TO.N,unconnected-(U1-A8-Pad22)*%
X153289000Y-87376000D03*
%TO.P,U1,23,A9*%
%TO.N,unconnected-(U1-A9-Pad23)*%
X153289000Y-84836000D03*
%TO.P,U1,24,A10*%
%TO.N,unconnected-(U1-A10-Pad24)*%
X138049000Y-115316000D03*
%TO.P,U1,25,A11*%
%TO.N,unconnected-(U1-A11-Pad25)*%
X138049000Y-117856000D03*
%TO.P,U1,26,A12*%
%TO.N,unconnected-(U1-A12-Pad26)*%
X138049000Y-120396000D03*
%TO.P,U1,27,A13*%
%TO.N,unconnected-(U1-A13-Pad27)*%
X138049000Y-122936000D03*
%TO.P,U1,28,RX7*%
%TO.N,unconnected-(U1-RX7-Pad28)*%
X138049000Y-125476000D03*
%TO.P,U1,29,TX7*%
%TO.N,unconnected-(U1-TX7-Pad29)*%
X138049000Y-128016000D03*
%TO.P,U1,30,CRX3*%
%TO.N,unconnected-(U1-CRX3-Pad30)*%
X138049000Y-130556000D03*
%TO.P,U1,31,CTX3*%
%TO.N,unconnected-(U1-CTX3-Pad31)*%
X138049000Y-133096000D03*
%TO.P,U1,32,OUT1B*%
%TO.N,unconnected-(U1-OUT1B-Pad32)*%
X138049000Y-135636000D03*
%TO.P,U1,33,MCLK2*%
%TO.N,unconnected-(U1-MCLK2-Pad33)*%
X153289000Y-135636000D03*
%TO.P,U1,34,RX8*%
%TO.N,unconnected-(U1-RX8-Pad34)*%
X153289000Y-133096000D03*
%TO.P,U1,35,TX8*%
%TO.N,unconnected-(U1-TX8-Pad35)*%
X153289000Y-130556000D03*
%TO.P,U1,36,CS2*%
%TO.N,unconnected-(U1-CS2-Pad36)*%
X153289000Y-128016000D03*
%TO.P,U1,37,CS3*%
%TO.N,unconnected-(U1-CS3-Pad37)*%
X153289000Y-125476000D03*
%TO.P,U1,38,A14*%
%TO.N,unconnected-(U1-A14-Pad38)*%
X153289000Y-122936000D03*
%TO.P,U1,39,A15*%
%TO.N,unconnected-(U1-A15-Pad39)*%
X153289000Y-120396000D03*
%TO.P,U1,40,A16*%
%TO.N,unconnected-(U1-A16-Pad40)*%
X153289000Y-117856000D03*
%TO.P,U1,41,A17*%
%TO.N,unconnected-(U1-A17-Pad41)*%
X153289000Y-115316000D03*
%TO.P,U1,GND1,GND*%
%TO.N,GND*%
X138049000Y-77216000D03*
%TO.P,U1,GND2,GND*%
X153289000Y-112776000D03*
%TO.P,U1,GND3,GND*%
X153289000Y-79756000D03*
%TO.P,U1,VIN,VIN*%
%TO.N,/Teensy 4.1/VIN*%
X153289000Y-77216000D03*
%TD*%
D17*
%TO.N,/Teensy 4.1/BUZZ*%
X146812000Y-99568000D03*
X144526000Y-99568000D03*
%TO.N,/Teensy 4.1/1s lipo analog voltage splitter/V_SCALED*%
X147828000Y-100965000D03*
X147828000Y-100965000D03*
X143637000Y-100965000D03*
%TO.N,GND*%
X130048000Y-137668000D03*
X135382000Y-134239000D03*
X131318000Y-134874000D03*
X149479000Y-131064000D03*
%TO.N,+3V3*%
X149479000Y-115316000D03*
X142875000Y-115316000D03*
X149479000Y-127508000D03*
X142875000Y-127508000D03*
%TO.N,Net-(U2-SDO_A{slash}G)*%
X151511000Y-121031000D03*
%TO.N,Net-(U2-SDO_M)*%
X148082000Y-134620000D03*
X142494000Y-141478000D03*
%TO.N,Net-(U2-SDO_A{slash}G)*%
X144780000Y-143129000D03*
%TO.N,Net-(U3-SDO_A{slash}G)*%
X131953000Y-118872000D03*
%TO.N,Net-(U3-SDO_M)*%
X132207000Y-127508000D03*
%TO.N,Net-(U3-SDO_A{slash}G)*%
X134620000Y-143256000D03*
%TO.N,Net-(U3-SDO_M)*%
X132334000Y-141605000D03*
%TO.N,Net-(U3-SDO_A{slash}G)*%
X141351000Y-118872000D03*
%TO.N,Net-(U2-SDO_A{slash}G)*%
X147955000Y-118872000D03*
%TO.N,Net-(U3-SDO_M)*%
X141351000Y-131064000D03*
%TO.N,Net-(U2-SDO_M)*%
X147955000Y-131064000D03*
%TO.N,/Barometric pressure sensor/SCL*%
X135255000Y-135763000D03*
%TO.N,/Barometric pressure sensor/SDA*%
X132969000Y-135763000D03*
%TO.N,/Barometric pressure sensor/SCL*%
X146215000Y-140907000D03*
%TO.N,/Barometric pressure sensor/SDA*%
X144691000Y-140907000D03*
%TO.N,GND*%
X147231000Y-144463000D03*
%TO.N,Net-(U2-C1)*%
X149517000Y-140653000D03*
X147358000Y-142558000D03*
%TO.N,Net-(U3-C1)*%
X139269000Y-140726000D03*
X137237000Y-142123000D03*
%TO.N,GND*%
X136856000Y-143901000D03*
%TO.N,/Barometric pressure sensor/SDA*%
X134062000Y-140980000D03*
%TO.N,/Barometric pressure sensor/SCL*%
X135713000Y-140980000D03*
%TD*%
D18*
%TO.N,/Teensy 4.1/BUZZ*%
X146812000Y-99568000D02*
X146685000Y-99568000D01*
X144526000Y-99568000D02*
X146812000Y-99568000D01*
%TO.N,/Teensy 4.1/1s lipo analog voltage splitter/V_SCALED*%
X147828000Y-100965000D02*
X147574000Y-100838000D01*
X147447000Y-100965000D02*
X147828000Y-100965000D01*
X143637000Y-100965000D02*
X147447000Y-100965000D01*
%TO.N,GND*%
X149225000Y-118872000D02*
X149569000Y-119275620D01*
X149479000Y-131064000D02*
X149569000Y-131473620D01*
%TO.N,+3V3*%
X149479000Y-115316000D02*
X149569000Y-115725620D01*
X142875000Y-115226000D02*
X142965000Y-115316000D01*
X142875000Y-115316000D02*
X142875000Y-115226000D01*
X142965000Y-115316000D02*
X142875000Y-115316000D01*
X149479000Y-127508000D02*
X149569000Y-127917620D01*
X142875000Y-127508000D02*
X142965000Y-127508000D01*
D19*
%TO.N,Net-(U2-SDO_A{slash}G)*%
X151511000Y-139578239D02*
X151511000Y-121031000D01*
X147881239Y-143208000D02*
X151511000Y-139578239D01*
X144859000Y-143208000D02*
X147881239Y-143208000D01*
X144780000Y-143129000D02*
X144859000Y-143208000D01*
%TO.N,Net-(U2-SDO_M)*%
X146484239Y-141557000D02*
X148082000Y-139959239D01*
X148082000Y-139959239D02*
X148082000Y-134620000D01*
X142573000Y-141557000D02*
X146484239Y-141557000D01*
X142494000Y-141478000D02*
X142573000Y-141557000D01*
%TO.N,/Barometric pressure sensor/SDA*%
X135855000Y-142773000D02*
X134062000Y-140980000D01*
X138278000Y-142773000D02*
X135855000Y-142773000D01*
X144160000Y-140376000D02*
X140675000Y-140376000D01*
X144691000Y-140907000D02*
X144160000Y-140376000D01*
X140675000Y-140376000D02*
X138278000Y-142773000D01*
%TO.N,Net-(U3-SDO_A{slash}G)*%
X127127000Y-123571000D02*
X131953000Y-118872000D01*
X133065761Y-143256000D02*
X127127000Y-137317239D01*
X134620000Y-143256000D02*
X133065761Y-143256000D01*
X127127000Y-137317239D02*
X127127000Y-123571000D01*
X131953000Y-118872000D02*
X131826000Y-118872000D01*
%TO.N,Net-(U3-SDO_M)*%
X127508000Y-130048000D02*
X130048000Y-127508000D01*
X127508000Y-136779000D02*
X127508000Y-130048000D01*
X130048000Y-127508000D02*
X132207000Y-127508000D01*
X132334000Y-141605000D02*
X127508000Y-136779000D01*
D18*
%TO.N,Net-(U3-SDO_A{slash}G)*%
X141351000Y-118872000D02*
X141515000Y-118866000D01*
%TO.N,Net-(U2-SDO_A{slash}G)*%
X147955000Y-118872000D02*
X148119000Y-118866000D01*
%TO.N,Net-(U3-SDO_M)*%
X141351000Y-131064000D02*
X141515000Y-131064000D01*
%TO.N,Net-(U2-SDO_M)*%
X147955000Y-131064000D02*
X148119000Y-131064000D01*
%TO.N,Net-(U3-SDO_M)*%
X141515000Y-127508000D02*
X141351000Y-131064000D01*
%TO.N,Net-(U2-SDO_M)*%
X148119000Y-130667620D02*
X147955000Y-131064000D01*
X150394000Y-128392620D02*
X148119000Y-130667620D01*
X150394000Y-126568800D02*
X150394000Y-128392620D01*
X150258200Y-126433000D02*
X150394000Y-126568800D01*
X148119000Y-127248380D02*
X148934380Y-126433000D01*
X148934380Y-126433000D02*
X150258200Y-126433000D01*
X148119000Y-127508000D02*
X148119000Y-127248380D01*
%TO.N,GND*%
X148903620Y-132139000D02*
X144040000Y-132139000D01*
X149569000Y-131064000D02*
X149479000Y-131064000D01*
X149569000Y-131473620D02*
X148903620Y-132139000D01*
X144040000Y-132139000D02*
X142965000Y-131064000D01*
%TO.N,+3V3*%
X144040000Y-128583000D02*
X142965000Y-127508000D01*
X148903620Y-128583000D02*
X144040000Y-128583000D01*
X149569000Y-127917620D02*
X148903620Y-128583000D01*
X149569000Y-127508000D02*
X149479000Y-127508000D01*
X142965000Y-127098380D02*
X142875000Y-127508000D01*
X142299620Y-126433000D02*
X142965000Y-127098380D01*
X140825800Y-114241000D02*
X139623800Y-115443000D01*
X139623800Y-124166800D02*
X141890000Y-126433000D01*
X142299620Y-114241000D02*
X140825800Y-114241000D01*
X141890000Y-126433000D02*
X142299620Y-126433000D01*
X142965000Y-114906380D02*
X142299620Y-114241000D01*
X139623800Y-115443000D02*
X139623800Y-124166800D01*
X142965000Y-115316000D02*
X142965000Y-114906380D01*
%TO.N,Net-(U2-SDO_A{slash}G)*%
X150394000Y-116229800D02*
X148119000Y-118504800D01*
X150394000Y-114402200D02*
X150394000Y-116229800D01*
X148119000Y-118504800D02*
X147955000Y-118872000D01*
X148934380Y-114241000D02*
X150232800Y-114241000D01*
X148119000Y-115056380D02*
X148934380Y-114241000D01*
X148119000Y-115316000D02*
X148119000Y-115056380D01*
X150232800Y-114241000D02*
X150394000Y-114402200D01*
%TO.N,Net-(U3-SDO_A{slash}G)*%
X141515000Y-115316000D02*
X141351000Y-118872000D01*
%TO.N,GND*%
X148903620Y-119941000D02*
X144040000Y-119941000D01*
X149569000Y-119275620D02*
X148903620Y-119941000D01*
X144040000Y-119941000D02*
X142965000Y-118866000D01*
X149569000Y-118866000D02*
X149225000Y-118872000D01*
%TO.N,+3V3*%
X148903620Y-116391000D02*
X144040000Y-116391000D01*
X149569000Y-115725620D02*
X148903620Y-116391000D01*
X149569000Y-115316000D02*
X149479000Y-115316000D01*
X144040000Y-116391000D02*
X142965000Y-115316000D01*
%TO.N,/Barometric pressure sensor/SCL*%
X154268000Y-95975000D02*
X153289000Y-94996000D01*
X154268000Y-97941516D02*
X154268000Y-95975000D01*
X153694516Y-98515000D02*
X154268000Y-97941516D01*
X153416000Y-98515000D02*
X153694516Y-98515000D01*
X143256000Y-108675000D02*
X153416000Y-98515000D01*
X136379000Y-108675000D02*
X143256000Y-108675000D01*
X134437000Y-110617000D02*
X136379000Y-108675000D01*
X134437000Y-134945000D02*
X134437000Y-110617000D01*
X135255000Y-135763000D02*
X134437000Y-134945000D01*
%TO.N,/Barometric pressure sensor/SDA*%
X144272000Y-106553000D02*
X153289000Y-97536000D01*
X137807484Y-106553000D02*
X144272000Y-106553000D01*
X133987000Y-110373484D02*
X137807484Y-106553000D01*
X133987000Y-136781000D02*
X133987000Y-110373484D01*
%TO.N,/Barometric pressure sensor/SCL*%
X134437000Y-139704000D02*
X135713000Y-140980000D01*
X135255000Y-135763000D02*
X134437000Y-136581000D01*
X134437000Y-136581000D02*
X134437000Y-139704000D01*
%TO.N,/Barometric pressure sensor/SDA*%
X133987000Y-140905000D02*
X134062000Y-140980000D01*
X133987000Y-136781000D02*
X133987000Y-140905000D01*
X132969000Y-135763000D02*
X133987000Y-136781000D01*
D19*
%TO.N,/Barometric pressure sensor/SCL*%
X136617000Y-140076000D02*
X135713000Y-140980000D01*
X145384000Y-140076000D02*
X136617000Y-140076000D01*
X146215000Y-140907000D02*
X145384000Y-140076000D01*
%TO.N,Net-(U2-C1)*%
X149263000Y-140653000D02*
X149517000Y-140653000D01*
X147358000Y-142558000D02*
X149263000Y-140653000D01*
%TO.N,Net-(U3-C1)*%
X137872000Y-142123000D02*
X139269000Y-140726000D01*
X137237000Y-142123000D02*
X137872000Y-142123000D01*
%TD*%
%TA.AperFunction,Conductor*%
%TO.N,GND*%
G36*
X137126759Y-109320185D02*
G01*
X137172514Y-109372989D01*
X137182458Y-109442147D01*
X137158674Y-109499227D01*
X137063216Y-109625632D01*
X136967848Y-109817159D01*
X136909295Y-110022949D01*
X136889554Y-110235999D01*
X136909295Y-110449050D01*
X136967848Y-110654840D01*
X137063216Y-110846367D01*
X137192159Y-111017115D01*
X137350275Y-111161256D01*
X137350277Y-111161257D01*
X137350278Y-111161258D01*
X137532190Y-111273893D01*
X137731703Y-111351185D01*
X137907845Y-111384111D01*
X137970125Y-111415779D01*
X138005398Y-111476092D01*
X138002464Y-111545900D01*
X137962255Y-111603040D01*
X137907845Y-111627888D01*
X137731703Y-111660814D01*
X137731703Y-111660815D01*
X137532189Y-111738107D01*
X137350275Y-111850743D01*
X137192159Y-111994884D01*
X137063216Y-112165632D01*
X136967848Y-112357159D01*
X136909295Y-112562949D01*
X136889554Y-112775999D01*
X136909295Y-112989050D01*
X136967848Y-113194840D01*
X137063216Y-113386367D01*
X137192159Y-113557115D01*
X137350275Y-113701256D01*
X137350277Y-113701257D01*
X137350278Y-113701258D01*
X137532190Y-113813893D01*
X137731703Y-113891185D01*
X137907845Y-113924111D01*
X137970125Y-113955779D01*
X138005398Y-114016092D01*
X138002464Y-114085900D01*
X137962255Y-114143040D01*
X137907845Y-114167888D01*
X137769487Y-114193752D01*
X137731703Y-114200815D01*
X137532189Y-114278107D01*
X137350275Y-114390743D01*
X137192159Y-114534884D01*
X137063216Y-114705632D01*
X136967848Y-114897159D01*
X136909295Y-115102949D01*
X136889554Y-115315999D01*
X136909295Y-115529050D01*
X136967848Y-115734840D01*
X137063216Y-115926367D01*
X137192159Y-116097115D01*
X137350275Y-116241256D01*
X137350277Y-116241257D01*
X137350278Y-116241258D01*
X137532190Y-116353893D01*
X137731703Y-116431185D01*
X137907846Y-116464111D01*
X137970124Y-116495778D01*
X138005398Y-116556090D01*
X138002465Y-116625898D01*
X137962256Y-116683038D01*
X137907845Y-116707888D01*
X137731702Y-116740815D01*
X137532189Y-116818107D01*
X137350275Y-116930743D01*
X137192159Y-117074884D01*
X137063216Y-117245632D01*
X136967848Y-117437159D01*
X136909295Y-117642949D01*
X136889554Y-117856000D01*
X136909295Y-118069050D01*
X136967848Y-118274840D01*
X137063216Y-118466367D01*
X137192159Y-118637115D01*
X137350275Y-118781256D01*
X137350277Y-118781257D01*
X137350278Y-118781258D01*
X137532190Y-118893893D01*
X137731703Y-118971185D01*
X137907845Y-119004111D01*
X137970125Y-119035779D01*
X138005398Y-119096092D01*
X138002464Y-119165900D01*
X137962255Y-119223040D01*
X137907845Y-119247888D01*
X137731703Y-119280815D01*
X137532189Y-119358107D01*
X137350275Y-119470743D01*
X137192159Y-119614884D01*
X137063216Y-119785632D01*
X136967848Y-119977159D01*
X136909295Y-120182949D01*
X136889554Y-120396000D01*
X136909295Y-120609050D01*
X136967848Y-120814840D01*
X137063216Y-121006367D01*
X137192159Y-121177115D01*
X137350275Y-121321256D01*
X137350277Y-121321257D01*
X137350278Y-121321258D01*
X137532190Y-121433893D01*
X137731703Y-121511185D01*
X137907845Y-121544111D01*
X137970125Y-121575779D01*
X138005398Y-121636092D01*
X138002464Y-121705900D01*
X137962255Y-121763040D01*
X137907845Y-121787888D01*
X137731703Y-121820814D01*
X137731703Y-121820815D01*
X137532189Y-121898107D01*
X137350275Y-122010743D01*
X137192159Y-122154884D01*
X137063216Y-122325632D01*
X136967848Y-122517159D01*
X136909295Y-122722949D01*
X136889554Y-122936000D01*
X136909295Y-123149050D01*
X136967848Y-123354840D01*
X137063216Y-123546367D01*
X137192159Y-123717115D01*
X137350275Y-123861256D01*
X137350277Y-123861257D01*
X137350278Y-123861258D01*
X137532190Y-123973893D01*
X137731703Y-124051185D01*
X137907845Y-124084111D01*
X137970125Y-124115779D01*
X138005398Y-124176092D01*
X138002464Y-124245900D01*
X137962255Y-124303040D01*
X137907845Y-124327888D01*
X137731703Y-124360815D01*
X137532189Y-124438107D01*
X137350275Y-124550743D01*
X137192159Y-124694884D01*
X137063216Y-124865632D01*
X136967848Y-125057159D01*
X136909295Y-125262949D01*
X136889554Y-125476000D01*
X136909295Y-125689050D01*
X136967848Y-125894840D01*
X137063216Y-126086367D01*
X137192159Y-126257115D01*
X137350275Y-126401256D01*
X137350277Y-126401257D01*
X137350278Y-126401258D01*
X137532190Y-126513893D01*
X137731703Y-126591185D01*
X137907846Y-126624111D01*
X137970124Y-126655778D01*
X138005398Y-126716090D01*
X138002465Y-126785898D01*
X137962256Y-126843038D01*
X137907845Y-126867888D01*
X137731702Y-126900815D01*
X137532189Y-126978107D01*
X137350275Y-127090743D01*
X137192159Y-127234884D01*
X137063216Y-127405632D01*
X136967848Y-127597159D01*
X136909295Y-127802949D01*
X136889554Y-128016000D01*
X136909295Y-128229050D01*
X136967848Y-128434840D01*
X137063216Y-128626367D01*
X137192159Y-128797115D01*
X137350275Y-128941256D01*
X137350277Y-128941257D01*
X137350278Y-128941258D01*
X137532190Y-129053893D01*
X137731703Y-129131185D01*
X137907846Y-129164111D01*
X137970124Y-129195778D01*
X138005398Y-129256090D01*
X138002465Y-129325898D01*
X137962256Y-129383038D01*
X137907845Y-129407888D01*
X137731702Y-129440815D01*
X137532189Y-129518107D01*
X137350275Y-129630743D01*
X137192159Y-129774884D01*
X137063216Y-129945632D01*
X136967848Y-130137159D01*
X136909295Y-130342949D01*
X136889554Y-130556000D01*
X136909295Y-130769050D01*
X136967848Y-130974840D01*
X137063216Y-131166367D01*
X137192159Y-131337115D01*
X137350275Y-131481256D01*
X137350277Y-131481257D01*
X137350278Y-131481258D01*
X137532190Y-131593893D01*
X137731703Y-131671185D01*
X137907845Y-131704111D01*
X137970125Y-131735779D01*
X138005398Y-131796092D01*
X138002464Y-131865900D01*
X137962255Y-131923040D01*
X137907845Y-131947888D01*
X137731702Y-131980814D01*
X137731703Y-131980815D01*
X137532189Y-132058107D01*
X137350275Y-132170743D01*
X137192159Y-132314884D01*
X137063216Y-132485632D01*
X136967848Y-132677159D01*
X136909295Y-132882949D01*
X136889554Y-133096000D01*
X136909295Y-133309050D01*
X136967848Y-133514840D01*
X137063216Y-133706367D01*
X137192159Y-133877115D01*
X137350275Y-134021256D01*
X137350277Y-134021257D01*
X137350278Y-134021258D01*
X137532190Y-134133893D01*
X137731703Y-134211185D01*
X137907845Y-134244111D01*
X137970125Y-134275779D01*
X138005398Y-134336092D01*
X138002464Y-134405900D01*
X137962255Y-134463040D01*
X137907845Y-134487888D01*
X137731703Y-134520815D01*
X137532189Y-134598107D01*
X137350275Y-134710743D01*
X137192159Y-134854884D01*
X137063216Y-135025632D01*
X136967848Y-135217159D01*
X136909295Y-135422949D01*
X136889554Y-135636000D01*
X136909295Y-135849050D01*
X136967848Y-136054840D01*
X137063216Y-136246367D01*
X137192159Y-136417115D01*
X137350275Y-136561256D01*
X137350277Y-136561257D01*
X137350278Y-136561258D01*
X137532190Y-136673893D01*
X137731703Y-136751185D01*
X137942020Y-136790500D01*
X137942022Y-136790500D01*
X138155978Y-136790500D01*
X138155980Y-136790500D01*
X138366297Y-136751185D01*
X138565810Y-136673893D01*
X138747722Y-136561258D01*
X138905841Y-136417114D01*
X139034781Y-136246370D01*
X139034781Y-136246368D01*
X139034783Y-136246367D01*
X139130151Y-136054840D01*
X139188704Y-135849050D01*
X139191790Y-135815739D01*
X139208446Y-135636000D01*
X139188704Y-135422952D01*
X139188704Y-135422949D01*
X139130151Y-135217159D01*
X139034783Y-135025632D01*
X138905840Y-134854884D01*
X138747724Y-134710743D01*
X138565810Y-134598107D01*
X138565809Y-134598107D01*
X138366297Y-134520815D01*
X138190153Y-134487888D01*
X138127874Y-134456221D01*
X138092601Y-134395909D01*
X138095535Y-134326100D01*
X138135744Y-134268960D01*
X138190152Y-134244112D01*
X138366297Y-134211185D01*
X138565810Y-134133893D01*
X138747722Y-134021258D01*
X138905841Y-133877114D01*
X139034781Y-133706370D01*
X139034781Y-133706368D01*
X139034783Y-133706367D01*
X139130151Y-133514840D01*
X139188704Y-133309050D01*
X139191790Y-133275739D01*
X139208446Y-133096000D01*
X139188704Y-132882952D01*
X139188704Y-132882949D01*
X139130151Y-132677159D01*
X139034783Y-132485632D01*
X138905840Y-132314884D01*
X138747724Y-132170743D01*
X138565810Y-132058107D01*
X138565809Y-132058106D01*
X138366297Y-131980815D01*
X138190153Y-131947888D01*
X138127874Y-131916221D01*
X138092601Y-131855909D01*
X138095535Y-131786100D01*
X138135744Y-131728960D01*
X138190152Y-131704112D01*
X138366297Y-131671185D01*
X138565810Y-131593893D01*
X138747722Y-131481258D01*
X138905841Y-131337114D01*
X139034781Y-131166370D01*
X139034781Y-131166368D01*
X139034783Y-131166367D01*
X139130151Y-130974840D01*
X139188704Y-130769050D01*
X139204689Y-130596540D01*
X139208446Y-130556000D01*
X139188704Y-130342952D01*
X139188704Y-130342949D01*
X139130151Y-130137159D01*
X139034783Y-129945632D01*
X138905840Y-129774884D01*
X138747724Y-129630743D01*
X138565810Y-129518107D01*
X138366297Y-129440815D01*
X138190154Y-129407888D01*
X138127874Y-129376219D01*
X138092601Y-129315907D01*
X138095535Y-129246099D01*
X138135744Y-129188959D01*
X138190150Y-129164112D01*
X138366297Y-129131185D01*
X138565810Y-129053893D01*
X138747722Y-128941258D01*
X138902004Y-128800612D01*
X138905840Y-128797115D01*
X138905841Y-128797114D01*
X139034781Y-128626370D01*
X139034781Y-128626368D01*
X139034783Y-128626367D01*
X139130151Y-128434840D01*
X139188704Y-128229050D01*
X139193167Y-128180888D01*
X139208446Y-128016000D01*
X139188704Y-127802952D01*
X139188704Y-127802949D01*
X139130151Y-127597159D01*
X139034783Y-127405632D01*
X138905840Y-127234884D01*
X138747724Y-127090743D01*
X138565810Y-126978107D01*
X138512617Y-126957500D01*
X138366297Y-126900815D01*
X138190153Y-126867888D01*
X138127874Y-126836221D01*
X138092601Y-126775909D01*
X138095535Y-126706100D01*
X138135744Y-126648960D01*
X138190152Y-126624112D01*
X138366297Y-126591185D01*
X138565810Y-126513893D01*
X138747722Y-126401258D01*
X138905841Y-126257114D01*
X139034781Y-126086370D01*
X139034781Y-126086368D01*
X139034783Y-126086367D01*
X139130151Y-125894840D01*
X139188704Y-125689050D01*
X139191790Y-125655739D01*
X139208446Y-125476000D01*
X139188704Y-125262952D01*
X139188704Y-125262949D01*
X139130151Y-125057159D01*
X139034783Y-124865632D01*
X138905840Y-124694884D01*
X138747724Y-124550743D01*
X138565810Y-124438107D01*
X138565809Y-124438107D01*
X138366297Y-124360815D01*
X138190153Y-124327888D01*
X138127874Y-124296221D01*
X138092601Y-124235909D01*
X138095535Y-124166100D01*
X138135744Y-124108960D01*
X138190152Y-124084112D01*
X138366297Y-124051185D01*
X138565810Y-123973893D01*
X138747722Y-123861258D01*
X138790763Y-123822020D01*
X138853566Y-123791405D01*
X138922953Y-123799602D01*
X138976893Y-123844012D01*
X138998261Y-123910534D01*
X138998300Y-123913659D01*
X138998300Y-124084056D01*
X138996035Y-124104566D01*
X138998239Y-124174672D01*
X138998300Y-124178567D01*
X138998300Y-124206150D01*
X138998788Y-124210019D01*
X138998789Y-124210025D01*
X138998804Y-124210143D01*
X138999718Y-124221767D01*
X139001090Y-124265426D01*
X139006679Y-124284660D01*
X139010625Y-124303716D01*
X139013135Y-124323592D01*
X139029214Y-124364204D01*
X139032997Y-124375251D01*
X139045182Y-124417191D01*
X139055380Y-124434435D01*
X139063936Y-124451900D01*
X139071314Y-124470532D01*
X139071315Y-124470533D01*
X139096980Y-124505859D01*
X139103393Y-124515622D01*
X139125626Y-124553216D01*
X139125629Y-124553219D01*
X139125630Y-124553220D01*
X139139795Y-124567385D01*
X139152427Y-124582175D01*
X139164206Y-124598387D01*
X139197858Y-124626226D01*
X139206499Y-124634089D01*
X140736021Y-126163611D01*
X140769506Y-126224934D01*
X140764522Y-126294626D01*
X140722650Y-126350559D01*
X140715380Y-126355607D01*
X140683871Y-126375856D01*
X140589623Y-126484625D01*
X140529834Y-126615542D01*
X140514263Y-126723848D01*
X140509353Y-126758000D01*
X140509353Y-128258000D01*
X140509510Y-128260208D01*
X140509511Y-128260210D01*
X140514499Y-128329960D01*
X140526005Y-128369144D01*
X140555047Y-128468053D01*
X140632857Y-128589128D01*
X140632858Y-128589129D01*
X140741625Y-128683376D01*
X140756492Y-128690166D01*
X140809296Y-128735921D01*
X140828980Y-128802961D01*
X140828848Y-128808673D01*
X140782844Y-129806170D01*
X140760092Y-129872231D01*
X140726017Y-129904772D01*
X140683871Y-129931857D01*
X140589622Y-130040627D01*
X140529834Y-130171542D01*
X140509353Y-130314000D01*
X140509353Y-130720603D01*
X140503284Y-130758921D01*
X140465326Y-130875742D01*
X140445540Y-131064000D01*
X140465326Y-131252257D01*
X140503284Y-131369077D01*
X140509353Y-131407395D01*
X140509353Y-131814000D01*
X140509510Y-131816208D01*
X140509511Y-131816210D01*
X140514499Y-131885960D01*
X140532683Y-131947889D01*
X140555047Y-132024053D01*
X140632857Y-132145128D01*
X140632858Y-132145129D01*
X140741625Y-132239376D01*
X140872542Y-132299165D01*
X141015000Y-132319647D01*
X142162527Y-132319647D01*
X142165000Y-132319647D01*
X142245361Y-132313220D01*
X142245360Y-132313220D01*
X142382750Y-132270359D01*
X142382752Y-132270358D01*
X142502503Y-132190525D01*
X142594911Y-132080187D01*
X142652490Y-131948285D01*
X142670576Y-131805504D01*
X142647703Y-131663411D01*
X142585724Y-131533518D01*
X142318567Y-131132782D01*
X142297759Y-131066083D01*
X142316314Y-130998722D01*
X142318540Y-130995257D01*
X142585724Y-130594482D01*
X142624953Y-130524053D01*
X142665500Y-130385961D01*
X142665500Y-130242039D01*
X142624953Y-130103947D01*
X142547143Y-129982872D01*
X142519734Y-129959122D01*
X142438374Y-129888623D01*
X142307457Y-129828834D01*
X142165000Y-129808353D01*
X142164924Y-129808353D01*
X142164851Y-129808331D01*
X142156222Y-129807091D01*
X142156400Y-129805850D01*
X142097885Y-129788668D01*
X142052130Y-129735864D01*
X142041056Y-129678640D01*
X142052025Y-129440815D01*
X142077917Y-128879386D01*
X142100669Y-128813326D01*
X142155525Y-128770052D01*
X142191895Y-128761495D01*
X142245361Y-128757220D01*
X142273757Y-128748360D01*
X142328326Y-128743996D01*
X142465000Y-128763647D01*
X143284695Y-128763647D01*
X143351734Y-128783332D01*
X143372376Y-128799966D01*
X143539197Y-128966787D01*
X143552098Y-128982889D01*
X143554212Y-128984874D01*
X143554214Y-128984877D01*
X143571623Y-129001225D01*
X143603240Y-129030916D01*
X143606036Y-129033626D01*
X143625530Y-129053120D01*
X143628615Y-129055513D01*
X143628701Y-129055580D01*
X143637573Y-129063158D01*
X143669418Y-129093062D01*
X143686974Y-129102714D01*
X143703231Y-129113392D01*
X143719064Y-129125674D01*
X143731798Y-129131184D01*
X143759156Y-129143023D01*
X143769643Y-129148160D01*
X143807908Y-129169197D01*
X143827316Y-129174180D01*
X143845710Y-129180478D01*
X143864105Y-129188438D01*
X143907254Y-129195271D01*
X143918680Y-129197638D01*
X143934222Y-129201629D01*
X143960980Y-129208500D01*
X143960981Y-129208500D01*
X143981016Y-129208500D01*
X144000413Y-129210026D01*
X144020196Y-129213160D01*
X144063674Y-129209050D01*
X144075344Y-129208500D01*
X148394167Y-129208500D01*
X148461206Y-129228185D01*
X148506961Y-129280989D01*
X148516905Y-129350147D01*
X148487880Y-129413703D01*
X148481848Y-129420181D01*
X148129995Y-129772034D01*
X148068672Y-129805519D01*
X148042314Y-129808353D01*
X147619000Y-129808353D01*
X147616792Y-129808510D01*
X147616789Y-129808511D01*
X147547039Y-129813499D01*
X147408947Y-129854047D01*
X147287870Y-129931858D01*
X147193623Y-130040625D01*
X147133834Y-130171542D01*
X147113353Y-130314000D01*
X147113353Y-130720603D01*
X147107284Y-130758921D01*
X147069326Y-130875742D01*
X147049540Y-131064000D01*
X147069326Y-131252257D01*
X147107284Y-131369077D01*
X147113353Y-131407395D01*
X147113353Y-131814000D01*
X147113510Y-131816208D01*
X147113511Y-131816210D01*
X147118499Y-131885960D01*
X147136683Y-131947889D01*
X147159047Y-132024053D01*
X147236857Y-132145128D01*
X147236858Y-132145129D01*
X147345625Y-132239376D01*
X147476542Y-132299165D01*
X147619000Y-132319647D01*
X148766527Y-132319647D01*
X148769000Y-132319647D01*
X148849361Y-132313220D01*
X148849361Y-132313219D01*
X148986750Y-132270359D01*
X148986752Y-132270358D01*
X149106503Y-132190525D01*
X149198911Y-132080187D01*
X149256490Y-131948285D01*
X149274576Y-131805504D01*
X149251703Y-131663411D01*
X149189724Y-131533518D01*
X148922567Y-131132782D01*
X148901759Y-131066083D01*
X148920314Y-130998722D01*
X148922540Y-130995257D01*
X149189724Y-130594482D01*
X149228953Y-130524053D01*
X149254037Y-130438621D01*
X149285330Y-130385878D01*
X150748821Y-128922388D01*
X150810142Y-128888905D01*
X150879834Y-128893889D01*
X150935767Y-128935761D01*
X150960184Y-129001225D01*
X150960500Y-129010071D01*
X150960500Y-139298852D01*
X150940815Y-139365891D01*
X150924181Y-139386533D01*
X150313689Y-139997024D01*
X150252366Y-140030509D01*
X150182674Y-140025525D01*
X150133858Y-139992314D01*
X150122871Y-139980112D01*
X150122870Y-139980111D01*
X150122868Y-139980109D01*
X149969730Y-139868848D01*
X149796802Y-139791855D01*
X149611648Y-139752500D01*
X149611646Y-139752500D01*
X149422354Y-139752500D01*
X149422352Y-139752500D01*
X149237197Y-139791855D01*
X149064269Y-139868848D01*
X148911129Y-139980111D01*
X148851816Y-140045984D01*
X148792329Y-140082632D01*
X148722472Y-140081301D01*
X148664424Y-140042414D01*
X148636615Y-139978317D01*
X148636317Y-139950334D01*
X148637352Y-139940268D01*
X148634302Y-139922583D01*
X148632500Y-139901515D01*
X148632500Y-135396298D01*
X148652185Y-135329259D01*
X148683615Y-135295980D01*
X148687871Y-135292888D01*
X148814533Y-135152216D01*
X148909179Y-134988284D01*
X148967674Y-134808256D01*
X148987460Y-134620000D01*
X148967674Y-134431744D01*
X148909179Y-134251716D01*
X148909179Y-134251715D01*
X148814533Y-134087783D01*
X148687870Y-133947110D01*
X148534730Y-133835848D01*
X148361802Y-133758855D01*
X148176648Y-133719500D01*
X148176646Y-133719500D01*
X147987354Y-133719500D01*
X147987352Y-133719500D01*
X147802197Y-133758855D01*
X147629269Y-133835848D01*
X147476129Y-133947110D01*
X147349466Y-134087783D01*
X147254820Y-134251715D01*
X147196326Y-134431742D01*
X147176540Y-134620000D01*
X147196326Y-134808257D01*
X147254820Y-134988284D01*
X147349466Y-135152216D01*
X147420209Y-135230783D01*
X147476129Y-135292888D01*
X147480383Y-135295979D01*
X147523049Y-135351306D01*
X147531500Y-135396298D01*
X147531500Y-139679851D01*
X147511815Y-139746890D01*
X147495181Y-139767532D01*
X147011689Y-140251023D01*
X146950366Y-140284508D01*
X146880674Y-140279524D01*
X146831858Y-140246314D01*
X146820870Y-140234110D01*
X146667730Y-140122848D01*
X146494802Y-140045855D01*
X146309648Y-140006500D01*
X146309646Y-140006500D01*
X146144387Y-140006500D01*
X146077348Y-139986815D01*
X146056706Y-139970181D01*
X145781407Y-139694882D01*
X145778493Y-139691868D01*
X145734680Y-139644956D01*
X145734679Y-139644955D01*
X145734678Y-139644954D01*
X145699574Y-139623607D01*
X145689079Y-139616464D01*
X145675889Y-139606462D01*
X145656342Y-139591639D01*
X145656340Y-139591638D01*
X145639644Y-139585053D01*
X145620714Y-139575650D01*
X145605384Y-139566328D01*
X145574924Y-139557793D01*
X145565814Y-139555240D01*
X145553795Y-139551199D01*
X145515564Y-139536124D01*
X145515563Y-139536123D01*
X145515561Y-139536123D01*
X145497715Y-139534288D01*
X145476952Y-139530342D01*
X145459668Y-139525500D01*
X145459665Y-139525500D01*
X145418582Y-139525500D01*
X145405901Y-139524850D01*
X145365027Y-139520647D01*
X145347344Y-139523697D01*
X145326275Y-139525500D01*
X136628522Y-139525500D01*
X136624289Y-139525428D01*
X136560173Y-139523237D01*
X136520255Y-139532965D01*
X136507784Y-139535335D01*
X136467078Y-139540930D01*
X136450612Y-139548082D01*
X136430578Y-139554818D01*
X136413150Y-139559065D01*
X136377333Y-139579203D01*
X136365970Y-139584847D01*
X136328277Y-139601220D01*
X136314358Y-139612545D01*
X136296883Y-139624439D01*
X136281239Y-139633235D01*
X136252184Y-139662289D01*
X136242763Y-139670792D01*
X136210890Y-139696723D01*
X136200541Y-139711384D01*
X136186920Y-139727554D01*
X135871293Y-140043181D01*
X135809970Y-140076666D01*
X135783612Y-140079500D01*
X135748453Y-140079500D01*
X135681414Y-140059815D01*
X135660772Y-140043181D01*
X135098819Y-139481228D01*
X135065334Y-139419905D01*
X135062500Y-139393547D01*
X135062500Y-136891451D01*
X135082185Y-136824412D01*
X135098813Y-136803775D01*
X135202772Y-136699817D01*
X135264094Y-136666334D01*
X135290452Y-136663500D01*
X135349648Y-136663500D01*
X135473084Y-136637262D01*
X135534803Y-136624144D01*
X135707730Y-136547151D01*
X135860871Y-136435888D01*
X135987533Y-136295216D01*
X136082179Y-136131284D01*
X136140674Y-135951256D01*
X136160460Y-135763000D01*
X136140674Y-135574744D01*
X136110332Y-135481363D01*
X136082179Y-135394715D01*
X135987533Y-135230783D01*
X135860870Y-135090110D01*
X135707730Y-134978848D01*
X135534802Y-134901855D01*
X135349648Y-134862500D01*
X135349646Y-134862500D01*
X135290453Y-134862500D01*
X135223414Y-134842815D01*
X135202772Y-134826181D01*
X135098819Y-134722228D01*
X135065334Y-134660905D01*
X135062500Y-134634547D01*
X135062500Y-110927451D01*
X135082185Y-110860412D01*
X135098819Y-110839770D01*
X136601771Y-109336819D01*
X136663094Y-109303334D01*
X136689452Y-109300500D01*
X137059720Y-109300500D01*
X137126759Y-109320185D01*
G37*
%TD.AperFunction*%
%TA.AperFunction,Conductor*%
G36*
X152258608Y-100659494D02*
G01*
X152314228Y-100700949D01*
X152432159Y-100857115D01*
X152590275Y-101001256D01*
X152590277Y-101001257D01*
X152590278Y-101001258D01*
X152772190Y-101113893D01*
X152971703Y-101191185D01*
X153147845Y-101224111D01*
X153210125Y-101255779D01*
X153245398Y-101316092D01*
X153242464Y-101385900D01*
X153202255Y-101443040D01*
X153147845Y-101467888D01*
X152990956Y-101497216D01*
X152971703Y-101500815D01*
X152772189Y-101578107D01*
X152590275Y-101690743D01*
X152432159Y-101834884D01*
X152303216Y-102005632D01*
X152207848Y-102197159D01*
X152149295Y-102402949D01*
X152129554Y-102616000D01*
X152149295Y-102829050D01*
X152207848Y-103034840D01*
X152303216Y-103226367D01*
X152432159Y-103397115D01*
X152590275Y-103541256D01*
X152590277Y-103541257D01*
X152590278Y-103541258D01*
X152772190Y-103653893D01*
X152971703Y-103731185D01*
X153147845Y-103764111D01*
X153210125Y-103795779D01*
X153245398Y-103856092D01*
X153242464Y-103925900D01*
X153202255Y-103983040D01*
X153147845Y-104007888D01*
X152971703Y-104040815D01*
X152772189Y-104118107D01*
X152590275Y-104230743D01*
X152432159Y-104374884D01*
X152303216Y-104545632D01*
X152207848Y-104737159D01*
X152149295Y-104942949D01*
X152129554Y-105156000D01*
X152149295Y-105369050D01*
X152207848Y-105574840D01*
X152303216Y-105766367D01*
X152432159Y-105937115D01*
X152590275Y-106081256D01*
X152590277Y-106081257D01*
X152590278Y-106081258D01*
X152772190Y-106193893D01*
X152971703Y-106271185D01*
X153147846Y-106304111D01*
X153210124Y-106335778D01*
X153245398Y-106396090D01*
X153242465Y-106465898D01*
X153202256Y-106523038D01*
X153147845Y-106547888D01*
X152971702Y-106580815D01*
X152772189Y-106658107D01*
X152590275Y-106770743D01*
X152432159Y-106914884D01*
X152303216Y-107085632D01*
X152207848Y-107277159D01*
X152149295Y-107482949D01*
X152129554Y-107695999D01*
X152149295Y-107909050D01*
X152207848Y-108114840D01*
X152303216Y-108306367D01*
X152432159Y-108477115D01*
X152590275Y-108621256D01*
X152590277Y-108621257D01*
X152590278Y-108621258D01*
X152772190Y-108733893D01*
X152971703Y-108811185D01*
X153147845Y-108844111D01*
X153210125Y-108875779D01*
X153245398Y-108936092D01*
X153242464Y-109005900D01*
X153202255Y-109063040D01*
X153147845Y-109087888D01*
X152971703Y-109120815D01*
X152772189Y-109198107D01*
X152590275Y-109310743D01*
X152432159Y-109454884D01*
X152303216Y-109625632D01*
X152207848Y-109817159D01*
X152149295Y-110022949D01*
X152129554Y-110235999D01*
X152149295Y-110449050D01*
X152207848Y-110654840D01*
X152303216Y-110846367D01*
X152432159Y-111017115D01*
X152590275Y-111161256D01*
X152590277Y-111161257D01*
X152590278Y-111161258D01*
X152772190Y-111273893D01*
X152971703Y-111351185D01*
X153149205Y-111384366D01*
X153211485Y-111416033D01*
X153246758Y-111476345D01*
X153243824Y-111546154D01*
X153203615Y-111603294D01*
X153149204Y-111628143D01*
X152971840Y-111661298D01*
X152772410Y-111738557D01*
X152669086Y-111802532D01*
X152669085Y-111802533D01*
X153244599Y-112378046D01*
X153163852Y-112390835D01*
X153050955Y-112448359D01*
X152961359Y-112537955D01*
X152903835Y-112650852D01*
X152891046Y-112731598D01*
X152312980Y-112153532D01*
X152303646Y-112165895D01*
X152208315Y-112357343D01*
X152149789Y-112563042D01*
X152130056Y-112776000D01*
X152149789Y-112988957D01*
X152208315Y-113194656D01*
X152303646Y-113386105D01*
X152312980Y-113398466D01*
X152891046Y-112820400D01*
X152903835Y-112901148D01*
X152961359Y-113014045D01*
X153050955Y-113103641D01*
X153163852Y-113161165D01*
X153244599Y-113173953D01*
X152669085Y-113749465D01*
X152772413Y-113813443D01*
X152971839Y-113890701D01*
X153149204Y-113923856D01*
X153211485Y-113955524D01*
X153246758Y-114015836D01*
X153243824Y-114085644D01*
X153203616Y-114142785D01*
X153149205Y-114167634D01*
X152971702Y-114200815D01*
X152772189Y-114278107D01*
X152590275Y-114390743D01*
X152432159Y-114534884D01*
X152303216Y-114705632D01*
X152207848Y-114897159D01*
X152149295Y-115102949D01*
X152129554Y-115315999D01*
X152149295Y-115529050D01*
X152207848Y-115734840D01*
X152303216Y-115926367D01*
X152432159Y-116097115D01*
X152590275Y-116241256D01*
X152590277Y-116241257D01*
X152590278Y-116241258D01*
X152772190Y-116353893D01*
X152971703Y-116431185D01*
X153147846Y-116464111D01*
X153210124Y-116495778D01*
X153245398Y-116556090D01*
X153242465Y-116625898D01*
X153202256Y-116683038D01*
X153147845Y-116707888D01*
X152971702Y-116740815D01*
X152772189Y-116818107D01*
X152590275Y-116930743D01*
X152432159Y-117074884D01*
X152303216Y-117245632D01*
X152207848Y-117437159D01*
X152149295Y-117642949D01*
X152129554Y-117856000D01*
X152149295Y-118069050D01*
X152207848Y-118274840D01*
X152303216Y-118466367D01*
X152432159Y-118637115D01*
X152590275Y-118781256D01*
X152590277Y-118781257D01*
X152590278Y-118781258D01*
X152772190Y-118893893D01*
X152971703Y-118971185D01*
X153147845Y-119004111D01*
X153210125Y-119035779D01*
X153245398Y-119096092D01*
X153242464Y-119165900D01*
X153202255Y-119223040D01*
X153147845Y-119247888D01*
X152971703Y-119280815D01*
X152772189Y-119358107D01*
X152590275Y-119470743D01*
X152432159Y-119614884D01*
X152303216Y-119785632D01*
X152207848Y-119977159D01*
X152151010Y-120176925D01*
X152113731Y-120236019D01*
X152050421Y-120265576D01*
X151981182Y-120256214D01*
X151969169Y-120249270D01*
X151790802Y-120169855D01*
X151605648Y-120130500D01*
X151605646Y-120130500D01*
X151416354Y-120130500D01*
X151416352Y-120130500D01*
X151231197Y-120169855D01*
X151058269Y-120246848D01*
X150905129Y-120358110D01*
X150778466Y-120498783D01*
X150683820Y-120662715D01*
X150625326Y-120842742D01*
X150605540Y-121030999D01*
X150625326Y-121219257D01*
X150683820Y-121399284D01*
X150778466Y-121563216D01*
X150905126Y-121703885D01*
X150905129Y-121703888D01*
X150909383Y-121706979D01*
X150952049Y-121762306D01*
X150960500Y-121807298D01*
X150960500Y-125947895D01*
X150940815Y-126014934D01*
X150888011Y-126060689D01*
X150818853Y-126070633D01*
X150755297Y-126041608D01*
X150751617Y-126038287D01*
X150694976Y-125985098D01*
X150692178Y-125982387D01*
X150675427Y-125965636D01*
X150672671Y-125962880D01*
X150669490Y-125960412D01*
X150660622Y-125952837D01*
X150628782Y-125922938D01*
X150611224Y-125913285D01*
X150594964Y-125902604D01*
X150579136Y-125890327D01*
X150539051Y-125872980D01*
X150528561Y-125867841D01*
X150490291Y-125846802D01*
X150470891Y-125841821D01*
X150452484Y-125835519D01*
X150434097Y-125827562D01*
X150390958Y-125820729D01*
X150379524Y-125818361D01*
X150337219Y-125807500D01*
X150317184Y-125807500D01*
X150297786Y-125805973D01*
X150290362Y-125804797D01*
X150278005Y-125802840D01*
X150278004Y-125802840D01*
X150251684Y-125805328D01*
X150234525Y-125806950D01*
X150222856Y-125807500D01*
X149017120Y-125807500D01*
X148996616Y-125805236D01*
X148926524Y-125807439D01*
X148922630Y-125807500D01*
X148895030Y-125807500D01*
X148891169Y-125807987D01*
X148891158Y-125807988D01*
X148891025Y-125808005D01*
X148879409Y-125808918D01*
X148835748Y-125810290D01*
X148816509Y-125815880D01*
X148797460Y-125819825D01*
X148777588Y-125822335D01*
X148736973Y-125838415D01*
X148725929Y-125842196D01*
X148683991Y-125854382D01*
X148666744Y-125864581D01*
X148649280Y-125873136D01*
X148630647Y-125880514D01*
X148595306Y-125906189D01*
X148585548Y-125912599D01*
X148547959Y-125934829D01*
X148533790Y-125948998D01*
X148519002Y-125961628D01*
X148502790Y-125973407D01*
X148474950Y-126007059D01*
X148467090Y-126015697D01*
X148266753Y-126216035D01*
X148205433Y-126249519D01*
X148179074Y-126252353D01*
X147619000Y-126252353D01*
X147616792Y-126252510D01*
X147616789Y-126252511D01*
X147547039Y-126257499D01*
X147408947Y-126298047D01*
X147287870Y-126375858D01*
X147193623Y-126484625D01*
X147133834Y-126615542D01*
X147113353Y-126758000D01*
X147113353Y-127833500D01*
X147093668Y-127900539D01*
X147040864Y-127946294D01*
X146989353Y-127957500D01*
X144350452Y-127957500D01*
X144283413Y-127937815D01*
X144262771Y-127921181D01*
X144006966Y-127665375D01*
X143973481Y-127604052D01*
X143970647Y-127577694D01*
X143970647Y-126760215D01*
X143970647Y-126758000D01*
X143965500Y-126686039D01*
X143924953Y-126547947D01*
X143847143Y-126426872D01*
X143817583Y-126401258D01*
X143738374Y-126332623D01*
X143607457Y-126272834D01*
X143465000Y-126252353D01*
X143054926Y-126252353D01*
X142987887Y-126232668D01*
X142967245Y-126216034D01*
X142800422Y-126049211D01*
X142787526Y-126033113D01*
X142736395Y-125985098D01*
X142733598Y-125982387D01*
X142716847Y-125965636D01*
X142714091Y-125962880D01*
X142710910Y-125960412D01*
X142702042Y-125952837D01*
X142670202Y-125922938D01*
X142652644Y-125913285D01*
X142636384Y-125902604D01*
X142620556Y-125890327D01*
X142580471Y-125872980D01*
X142569981Y-125867841D01*
X142531711Y-125846802D01*
X142512311Y-125841821D01*
X142493904Y-125835519D01*
X142475517Y-125827562D01*
X142432378Y-125820729D01*
X142420944Y-125818361D01*
X142378639Y-125807500D01*
X142358604Y-125807500D01*
X142339206Y-125805973D01*
X142331782Y-125804797D01*
X142319425Y-125802840D01*
X142319424Y-125802840D01*
X142293104Y-125805328D01*
X142275945Y-125806950D01*
X142264276Y-125807500D01*
X142200452Y-125807500D01*
X142133413Y-125787815D01*
X142112771Y-125771181D01*
X140285619Y-123944028D01*
X140252134Y-123882705D01*
X140249300Y-123856347D01*
X140249300Y-119178300D01*
X140268985Y-119111261D01*
X140321789Y-119065506D01*
X140390947Y-119055562D01*
X140454503Y-119084587D01*
X140491231Y-119139982D01*
X140503284Y-119177077D01*
X140509353Y-119215394D01*
X140509353Y-119616000D01*
X140509510Y-119618208D01*
X140509511Y-119618210D01*
X140514499Y-119687960D01*
X140528993Y-119737321D01*
X140555047Y-119826053D01*
X140632857Y-119947128D01*
X140632858Y-119947129D01*
X140741625Y-120041376D01*
X140872542Y-120101165D01*
X141015000Y-120121647D01*
X142162527Y-120121647D01*
X142165000Y-120121647D01*
X142245361Y-120115220D01*
X142382750Y-120072359D01*
X142382752Y-120072358D01*
X142502503Y-119992525D01*
X142594911Y-119882187D01*
X142652490Y-119750285D01*
X142670576Y-119607504D01*
X142647703Y-119465411D01*
X142585724Y-119335518D01*
X142455367Y-119139982D01*
X142318567Y-118934782D01*
X142297759Y-118868083D01*
X142316314Y-118800722D01*
X142318540Y-118797257D01*
X142585724Y-118396482D01*
X142624953Y-118326053D01*
X142662226Y-118199112D01*
X142665500Y-118187962D01*
X142665500Y-118044039D01*
X142624953Y-117905947D01*
X142547143Y-117784872D01*
X142547141Y-117784870D01*
X142438374Y-117690623D01*
X142307457Y-117630834D01*
X142156222Y-117609091D01*
X142156411Y-117607772D01*
X142098162Y-117590668D01*
X142052407Y-117537864D01*
X142041333Y-117480640D01*
X142043339Y-117437159D01*
X142077917Y-116687386D01*
X142100669Y-116621326D01*
X142155525Y-116578052D01*
X142191895Y-116569495D01*
X142245361Y-116565220D01*
X142273757Y-116556360D01*
X142328326Y-116551996D01*
X142465000Y-116571647D01*
X143284695Y-116571647D01*
X143351734Y-116591332D01*
X143372376Y-116607966D01*
X143539197Y-116774787D01*
X143552098Y-116790889D01*
X143554212Y-116792874D01*
X143554214Y-116792877D01*
X143581081Y-116818107D01*
X143603240Y-116838916D01*
X143606036Y-116841626D01*
X143625530Y-116861120D01*
X143628615Y-116863513D01*
X143628701Y-116863580D01*
X143637573Y-116871158D01*
X143669418Y-116901062D01*
X143686974Y-116910714D01*
X143703231Y-116921392D01*
X143719064Y-116933674D01*
X143735185Y-116940649D01*
X143759156Y-116951023D01*
X143769643Y-116956160D01*
X143807908Y-116977197D01*
X143827316Y-116982180D01*
X143845710Y-116988478D01*
X143864105Y-116996438D01*
X143907254Y-117003271D01*
X143918680Y-117005638D01*
X143934222Y-117009629D01*
X143960980Y-117016500D01*
X143960981Y-117016500D01*
X143981016Y-117016500D01*
X144000413Y-117018026D01*
X144020196Y-117021160D01*
X144063674Y-117017050D01*
X144075344Y-117016500D01*
X148423347Y-117016500D01*
X148490386Y-117036185D01*
X148536141Y-117088989D01*
X148546085Y-117158147D01*
X148517060Y-117221703D01*
X148511028Y-117228181D01*
X148165175Y-117574034D01*
X148103852Y-117607519D01*
X148077494Y-117610353D01*
X147619000Y-117610353D01*
X147616792Y-117610510D01*
X147616789Y-117610511D01*
X147547039Y-117615499D01*
X147408947Y-117656047D01*
X147287870Y-117733858D01*
X147193623Y-117842625D01*
X147133834Y-117973542D01*
X147113353Y-118116000D01*
X147113353Y-118528603D01*
X147107284Y-118566921D01*
X147069326Y-118683742D01*
X147069325Y-118683744D01*
X147069326Y-118683744D01*
X147049540Y-118872000D01*
X147059433Y-118966127D01*
X147069326Y-119060257D01*
X147107284Y-119177077D01*
X147113353Y-119215395D01*
X147113353Y-119616000D01*
X147113510Y-119618208D01*
X147113511Y-119618210D01*
X147118499Y-119687960D01*
X147132993Y-119737321D01*
X147159047Y-119826053D01*
X147236857Y-119947128D01*
X147236858Y-119947129D01*
X147345625Y-120041376D01*
X147476542Y-120101165D01*
X147619000Y-120121647D01*
X148766527Y-120121647D01*
X148769000Y-120121647D01*
X148849361Y-120115220D01*
X148849360Y-120115220D01*
X148986750Y-120072359D01*
X148986752Y-120072358D01*
X149106503Y-119992525D01*
X149198911Y-119882187D01*
X149256490Y-119750285D01*
X149274576Y-119607504D01*
X149251703Y-119465411D01*
X149189724Y-119335518D01*
X149059367Y-119139982D01*
X148922567Y-118934782D01*
X148901759Y-118868083D01*
X148920314Y-118800722D01*
X148922540Y-118797257D01*
X149189724Y-118396482D01*
X149228953Y-118326053D01*
X149239413Y-118290425D01*
X149270707Y-118237681D01*
X150777788Y-116730600D01*
X150793885Y-116717706D01*
X150795873Y-116715587D01*
X150795877Y-116715586D01*
X150841949Y-116666523D01*
X150844534Y-116663855D01*
X150864120Y-116644271D01*
X150866585Y-116641092D01*
X150874167Y-116632216D01*
X150880100Y-116625898D01*
X150904062Y-116600382D01*
X150913712Y-116582827D01*
X150924400Y-116566557D01*
X150925437Y-116565220D01*
X150936673Y-116550736D01*
X150954026Y-116510632D01*
X150959157Y-116500162D01*
X150980197Y-116461892D01*
X150985175Y-116442499D01*
X150991481Y-116424082D01*
X150993018Y-116420528D01*
X150999438Y-116405696D01*
X151006272Y-116362545D01*
X151008635Y-116351131D01*
X151019500Y-116308819D01*
X151019500Y-116288783D01*
X151021027Y-116269384D01*
X151024160Y-116249604D01*
X151020050Y-116206124D01*
X151019500Y-116194455D01*
X151019500Y-114484939D01*
X151021763Y-114464438D01*
X151019561Y-114394344D01*
X151019500Y-114390450D01*
X151019500Y-114366744D01*
X151019500Y-114362850D01*
X151018998Y-114358881D01*
X151018080Y-114347224D01*
X151016709Y-114303573D01*
X151011120Y-114284340D01*
X151007174Y-114265282D01*
X151004664Y-114245408D01*
X150988588Y-114204806D01*
X150984804Y-114193752D01*
X150972619Y-114151813D01*
X150972618Y-114151812D01*
X150972618Y-114151810D01*
X150962417Y-114134561D01*
X150953860Y-114117095D01*
X150946486Y-114098468D01*
X150920813Y-114063132D01*
X150914402Y-114053372D01*
X150892355Y-114016092D01*
X150892170Y-114015779D01*
X150878006Y-114001615D01*
X150865369Y-113986820D01*
X150853595Y-113970614D01*
X150853594Y-113970613D01*
X150819935Y-113942768D01*
X150811305Y-113934914D01*
X150733602Y-113857211D01*
X150720706Y-113841113D01*
X150669575Y-113793098D01*
X150666778Y-113790387D01*
X150650027Y-113773636D01*
X150647271Y-113770880D01*
X150644090Y-113768412D01*
X150635222Y-113760837D01*
X150603382Y-113730938D01*
X150585824Y-113721285D01*
X150569564Y-113710604D01*
X150553736Y-113698327D01*
X150513651Y-113680980D01*
X150503161Y-113675841D01*
X150464891Y-113654802D01*
X150445491Y-113649821D01*
X150427084Y-113643519D01*
X150408697Y-113635562D01*
X150365558Y-113628729D01*
X150354124Y-113626361D01*
X150311819Y-113615500D01*
X150291784Y-113615500D01*
X150272386Y-113613973D01*
X150264962Y-113612797D01*
X150252605Y-113610840D01*
X150252604Y-113610840D01*
X150226295Y-113613327D01*
X150209125Y-113614950D01*
X150197456Y-113615500D01*
X149017120Y-113615500D01*
X148996616Y-113613236D01*
X148926524Y-113615439D01*
X148922630Y-113615500D01*
X148895030Y-113615500D01*
X148891169Y-113615987D01*
X148891158Y-113615988D01*
X148891025Y-113616005D01*
X148879409Y-113616918D01*
X148835748Y-113618290D01*
X148816509Y-113623880D01*
X148797460Y-113627825D01*
X148777588Y-113630335D01*
X148736973Y-113646415D01*
X148725929Y-113650196D01*
X148683991Y-113662382D01*
X148666744Y-113672581D01*
X148649280Y-113681136D01*
X148630647Y-113688514D01*
X148595306Y-113714189D01*
X148585548Y-113720599D01*
X148547959Y-113742829D01*
X148533790Y-113756998D01*
X148519002Y-113769628D01*
X148502790Y-113781407D01*
X148474950Y-113815059D01*
X148467090Y-113823697D01*
X148266753Y-114024035D01*
X148205433Y-114057519D01*
X148179074Y-114060353D01*
X147619000Y-114060353D01*
X147616792Y-114060510D01*
X147616789Y-114060511D01*
X147547039Y-114065499D01*
X147408947Y-114106047D01*
X147287870Y-114183858D01*
X147193623Y-114292625D01*
X147133834Y-114423542D01*
X147113353Y-114566000D01*
X147113353Y-115641500D01*
X147093668Y-115708539D01*
X147040864Y-115754294D01*
X146989353Y-115765500D01*
X144350452Y-115765500D01*
X144283413Y-115745815D01*
X144262771Y-115729181D01*
X144006966Y-115473375D01*
X143973481Y-115412052D01*
X143970647Y-115385694D01*
X143970647Y-114568215D01*
X143970647Y-114566000D01*
X143965500Y-114494039D01*
X143924953Y-114355947D01*
X143847143Y-114234872D01*
X143807839Y-114200815D01*
X143738374Y-114140623D01*
X143607457Y-114080834D01*
X143465000Y-114060353D01*
X143054926Y-114060353D01*
X142987887Y-114040668D01*
X142967245Y-114024034D01*
X142800422Y-113857211D01*
X142787526Y-113841113D01*
X142736395Y-113793098D01*
X142733598Y-113790387D01*
X142716847Y-113773636D01*
X142714091Y-113770880D01*
X142710910Y-113768412D01*
X142702042Y-113760837D01*
X142670202Y-113730938D01*
X142652644Y-113721285D01*
X142636384Y-113710604D01*
X142620556Y-113698327D01*
X142580471Y-113680980D01*
X142569981Y-113675841D01*
X142531711Y-113654802D01*
X142512311Y-113649821D01*
X142493904Y-113643519D01*
X142475517Y-113635562D01*
X142432378Y-113628729D01*
X142420944Y-113626361D01*
X142378639Y-113615500D01*
X142358604Y-113615500D01*
X142339206Y-113613973D01*
X142331782Y-113612797D01*
X142319425Y-113610840D01*
X142319424Y-113610840D01*
X142293115Y-113613327D01*
X142275945Y-113614950D01*
X142264276Y-113615500D01*
X140908544Y-113615500D01*
X140888036Y-113613235D01*
X140817913Y-113615439D01*
X140814019Y-113615500D01*
X140786450Y-113615500D01*
X140782594Y-113615986D01*
X140782591Y-113615987D01*
X140782535Y-113615994D01*
X140782462Y-113616003D01*
X140770843Y-113616917D01*
X140727172Y-113618289D01*
X140707928Y-113623880D01*
X140688884Y-113627824D01*
X140669008Y-113630335D01*
X140628400Y-113646413D01*
X140617354Y-113650194D01*
X140575410Y-113662382D01*
X140575407Y-113662383D01*
X140558165Y-113672579D01*
X140540704Y-113681133D01*
X140522067Y-113688512D01*
X140486731Y-113714185D01*
X140476974Y-113720595D01*
X140439380Y-113742829D01*
X140425213Y-113756996D01*
X140410424Y-113769626D01*
X140394213Y-113781404D01*
X140366372Y-113815058D01*
X140358511Y-113823697D01*
X139303504Y-114878703D01*
X139242181Y-114912188D01*
X139172489Y-114907204D01*
X139116556Y-114865332D01*
X139104823Y-114846293D01*
X139034783Y-114705632D01*
X138905840Y-114534884D01*
X138747724Y-114390743D01*
X138565810Y-114278107D01*
X138481404Y-114245408D01*
X138366297Y-114200815D01*
X138190153Y-114167888D01*
X138127874Y-114136221D01*
X138092601Y-114075909D01*
X138095535Y-114006100D01*
X138135744Y-113948960D01*
X138190152Y-113924112D01*
X138366297Y-113891185D01*
X138565810Y-113813893D01*
X138747722Y-113701258D01*
X138905841Y-113557114D01*
X139034781Y-113386370D01*
X139034781Y-113386368D01*
X139034783Y-113386367D01*
X139130151Y-113194840D01*
X139188704Y-112989050D01*
X139196849Y-112901148D01*
X139208446Y-112776000D01*
X139193333Y-112612915D01*
X139188704Y-112562949D01*
X139130151Y-112357159D01*
X139034783Y-112165632D01*
X138905840Y-111994884D01*
X138747724Y-111850743D01*
X138565810Y-111738107D01*
X138565809Y-111738107D01*
X138366297Y-111660815D01*
X138190153Y-111627888D01*
X138127874Y-111596221D01*
X138092601Y-111535909D01*
X138095535Y-111466100D01*
X138135744Y-111408960D01*
X138190152Y-111384112D01*
X138366297Y-111351185D01*
X138565810Y-111273893D01*
X138747722Y-111161258D01*
X138905841Y-111017114D01*
X139034781Y-110846370D01*
X139034781Y-110846368D01*
X139034783Y-110846367D01*
X139130151Y-110654840D01*
X139188704Y-110449050D01*
X139199374Y-110333898D01*
X139208446Y-110236000D01*
X139191447Y-110052548D01*
X139188704Y-110022949D01*
X139130151Y-109817159D01*
X139034783Y-109625632D01*
X138939326Y-109499227D01*
X138914634Y-109433865D01*
X138929199Y-109365531D01*
X138978397Y-109315918D01*
X139038280Y-109300500D01*
X143173256Y-109300500D01*
X143193762Y-109302764D01*
X143196665Y-109302672D01*
X143196667Y-109302673D01*
X143263872Y-109300561D01*
X143267768Y-109300500D01*
X143291448Y-109300500D01*
X143295350Y-109300500D01*
X143299313Y-109299999D01*
X143310962Y-109299080D01*
X143354627Y-109297709D01*
X143373859Y-109292120D01*
X143392918Y-109288174D01*
X143399196Y-109287381D01*
X143412792Y-109285664D01*
X143453407Y-109269582D01*
X143464444Y-109265803D01*
X143506390Y-109253618D01*
X143523629Y-109243422D01*
X143541102Y-109234862D01*
X143559732Y-109227486D01*
X143595064Y-109201814D01*
X143604830Y-109195400D01*
X143642418Y-109173171D01*
X143642417Y-109173171D01*
X143642420Y-109173170D01*
X143656585Y-109159004D01*
X143671373Y-109146373D01*
X143687587Y-109134594D01*
X143715438Y-109100926D01*
X143723279Y-109092309D01*
X152127595Y-100687993D01*
X152188916Y-100654510D01*
X152258608Y-100659494D01*
G37*
%TD.AperFunction*%
%TA.AperFunction,Conductor*%
G36*
X121524619Y-72280750D02*
G01*
X121655308Y-72359383D01*
X121660996Y-72365569D01*
X121685849Y-72378146D01*
X121693787Y-72382535D01*
X121803166Y-72448346D01*
X121970748Y-72525877D01*
X121977506Y-72531792D01*
X122004749Y-72541992D01*
X122013317Y-72545572D01*
X122124539Y-72597029D01*
X122302466Y-72656979D01*
X122310290Y-72662455D01*
X122339583Y-72669873D01*
X122348722Y-72672565D01*
X122460103Y-72710094D01*
X122646519Y-72751127D01*
X122655377Y-72755992D01*
X122686334Y-72760285D01*
X122695937Y-72762004D01*
X122805925Y-72786215D01*
X122977906Y-72804919D01*
X122998787Y-72807190D01*
X123008632Y-72811282D01*
X123040846Y-72812170D01*
X123050814Y-72812848D01*
X123157950Y-72824500D01*
X123161308Y-72824500D01*
X123355080Y-72824500D01*
X123365841Y-72827660D01*
X123398859Y-72824924D01*
X123409099Y-72824500D01*
X123508692Y-72824500D01*
X123512050Y-72824500D01*
X123711142Y-72802847D01*
X123722711Y-72804919D01*
X123756037Y-72798410D01*
X123766395Y-72796838D01*
X123864075Y-72786215D01*
X124062718Y-72742490D01*
X124074975Y-72743336D01*
X124108109Y-72732973D01*
X124118457Y-72730221D01*
X124209897Y-72710094D01*
X124405617Y-72644147D01*
X124418426Y-72643642D01*
X124450878Y-72629408D01*
X124461084Y-72625458D01*
X124545461Y-72597029D01*
X124735760Y-72508986D01*
X124748954Y-72507023D01*
X124780211Y-72488977D01*
X124790117Y-72483838D01*
X124866834Y-72448346D01*
X125049199Y-72338620D01*
X125062597Y-72335112D01*
X125092161Y-72313385D01*
X125101654Y-72307059D01*
X125145383Y-72280748D01*
X125209310Y-72263000D01*
X150144690Y-72263000D01*
X150208619Y-72280750D01*
X150339308Y-72359383D01*
X150344996Y-72365569D01*
X150369849Y-72378146D01*
X150377787Y-72382535D01*
X150487166Y-72448346D01*
X150654748Y-72525877D01*
X150661506Y-72531792D01*
X150688749Y-72541992D01*
X150697317Y-72545572D01*
X150808539Y-72597029D01*
X150986466Y-72656979D01*
X150994290Y-72662455D01*
X151023583Y-72669873D01*
X151032722Y-72672565D01*
X151144103Y-72710094D01*
X151330519Y-72751127D01*
X151339377Y-72755992D01*
X151370334Y-72760285D01*
X151379937Y-72762004D01*
X151489925Y-72786215D01*
X151661906Y-72804919D01*
X151682787Y-72807190D01*
X151692632Y-72811282D01*
X151724846Y-72812170D01*
X151734814Y-72812848D01*
X151841950Y-72824500D01*
X151845308Y-72824500D01*
X152039080Y-72824500D01*
X152049841Y-72827660D01*
X152082859Y-72824924D01*
X152093099Y-72824500D01*
X152192692Y-72824500D01*
X152196050Y-72824500D01*
X152395142Y-72802847D01*
X152406711Y-72804919D01*
X152440037Y-72798410D01*
X152450395Y-72796838D01*
X152548075Y-72786215D01*
X152746718Y-72742490D01*
X152758975Y-72743336D01*
X152792109Y-72732973D01*
X152802457Y-72730221D01*
X152893897Y-72710094D01*
X153089617Y-72644147D01*
X153102426Y-72643642D01*
X153134878Y-72629408D01*
X153145084Y-72625458D01*
X153229461Y-72597029D01*
X153419760Y-72508986D01*
X153432954Y-72507023D01*
X153464211Y-72488977D01*
X153474117Y-72483838D01*
X153550834Y-72448346D01*
X153733199Y-72338620D01*
X153746597Y-72335112D01*
X153776161Y-72313385D01*
X153785654Y-72307059D01*
X153829383Y-72280748D01*
X153893310Y-72263000D01*
X156086000Y-72263000D01*
X156153039Y-72282685D01*
X156198794Y-72335489D01*
X156210000Y-72387000D01*
X156210000Y-151006000D01*
X156190315Y-151073039D01*
X156137511Y-151118794D01*
X156086000Y-151130000D01*
X119123000Y-151130000D01*
X119055961Y-151110315D01*
X119010206Y-151057511D01*
X118999000Y-151006000D01*
X118999000Y-123582565D01*
X126571444Y-123582565D01*
X126574967Y-123604755D01*
X126576500Y-123624194D01*
X126576499Y-137305715D01*
X126576427Y-137309947D01*
X126574237Y-137374064D01*
X126583963Y-137413972D01*
X126586334Y-137426446D01*
X126591930Y-137467161D01*
X126599079Y-137483619D01*
X126605819Y-137503660D01*
X126610067Y-137521092D01*
X126630206Y-137556911D01*
X126635852Y-137568278D01*
X126652220Y-137605959D01*
X126660009Y-137615533D01*
X126663542Y-137619876D01*
X126675437Y-137637355D01*
X126684232Y-137652996D01*
X126713285Y-137682049D01*
X126721793Y-137691476D01*
X126747721Y-137723346D01*
X126762378Y-137733692D01*
X126778552Y-137747316D01*
X132668339Y-143637102D01*
X132671281Y-143640146D01*
X132689408Y-143659555D01*
X132715081Y-143687044D01*
X132744277Y-143704798D01*
X132750186Y-143708391D01*
X132760679Y-143715532D01*
X132793419Y-143740361D01*
X132810114Y-143746944D01*
X132829051Y-143756351D01*
X132844379Y-143765672D01*
X132883940Y-143776756D01*
X132895976Y-143780803D01*
X132934196Y-143795876D01*
X132952044Y-143797710D01*
X132972807Y-143801656D01*
X132990096Y-143806500D01*
X133031178Y-143806500D01*
X133043858Y-143807149D01*
X133084732Y-143811352D01*
X133102416Y-143808303D01*
X133123485Y-143806500D01*
X133848722Y-143806500D01*
X133915761Y-143826185D01*
X133940872Y-143847528D01*
X134014129Y-143928889D01*
X134167269Y-144040151D01*
X134340197Y-144117144D01*
X134525352Y-144156500D01*
X134525354Y-144156500D01*
X134714648Y-144156500D01*
X134838083Y-144130262D01*
X134899803Y-144117144D01*
X135072730Y-144040151D01*
X135225871Y-143928888D01*
X135352533Y-143788216D01*
X135447179Y-143624284D01*
X135505674Y-143444256D01*
X135510479Y-143398534D01*
X135537062Y-143333923D01*
X135594359Y-143293938D01*
X135664178Y-143291277D01*
X135667235Y-143292091D01*
X135673186Y-143293758D01*
X135685213Y-143297803D01*
X135723436Y-143312876D01*
X135741285Y-143314711D01*
X135762046Y-143318656D01*
X135779335Y-143323500D01*
X135820418Y-143323500D01*
X135833098Y-143324149D01*
X135873972Y-143328352D01*
X135891656Y-143325303D01*
X135912725Y-143323500D01*
X138266478Y-143323500D01*
X138270711Y-143323572D01*
X138334824Y-143325762D01*
X138334824Y-143325761D01*
X138334826Y-143325762D01*
X138374751Y-143316031D01*
X138387196Y-143313666D01*
X138427920Y-143308070D01*
X138444383Y-143300918D01*
X138464419Y-143294180D01*
X138481852Y-143289933D01*
X138517695Y-143269778D01*
X138529015Y-143264157D01*
X138566720Y-143247780D01*
X138580635Y-143236458D01*
X138598111Y-143224563D01*
X138613759Y-143215766D01*
X138642813Y-143186710D01*
X138652230Y-143178211D01*
X138684108Y-143152278D01*
X138694461Y-143137610D01*
X138708073Y-143121450D01*
X140866705Y-140962819D01*
X140928029Y-140929334D01*
X140954387Y-140926500D01*
X141557826Y-140926500D01*
X141624865Y-140946185D01*
X141670620Y-140998989D01*
X141680564Y-141068147D01*
X141670505Y-141097209D01*
X141670848Y-141097321D01*
X141608326Y-141289742D01*
X141588540Y-141478000D01*
X141608326Y-141666257D01*
X141666820Y-141846284D01*
X141761466Y-142010216D01*
X141888129Y-142150889D01*
X142041269Y-142262151D01*
X142214197Y-142339144D01*
X142399352Y-142378500D01*
X142399354Y-142378500D01*
X142588648Y-142378500D01*
X142712083Y-142352262D01*
X142773803Y-142339144D01*
X142946730Y-142262151D01*
X143099871Y-142150888D01*
X143101995Y-142148528D01*
X143109387Y-142143974D01*
X143110415Y-142143228D01*
X143110471Y-142143306D01*
X143161481Y-142111880D01*
X143194146Y-142107500D01*
X144276989Y-142107500D01*
X144344028Y-142127185D01*
X144389783Y-142179989D01*
X144399727Y-142249147D01*
X144370702Y-142312703D01*
X144337761Y-142337117D01*
X144337813Y-142337188D01*
X144330409Y-142342567D01*
X144327425Y-142344779D01*
X144327269Y-142344848D01*
X144174129Y-142456110D01*
X144047466Y-142596783D01*
X143952820Y-142760715D01*
X143894326Y-142940742D01*
X143874540Y-143128999D01*
X143894326Y-143317257D01*
X143952820Y-143497284D01*
X144047466Y-143661216D01*
X144174129Y-143801889D01*
X144327269Y-143913151D01*
X144500197Y-143990144D01*
X144685352Y-144029500D01*
X144685354Y-144029500D01*
X144874648Y-144029500D01*
X144998084Y-144003262D01*
X145059803Y-143990144D01*
X145232730Y-143913151D01*
X145385871Y-143801888D01*
X145387995Y-143799528D01*
X145395387Y-143794974D01*
X145396415Y-143794228D01*
X145396471Y-143794306D01*
X145447481Y-143762880D01*
X145480146Y-143758500D01*
X147869717Y-143758500D01*
X147873950Y-143758572D01*
X147938063Y-143760762D01*
X147938063Y-143760761D01*
X147938065Y-143760762D01*
X147977990Y-143751031D01*
X147990435Y-143748666D01*
X148031159Y-143743070D01*
X148047622Y-143735918D01*
X148067658Y-143729180D01*
X148085091Y-143724933D01*
X148120934Y-143704778D01*
X148132254Y-143699157D01*
X148169959Y-143682780D01*
X148183874Y-143671458D01*
X148201350Y-143659563D01*
X148216998Y-143650766D01*
X148246052Y-143621710D01*
X148255469Y-143613211D01*
X148287347Y-143587278D01*
X148297700Y-143572610D01*
X148311312Y-143556450D01*
X151892130Y-139975631D01*
X151895115Y-139972746D01*
X151942044Y-139928919D01*
X151963397Y-139893802D01*
X151970531Y-139883321D01*
X151995361Y-139850581D01*
X152001943Y-139833887D01*
X152011344Y-139814958D01*
X152020672Y-139799621D01*
X152031760Y-139760044D01*
X152035800Y-139748031D01*
X152050876Y-139709803D01*
X152052711Y-139691950D01*
X152056658Y-139671183D01*
X152061500Y-139653904D01*
X152061500Y-139612819D01*
X152062150Y-139600139D01*
X152066352Y-139559266D01*
X152063303Y-139541583D01*
X152061500Y-139520514D01*
X152061500Y-136288148D01*
X152081185Y-136221109D01*
X152133989Y-136175354D01*
X152203147Y-136165410D01*
X152266703Y-136194435D01*
X152296501Y-136232878D01*
X152303219Y-136246370D01*
X152432159Y-136417115D01*
X152590275Y-136561256D01*
X152590277Y-136561257D01*
X152590278Y-136561258D01*
X152772190Y-136673893D01*
X152971703Y-136751185D01*
X153182020Y-136790500D01*
X153182022Y-136790500D01*
X153395978Y-136790500D01*
X153395980Y-136790500D01*
X153606297Y-136751185D01*
X153805810Y-136673893D01*
X153987722Y-136561258D01*
X154145841Y-136417114D01*
X154274781Y-136246370D01*
X154274781Y-136246368D01*
X154274783Y-136246367D01*
X154370151Y-136054840D01*
X154428704Y-135849050D01*
X154431790Y-135815739D01*
X154448446Y-135636000D01*
X154428704Y-135422952D01*
X154428704Y-135422949D01*
X154370151Y-135217159D01*
X154274783Y-135025632D01*
X154145840Y-134854884D01*
X153987724Y-134710743D01*
X153805810Y-134598107D01*
X153606297Y-134520815D01*
X153430153Y-134487888D01*
X153367874Y-134456221D01*
X153332601Y-134395909D01*
X153335535Y-134326100D01*
X153375744Y-134268960D01*
X153430152Y-134244112D01*
X153606297Y-134211185D01*
X153805810Y-134133893D01*
X153987722Y-134021258D01*
X154145841Y-133877114D01*
X154274781Y-133706370D01*
X154274781Y-133706368D01*
X154274783Y-133706367D01*
X154370151Y-133514840D01*
X154428704Y-133309050D01*
X154431566Y-133278154D01*
X154448446Y-133096000D01*
X154428704Y-132882952D01*
X154428704Y-132882949D01*
X154370151Y-132677159D01*
X154274783Y-132485632D01*
X154145840Y-132314884D01*
X153987724Y-132170743D01*
X153805810Y-132058107D01*
X153606297Y-131980815D01*
X153430153Y-131947888D01*
X153367874Y-131916221D01*
X153332601Y-131855909D01*
X153335535Y-131786100D01*
X153375744Y-131728960D01*
X153430152Y-131704112D01*
X153606297Y-131671185D01*
X153805810Y-131593893D01*
X153987722Y-131481258D01*
X154145841Y-131337114D01*
X154274781Y-131166370D01*
X154274781Y-131166368D01*
X154274783Y-131166367D01*
X154370151Y-130974840D01*
X154428704Y-130769050D01*
X154444689Y-130596540D01*
X154448446Y-130556000D01*
X154428704Y-130342952D01*
X154428704Y-130342949D01*
X154370151Y-130137159D01*
X154274783Y-129945632D01*
X154145840Y-129774884D01*
X153987724Y-129630743D01*
X153805810Y-129518107D01*
X153606297Y-129440815D01*
X153430154Y-129407888D01*
X153367874Y-129376219D01*
X153332601Y-129315907D01*
X153335535Y-129246099D01*
X153375744Y-129188959D01*
X153430150Y-129164112D01*
X153606297Y-129131185D01*
X153805810Y-129053893D01*
X153987722Y-128941258D01*
X154142004Y-128800612D01*
X154145840Y-128797115D01*
X154145841Y-128797114D01*
X154274781Y-128626370D01*
X154274781Y-128626368D01*
X154274783Y-128626367D01*
X154370151Y-128434840D01*
X154428704Y-128229050D01*
X154433167Y-128180888D01*
X154448446Y-128016000D01*
X154428704Y-127802952D01*
X154428704Y-127802949D01*
X154370151Y-127597159D01*
X154274783Y-127405632D01*
X154145840Y-127234884D01*
X153987724Y-127090743D01*
X153805810Y-126978107D01*
X153752617Y-126957500D01*
X153606297Y-126900815D01*
X153430153Y-126867888D01*
X153367874Y-126836221D01*
X153332601Y-126775909D01*
X153335535Y-126706100D01*
X153375744Y-126648960D01*
X153430152Y-126624112D01*
X153606297Y-126591185D01*
X153805810Y-126513893D01*
X153987722Y-126401258D01*
X154145841Y-126257114D01*
X154274781Y-126086370D01*
X154274781Y-126086368D01*
X154274783Y-126086367D01*
X154370151Y-125894840D01*
X154428704Y-125689050D01*
X154431790Y-125655739D01*
X154448446Y-125476000D01*
X154428704Y-125262952D01*
X154428704Y-125262949D01*
X154370151Y-125057159D01*
X154274783Y-124865632D01*
X154145840Y-124694884D01*
X153987724Y-124550743D01*
X153805810Y-124438107D01*
X153805809Y-124438107D01*
X153606297Y-124360815D01*
X153430153Y-124327888D01*
X153367874Y-124296221D01*
X153332601Y-124235909D01*
X153335535Y-124166100D01*
X153375744Y-124108960D01*
X153430152Y-124084112D01*
X153606297Y-124051185D01*
X153805810Y-123973893D01*
X153987722Y-123861258D01*
X154145841Y-123717114D01*
X154274781Y-123546370D01*
X154274781Y-123546368D01*
X154274783Y-123546367D01*
X154370151Y-123354840D01*
X154428704Y-123149050D01*
X154431790Y-123115739D01*
X154448446Y-122936000D01*
X154428704Y-122722952D01*
X154428704Y-122722949D01*
X154370151Y-122517159D01*
X154274783Y-122325632D01*
X154145840Y-122154884D01*
X153987724Y-122010743D01*
X153805810Y-121898107D01*
X153805809Y-121898107D01*
X153606297Y-121820815D01*
X153430153Y-121787888D01*
X153367874Y-121756221D01*
X153332601Y-121695909D01*
X153335535Y-121626100D01*
X153375744Y-121568960D01*
X153430152Y-121544112D01*
X153606297Y-121511185D01*
X153805810Y-121433893D01*
X153987722Y-121321258D01*
X154145841Y-121177114D01*
X154274781Y-121006370D01*
X154274781Y-121006368D01*
X154274783Y-121006367D01*
X154370151Y-120814840D01*
X154428704Y-120609050D01*
X154431790Y-120575739D01*
X154448446Y-120396000D01*
X154428704Y-120182952D01*
X154428704Y-120182949D01*
X154370151Y-119977159D01*
X154274783Y-119785632D01*
X154145840Y-119614884D01*
X153987724Y-119470743D01*
X153805810Y-119358107D01*
X153747501Y-119335518D01*
X153606297Y-119280815D01*
X153430153Y-119247888D01*
X153367874Y-119216221D01*
X153332601Y-119155909D01*
X153335535Y-119086100D01*
X153375744Y-119028960D01*
X153430152Y-119004112D01*
X153606297Y-118971185D01*
X153805810Y-118893893D01*
X153987722Y-118781258D01*
X154145841Y-118637114D01*
X154274781Y-118466370D01*
X154274781Y-118466368D01*
X154274783Y-118466367D01*
X154370151Y-118274840D01*
X154428704Y-118069050D01*
X154437743Y-117971500D01*
X154448446Y-117856000D01*
X154431392Y-117671963D01*
X154428704Y-117642949D01*
X154370151Y-117437159D01*
X154274783Y-117245632D01*
X154145840Y-117074884D01*
X153987724Y-116930743D01*
X153805810Y-116818107D01*
X153606297Y-116740815D01*
X153430154Y-116707888D01*
X153367874Y-116676219D01*
X153332601Y-116615907D01*
X153335535Y-116546099D01*
X153375744Y-116488959D01*
X153430150Y-116464112D01*
X153606297Y-116431185D01*
X153805810Y-116353893D01*
X153987722Y-116241258D01*
X154145841Y-116097114D01*
X154274781Y-115926370D01*
X154274781Y-115926368D01*
X154274783Y-115926367D01*
X154370151Y-115734840D01*
X154428704Y-115529050D01*
X154439545Y-115412052D01*
X154448446Y-115316000D01*
X154428704Y-115102952D01*
X154428704Y-115102949D01*
X154370151Y-114897159D01*
X154274783Y-114705632D01*
X154145840Y-114534884D01*
X153987724Y-114390743D01*
X153805810Y-114278107D01*
X153721404Y-114245408D01*
X153606297Y-114200815D01*
X153515148Y-114183776D01*
X153428795Y-114167634D01*
X153366514Y-114135965D01*
X153331241Y-114075653D01*
X153334175Y-114005845D01*
X153374384Y-113948705D01*
X153428795Y-113923856D01*
X153606160Y-113890701D01*
X153805586Y-113813443D01*
X153908913Y-113749465D01*
X153333401Y-113173953D01*
X153414148Y-113161165D01*
X153527045Y-113103641D01*
X153616641Y-113014045D01*
X153674165Y-112901148D01*
X153686953Y-112820399D01*
X154265018Y-113398465D01*
X154274355Y-113386102D01*
X154369684Y-113194656D01*
X154428210Y-112988957D01*
X154447943Y-112776000D01*
X154428210Y-112563042D01*
X154369684Y-112357343D01*
X154274353Y-112165893D01*
X154265019Y-112153533D01*
X154265018Y-112153533D01*
X153686953Y-112731597D01*
X153674165Y-112650852D01*
X153616641Y-112537955D01*
X153527045Y-112448359D01*
X153414148Y-112390835D01*
X153333401Y-112378046D01*
X153908913Y-111802533D01*
X153908912Y-111802532D01*
X153805589Y-111738557D01*
X153606159Y-111661298D01*
X153428795Y-111628143D01*
X153366514Y-111596475D01*
X153331241Y-111536162D01*
X153334175Y-111466354D01*
X153374384Y-111409214D01*
X153428791Y-111384366D01*
X153606297Y-111351185D01*
X153805810Y-111273893D01*
X153987722Y-111161258D01*
X154145841Y-111017114D01*
X154274781Y-110846370D01*
X154274781Y-110846368D01*
X154274783Y-110846367D01*
X154370151Y-110654840D01*
X154428704Y-110449050D01*
X154439374Y-110333898D01*
X154448446Y-110236000D01*
X154431447Y-110052548D01*
X154428704Y-110022949D01*
X154370151Y-109817159D01*
X154274783Y-109625632D01*
X154145840Y-109454884D01*
X153987724Y-109310743D01*
X153805810Y-109198107D01*
X153801659Y-109196499D01*
X153606297Y-109120815D01*
X153430153Y-109087888D01*
X153367874Y-109056221D01*
X153332601Y-108995909D01*
X153335535Y-108926100D01*
X153375744Y-108868960D01*
X153430152Y-108844112D01*
X153606297Y-108811185D01*
X153805810Y-108733893D01*
X153987722Y-108621258D01*
X154145841Y-108477114D01*
X154274781Y-108306370D01*
X154274781Y-108306368D01*
X154274783Y-108306367D01*
X154370151Y-108114840D01*
X154428704Y-107909050D01*
X154441784Y-107767889D01*
X154448446Y-107696000D01*
X154428704Y-107482952D01*
X154428704Y-107482949D01*
X154370151Y-107277159D01*
X154274783Y-107085632D01*
X154145840Y-106914884D01*
X153987724Y-106770743D01*
X153805810Y-106658107D01*
X153771546Y-106644833D01*
X153606297Y-106580815D01*
X153430153Y-106547888D01*
X153367874Y-106516221D01*
X153332601Y-106455909D01*
X153335535Y-106386100D01*
X153375744Y-106328960D01*
X153430152Y-106304112D01*
X153606297Y-106271185D01*
X153805810Y-106193893D01*
X153987722Y-106081258D01*
X154145841Y-105937114D01*
X154274781Y-105766370D01*
X154274781Y-105766368D01*
X154274783Y-105766367D01*
X154370151Y-105574840D01*
X154428704Y-105369050D01*
X154431790Y-105335739D01*
X154448446Y-105156000D01*
X154428704Y-104942952D01*
X154428704Y-104942949D01*
X154370151Y-104737159D01*
X154274783Y-104545632D01*
X154145840Y-104374884D01*
X153987724Y-104230743D01*
X153805810Y-104118107D01*
X153805809Y-104118107D01*
X153606297Y-104040815D01*
X153430153Y-104007888D01*
X153367874Y-103976221D01*
X153332601Y-103915909D01*
X153335535Y-103846100D01*
X153375744Y-103788960D01*
X153430152Y-103764112D01*
X153606297Y-103731185D01*
X153805810Y-103653893D01*
X153987722Y-103541258D01*
X154145841Y-103397114D01*
X154274781Y-103226370D01*
X154274781Y-103226368D01*
X154274783Y-103226367D01*
X154370151Y-103034840D01*
X154428704Y-102829050D01*
X154431790Y-102795739D01*
X154448446Y-102616000D01*
X154428704Y-102402952D01*
X154428704Y-102402949D01*
X154370151Y-102197159D01*
X154274783Y-102005632D01*
X154145840Y-101834884D01*
X153987724Y-101690743D01*
X153805810Y-101578107D01*
X153805809Y-101578107D01*
X153606297Y-101500815D01*
X153430153Y-101467888D01*
X153367874Y-101436221D01*
X153332601Y-101375909D01*
X153335535Y-101306100D01*
X153375744Y-101248960D01*
X153430152Y-101224112D01*
X153606297Y-101191185D01*
X153805810Y-101113893D01*
X153987722Y-101001258D01*
X154145841Y-100857114D01*
X154274781Y-100686370D01*
X154274781Y-100686368D01*
X154274783Y-100686367D01*
X154370151Y-100494840D01*
X154428704Y-100289050D01*
X154438730Y-100180848D01*
X154448446Y-100076000D01*
X154428704Y-99862952D01*
X154428704Y-99862949D01*
X154370151Y-99657159D01*
X154274783Y-99465632D01*
X154145840Y-99294884D01*
X154056816Y-99213729D01*
X154020534Y-99154018D01*
X154022295Y-99084171D01*
X154061538Y-99026363D01*
X154077235Y-99015359D01*
X154080934Y-99013171D01*
X154080933Y-99013171D01*
X154080936Y-99013170D01*
X154095101Y-98999004D01*
X154109889Y-98986373D01*
X154126103Y-98974594D01*
X154153954Y-98940926D01*
X154161795Y-98932309D01*
X154651792Y-98442313D01*
X154667885Y-98429422D01*
X154669873Y-98427303D01*
X154669877Y-98427302D01*
X154715949Y-98378239D01*
X154718534Y-98375571D01*
X154738120Y-98355987D01*
X154740585Y-98352808D01*
X154748167Y-98343932D01*
X154778062Y-98312098D01*
X154787712Y-98294543D01*
X154798400Y-98278273D01*
X154810671Y-98262454D01*
X154810673Y-98262452D01*
X154828026Y-98222348D01*
X154833157Y-98211878D01*
X154854197Y-98173608D01*
X154859175Y-98154215D01*
X154865481Y-98135798D01*
X154867018Y-98132244D01*
X154873438Y-98117412D01*
X154880272Y-98074261D01*
X154882635Y-98062847D01*
X154893500Y-98020535D01*
X154893500Y-98000499D01*
X154895027Y-97981100D01*
X154898160Y-97961320D01*
X154894050Y-97917840D01*
X154893500Y-97906171D01*
X154893500Y-96057740D01*
X154895763Y-96037239D01*
X154893561Y-95967144D01*
X154893500Y-95963250D01*
X154893500Y-95939544D01*
X154893500Y-95935650D01*
X154892998Y-95931681D01*
X154892080Y-95920024D01*
X154890709Y-95876373D01*
X154885120Y-95857140D01*
X154881174Y-95838082D01*
X154878664Y-95818206D01*
X154862588Y-95777604D01*
X154858804Y-95766553D01*
X154852881Y-95746168D01*
X154846618Y-95724610D01*
X154836414Y-95707355D01*
X154827861Y-95689895D01*
X154820486Y-95671269D01*
X154820486Y-95671268D01*
X154794808Y-95635925D01*
X154788401Y-95626171D01*
X154766169Y-95588579D01*
X154752006Y-95574416D01*
X154739367Y-95559617D01*
X154727595Y-95543413D01*
X154693941Y-95515573D01*
X154685299Y-95507709D01*
X154466297Y-95288707D01*
X154432812Y-95227384D01*
X154430507Y-95189588D01*
X154448446Y-94996000D01*
X154428704Y-94782952D01*
X154428704Y-94782949D01*
X154370151Y-94577159D01*
X154274783Y-94385632D01*
X154145840Y-94214884D01*
X153987724Y-94070743D01*
X153805810Y-93958107D01*
X153805809Y-93958106D01*
X153606297Y-93880815D01*
X153430153Y-93847888D01*
X153367874Y-93816221D01*
X153332601Y-93755909D01*
X153335535Y-93686100D01*
X153375744Y-93628960D01*
X153430152Y-93604112D01*
X153606297Y-93571185D01*
X153805810Y-93493893D01*
X153987722Y-93381258D01*
X154145841Y-93237114D01*
X154274781Y-93066370D01*
X154274781Y-93066368D01*
X154274783Y-93066367D01*
X154370151Y-92874840D01*
X154428704Y-92669050D01*
X154431566Y-92638154D01*
X154448446Y-92456000D01*
X154428704Y-92242952D01*
X154428704Y-92242949D01*
X154370151Y-92037159D01*
X154274783Y-91845632D01*
X154145840Y-91674884D01*
X153987724Y-91530743D01*
X153805810Y-91418107D01*
X153805809Y-91418106D01*
X153606297Y-91340815D01*
X153430153Y-91307888D01*
X153367874Y-91276221D01*
X153332601Y-91215909D01*
X153335535Y-91146100D01*
X153375744Y-91088960D01*
X153430152Y-91064112D01*
X153606297Y-91031185D01*
X153805810Y-90953893D01*
X153987722Y-90841258D01*
X154093134Y-90745162D01*
X154145840Y-90697115D01*
X154274783Y-90526367D01*
X154370151Y-90334840D01*
X154428704Y-90129050D01*
X154443947Y-89964547D01*
X154448446Y-89916000D01*
X154428704Y-89702952D01*
X154428704Y-89702949D01*
X154370151Y-89497159D01*
X154274783Y-89305632D01*
X154145840Y-89134884D01*
X153987724Y-88990743D01*
X153805810Y-88878107D01*
X153805809Y-88878106D01*
X153606297Y-88800815D01*
X153430153Y-88767888D01*
X153367874Y-88736221D01*
X153332601Y-88675909D01*
X153335535Y-88606100D01*
X153375744Y-88548960D01*
X153430152Y-88524112D01*
X153606297Y-88491185D01*
X153805810Y-88413893D01*
X153987722Y-88301258D01*
X154145841Y-88157114D01*
X154274781Y-87986370D01*
X154274781Y-87986368D01*
X154274783Y-87986367D01*
X154370151Y-87794840D01*
X154428704Y-87589050D01*
X154431790Y-87555739D01*
X154448446Y-87376000D01*
X154428704Y-87162952D01*
X154428704Y-87162949D01*
X154370151Y-86957159D01*
X154274783Y-86765632D01*
X154145840Y-86594884D01*
X153987724Y-86450743D01*
X153805810Y-86338107D01*
X153805809Y-86338106D01*
X153606297Y-86260815D01*
X153430153Y-86227888D01*
X153367874Y-86196221D01*
X153332601Y-86135909D01*
X153335535Y-86066100D01*
X153375744Y-86008960D01*
X153430152Y-85984112D01*
X153606297Y-85951185D01*
X153805810Y-85873893D01*
X153987722Y-85761258D01*
X154145841Y-85617114D01*
X154274781Y-85446370D01*
X154274781Y-85446368D01*
X154274783Y-85446367D01*
X154370151Y-85254840D01*
X154428704Y-85049050D01*
X154431790Y-85015739D01*
X154448446Y-84836000D01*
X154428704Y-84622952D01*
X154428704Y-84622949D01*
X154370151Y-84417159D01*
X154274783Y-84225632D01*
X154145840Y-84054884D01*
X153987724Y-83910743D01*
X153805810Y-83798107D01*
X153805809Y-83798106D01*
X153606297Y-83720815D01*
X153430153Y-83687888D01*
X153367874Y-83656221D01*
X153332601Y-83595909D01*
X153335535Y-83526100D01*
X153375744Y-83468960D01*
X153430152Y-83444112D01*
X153606297Y-83411185D01*
X153805810Y-83333893D01*
X153987722Y-83221258D01*
X154145841Y-83077114D01*
X154274781Y-82906370D01*
X154274781Y-82906368D01*
X154274783Y-82906367D01*
X154370151Y-82714840D01*
X154428704Y-82509050D01*
X154431790Y-82475739D01*
X154448446Y-82296000D01*
X154428704Y-82082952D01*
X154428704Y-82082949D01*
X154370151Y-81877159D01*
X154274783Y-81685632D01*
X154145840Y-81514884D01*
X153987724Y-81370743D01*
X153805810Y-81258107D01*
X153805809Y-81258106D01*
X153606297Y-81180815D01*
X153515148Y-81163776D01*
X153428795Y-81147634D01*
X153366514Y-81115965D01*
X153331241Y-81055653D01*
X153334175Y-80985845D01*
X153374384Y-80928705D01*
X153428795Y-80903856D01*
X153606160Y-80870701D01*
X153805586Y-80793443D01*
X153908913Y-80729465D01*
X153333401Y-80153953D01*
X153414148Y-80141165D01*
X153527045Y-80083641D01*
X153616641Y-79994045D01*
X153674165Y-79881148D01*
X153686953Y-79800400D01*
X154265018Y-80378465D01*
X154274355Y-80366102D01*
X154369684Y-80174656D01*
X154428210Y-79968957D01*
X154447943Y-79755999D01*
X154428210Y-79543042D01*
X154369684Y-79337343D01*
X154274353Y-79145893D01*
X154265019Y-79133533D01*
X153686953Y-79711598D01*
X153674165Y-79630852D01*
X153616641Y-79517955D01*
X153527045Y-79428359D01*
X153414148Y-79370835D01*
X153333401Y-79358046D01*
X153908913Y-78782533D01*
X153908912Y-78782532D01*
X153805589Y-78718557D01*
X153606159Y-78641298D01*
X153428795Y-78608143D01*
X153366514Y-78576475D01*
X153331241Y-78516162D01*
X153334175Y-78446354D01*
X153374384Y-78389214D01*
X153428791Y-78364366D01*
X153606297Y-78331185D01*
X153805810Y-78253893D01*
X153987722Y-78141258D01*
X154145841Y-77997114D01*
X154274781Y-77826370D01*
X154274781Y-77826368D01*
X154274783Y-77826367D01*
X154370151Y-77634840D01*
X154428704Y-77429050D01*
X154445434Y-77248499D01*
X154448446Y-77216000D01*
X154432998Y-77049292D01*
X154428704Y-77002949D01*
X154370151Y-76797159D01*
X154274783Y-76605632D01*
X154145840Y-76434884D01*
X153987724Y-76290743D01*
X153805810Y-76178107D01*
X153805809Y-76178106D01*
X153606297Y-76100815D01*
X153395980Y-76061500D01*
X153182020Y-76061500D01*
X152971702Y-76100814D01*
X152971703Y-76100815D01*
X152772189Y-76178107D01*
X152590275Y-76290743D01*
X152432159Y-76434884D01*
X152303216Y-76605632D01*
X152207848Y-76797159D01*
X152149295Y-77002949D01*
X152129554Y-77216000D01*
X152149295Y-77429050D01*
X152207848Y-77634840D01*
X152303216Y-77826367D01*
X152432159Y-77997115D01*
X152590275Y-78141256D01*
X152590277Y-78141257D01*
X152590278Y-78141258D01*
X152772190Y-78253893D01*
X152971703Y-78331185D01*
X153149205Y-78364366D01*
X153211485Y-78396033D01*
X153246758Y-78456345D01*
X153243824Y-78526154D01*
X153203615Y-78583294D01*
X153149204Y-78608143D01*
X152971840Y-78641298D01*
X152772410Y-78718557D01*
X152669086Y-78782532D01*
X152669085Y-78782533D01*
X153244599Y-79358046D01*
X153163852Y-79370835D01*
X153050955Y-79428359D01*
X152961359Y-79517955D01*
X152903835Y-79630852D01*
X152891046Y-79711598D01*
X152312980Y-79133532D01*
X152303646Y-79145895D01*
X152208315Y-79337343D01*
X152149789Y-79543042D01*
X152130056Y-79756000D01*
X152149789Y-79968957D01*
X152208315Y-80174656D01*
X152303646Y-80366105D01*
X152312980Y-80378466D01*
X152891046Y-79800400D01*
X152903835Y-79881148D01*
X152961359Y-79994045D01*
X153050955Y-80083641D01*
X153163852Y-80141165D01*
X153244599Y-80153953D01*
X152669085Y-80729465D01*
X152772413Y-80793443D01*
X152971839Y-80870701D01*
X153149204Y-80903856D01*
X153211485Y-80935524D01*
X153246758Y-80995836D01*
X153243824Y-81065644D01*
X153203616Y-81122785D01*
X153149205Y-81147634D01*
X152971702Y-81180815D01*
X152772189Y-81258107D01*
X152590275Y-81370743D01*
X152432159Y-81514884D01*
X152303216Y-81685632D01*
X152207848Y-81877159D01*
X152149295Y-82082949D01*
X152129554Y-82296000D01*
X152149295Y-82509050D01*
X152207848Y-82714840D01*
X152303216Y-82906367D01*
X152432159Y-83077115D01*
X152590275Y-83221256D01*
X152590277Y-83221257D01*
X152590278Y-83221258D01*
X152772190Y-83333893D01*
X152971703Y-83411185D01*
X153147845Y-83444111D01*
X153210125Y-83475779D01*
X153245398Y-83536092D01*
X153242464Y-83605900D01*
X153202255Y-83663040D01*
X153147845Y-83687888D01*
X152971702Y-83720815D01*
X152971703Y-83720815D01*
X152772189Y-83798107D01*
X152590275Y-83910743D01*
X152432159Y-84054884D01*
X152303216Y-84225632D01*
X152207848Y-84417159D01*
X152149295Y-84622949D01*
X152129554Y-84836000D01*
X152149295Y-85049050D01*
X152207848Y-85254840D01*
X152303216Y-85446367D01*
X152432159Y-85617115D01*
X152590275Y-85761256D01*
X152590277Y-85761257D01*
X152590278Y-85761258D01*
X152772190Y-85873893D01*
X152971703Y-85951185D01*
X153147846Y-85984111D01*
X153210124Y-86015778D01*
X153245398Y-86076090D01*
X153242465Y-86145898D01*
X153202256Y-86203038D01*
X153147845Y-86227888D01*
X152971702Y-86260815D01*
X152772189Y-86338107D01*
X152590275Y-86450743D01*
X152432159Y-86594884D01*
X152303216Y-86765632D01*
X152207848Y-86957159D01*
X152149295Y-87162949D01*
X152129554Y-87376000D01*
X152149295Y-87589050D01*
X152207848Y-87794840D01*
X152303216Y-87986367D01*
X152432159Y-88157115D01*
X152590275Y-88301256D01*
X152590277Y-88301257D01*
X152590278Y-88301258D01*
X152772190Y-88413893D01*
X152971703Y-88491185D01*
X153147845Y-88524111D01*
X153210125Y-88555779D01*
X153245398Y-88616092D01*
X153242464Y-88685900D01*
X153202255Y-88743040D01*
X153147845Y-88767888D01*
X152971703Y-88800815D01*
X152772189Y-88878107D01*
X152590275Y-88990743D01*
X152432159Y-89134884D01*
X152303216Y-89305632D01*
X152207848Y-89497159D01*
X152149295Y-89702949D01*
X152129554Y-89915999D01*
X152149295Y-90129050D01*
X152207848Y-90334840D01*
X152303216Y-90526367D01*
X152432159Y-90697115D01*
X152590275Y-90841256D01*
X152590277Y-90841257D01*
X152590278Y-90841258D01*
X152772190Y-90953893D01*
X152971703Y-91031185D01*
X153147845Y-91064111D01*
X153210125Y-91095779D01*
X153245398Y-91156092D01*
X153242464Y-91225900D01*
X153202255Y-91283040D01*
X153147845Y-91307888D01*
X152971702Y-91340814D01*
X152971703Y-91340815D01*
X152772189Y-91418107D01*
X152590275Y-91530743D01*
X152432159Y-91674884D01*
X152303216Y-91845632D01*
X152207848Y-92037159D01*
X152149295Y-92242949D01*
X152129554Y-92455999D01*
X152149295Y-92669050D01*
X152207848Y-92874840D01*
X152303216Y-93066367D01*
X152432159Y-93237115D01*
X152590275Y-93381256D01*
X152590277Y-93381257D01*
X152590278Y-93381258D01*
X152772190Y-93493893D01*
X152971703Y-93571185D01*
X153147845Y-93604111D01*
X153210125Y-93635779D01*
X153245398Y-93696092D01*
X153242464Y-93765900D01*
X153202255Y-93823040D01*
X153147845Y-93847888D01*
X152971703Y-93880815D01*
X152772189Y-93958107D01*
X152590275Y-94070743D01*
X152432159Y-94214884D01*
X152303216Y-94385632D01*
X152207848Y-94577159D01*
X152149295Y-94782949D01*
X152129554Y-94995999D01*
X152149295Y-95209050D01*
X152207848Y-95414840D01*
X152303216Y-95606367D01*
X152432159Y-95777115D01*
X152590275Y-95921256D01*
X152590277Y-95921257D01*
X152590278Y-95921258D01*
X152772190Y-96033893D01*
X152971703Y-96111185D01*
X153147846Y-96144111D01*
X153210124Y-96175778D01*
X153245398Y-96236090D01*
X153242465Y-96305898D01*
X153202256Y-96363038D01*
X153147845Y-96387888D01*
X152971702Y-96420815D01*
X152772189Y-96498107D01*
X152590275Y-96610743D01*
X152432159Y-96754884D01*
X152303216Y-96925632D01*
X152207848Y-97117159D01*
X152149295Y-97322949D01*
X152129554Y-97536000D01*
X152147492Y-97729584D01*
X152134077Y-97798154D01*
X152111702Y-97828706D01*
X148940298Y-101000109D01*
X148878975Y-101033594D01*
X148809283Y-101028610D01*
X148753350Y-100986738D01*
X148729297Y-100925391D01*
X148713674Y-100776744D01*
X148655179Y-100596716D01*
X148655179Y-100596715D01*
X148560533Y-100432783D01*
X148433870Y-100292110D01*
X148280730Y-100180848D01*
X148107802Y-100103855D01*
X147922648Y-100064500D01*
X147922646Y-100064500D01*
X147768191Y-100064500D01*
X147701152Y-100044815D01*
X147655397Y-99992011D01*
X147645453Y-99922853D01*
X147650260Y-99902182D01*
X147670910Y-99838624D01*
X147697674Y-99756256D01*
X147717460Y-99568000D01*
X147697674Y-99379744D01*
X147639179Y-99199716D01*
X147639179Y-99199715D01*
X147544533Y-99035783D01*
X147417870Y-98895110D01*
X147264730Y-98783848D01*
X147091802Y-98706855D01*
X146906648Y-98667500D01*
X146906646Y-98667500D01*
X146717354Y-98667500D01*
X146717352Y-98667500D01*
X146532197Y-98706855D01*
X146359272Y-98783847D01*
X146287615Y-98835909D01*
X146206129Y-98895112D01*
X146200401Y-98901472D01*
X146140916Y-98938121D01*
X146108253Y-98942500D01*
X145229747Y-98942500D01*
X145162708Y-98922815D01*
X145137599Y-98901473D01*
X145131871Y-98895112D01*
X144978730Y-98783849D01*
X144978729Y-98783848D01*
X144978727Y-98783847D01*
X144805802Y-98706855D01*
X144620648Y-98667500D01*
X144620646Y-98667500D01*
X144431354Y-98667500D01*
X144431352Y-98667500D01*
X144246197Y-98706855D01*
X144073269Y-98783848D01*
X143920129Y-98895110D01*
X143793466Y-99035783D01*
X143698820Y-99199715D01*
X143640326Y-99379742D01*
X143620540Y-99568000D01*
X143640326Y-99756257D01*
X143687740Y-99902182D01*
X143689735Y-99972023D01*
X143653654Y-100031856D01*
X143590953Y-100062684D01*
X143569809Y-100064500D01*
X143542352Y-100064500D01*
X143357197Y-100103855D01*
X143184269Y-100180848D01*
X143031129Y-100292110D01*
X142904466Y-100432783D01*
X142809820Y-100596715D01*
X142751326Y-100776742D01*
X142731540Y-100965000D01*
X142751326Y-101153257D01*
X142809820Y-101333284D01*
X142904466Y-101497216D01*
X143031129Y-101637889D01*
X143184269Y-101749151D01*
X143357197Y-101826144D01*
X143542352Y-101865500D01*
X143542354Y-101865500D01*
X143731648Y-101865500D01*
X143855084Y-101839262D01*
X143916803Y-101826144D01*
X144089730Y-101749151D01*
X144242871Y-101637888D01*
X144248598Y-101631527D01*
X144308084Y-101594879D01*
X144340747Y-101590500D01*
X147124253Y-101590500D01*
X147191292Y-101610185D01*
X147216400Y-101631526D01*
X147222129Y-101637888D01*
X147375270Y-101749151D01*
X147375271Y-101749151D01*
X147375272Y-101749152D01*
X147548197Y-101826144D01*
X147733352Y-101865500D01*
X147775547Y-101865500D01*
X147842586Y-101885185D01*
X147888341Y-101937989D01*
X147898285Y-102007147D01*
X147869260Y-102070703D01*
X147863228Y-102077181D01*
X144049228Y-105891181D01*
X143987905Y-105924666D01*
X143961547Y-105927500D01*
X139154815Y-105927500D01*
X139087776Y-105907815D01*
X139042021Y-105855011D01*
X139032077Y-105785853D01*
X139043815Y-105748229D01*
X139130151Y-105574840D01*
X139188704Y-105369050D01*
X139191566Y-105338154D01*
X139208446Y-105156000D01*
X139188704Y-104942952D01*
X139188704Y-104942949D01*
X139130151Y-104737159D01*
X139034783Y-104545632D01*
X138905840Y-104374884D01*
X138747724Y-104230743D01*
X138565810Y-104118107D01*
X138565809Y-104118107D01*
X138366297Y-104040815D01*
X138190153Y-104007888D01*
X138127874Y-103976221D01*
X138092601Y-103915909D01*
X138095535Y-103846100D01*
X138135744Y-103788960D01*
X138190152Y-103764112D01*
X138366297Y-103731185D01*
X138565810Y-103653893D01*
X138747722Y-103541258D01*
X138905841Y-103397114D01*
X139034781Y-103226370D01*
X139034781Y-103226368D01*
X139034783Y-103226367D01*
X139130151Y-103034840D01*
X139188704Y-102829050D01*
X139191566Y-102798154D01*
X139208446Y-102616000D01*
X139188704Y-102402952D01*
X139188704Y-102402949D01*
X139130151Y-102197159D01*
X139034783Y-102005632D01*
X138905840Y-101834884D01*
X138747724Y-101690743D01*
X138565810Y-101578107D01*
X138565809Y-101578107D01*
X138366297Y-101500815D01*
X138190153Y-101467888D01*
X138127874Y-101436221D01*
X138092601Y-101375909D01*
X138095535Y-101306100D01*
X138135744Y-101248960D01*
X138190152Y-101224112D01*
X138366297Y-101191185D01*
X138565810Y-101113893D01*
X138747722Y-101001258D01*
X138905841Y-100857114D01*
X139034781Y-100686370D01*
X139034781Y-100686368D01*
X139034783Y-100686367D01*
X139130151Y-100494840D01*
X139188704Y-100289050D01*
X139198730Y-100180848D01*
X139208446Y-100076000D01*
X139188704Y-99862952D01*
X139188704Y-99862949D01*
X139130151Y-99657159D01*
X139034783Y-99465632D01*
X138905840Y-99294884D01*
X138747724Y-99150743D01*
X138565810Y-99038107D01*
X138501440Y-99013170D01*
X138366297Y-98960815D01*
X138190153Y-98927888D01*
X138127874Y-98896221D01*
X138092601Y-98835909D01*
X138095535Y-98766100D01*
X138135744Y-98708960D01*
X138190152Y-98684112D01*
X138366297Y-98651185D01*
X138565810Y-98573893D01*
X138747722Y-98461258D01*
X138905841Y-98317114D01*
X139034781Y-98146370D01*
X139034781Y-98146368D01*
X139034783Y-98146367D01*
X139130151Y-97954840D01*
X139188704Y-97749050D01*
X139191790Y-97715739D01*
X139208446Y-97536000D01*
X139188704Y-97322952D01*
X139188704Y-97322949D01*
X139130151Y-97117159D01*
X139034783Y-96925632D01*
X138905840Y-96754884D01*
X138747724Y-96610743D01*
X138565810Y-96498107D01*
X138565809Y-96498107D01*
X138366297Y-96420815D01*
X138190153Y-96387888D01*
X138127874Y-96356221D01*
X138092601Y-96295909D01*
X138095535Y-96226100D01*
X138135744Y-96168960D01*
X138190152Y-96144112D01*
X138366297Y-96111185D01*
X138565810Y-96033893D01*
X138747722Y-95921258D01*
X138860765Y-95818206D01*
X138905840Y-95777115D01*
X138905841Y-95777114D01*
X139034781Y-95606370D01*
X139034781Y-95606368D01*
X139034783Y-95606367D01*
X139130151Y-95414840D01*
X139188704Y-95209050D01*
X139191566Y-95178154D01*
X139208446Y-94996000D01*
X139188704Y-94782952D01*
X139188704Y-94782949D01*
X139130151Y-94577159D01*
X139034783Y-94385632D01*
X138905840Y-94214884D01*
X138747724Y-94070743D01*
X138565810Y-93958107D01*
X138565809Y-93958107D01*
X138366297Y-93880815D01*
X138190153Y-93847888D01*
X138127874Y-93816221D01*
X138092601Y-93755909D01*
X138095535Y-93686100D01*
X138135744Y-93628960D01*
X138190152Y-93604112D01*
X138366297Y-93571185D01*
X138565810Y-93493893D01*
X138747722Y-93381258D01*
X138905841Y-93237114D01*
X139034781Y-93066370D01*
X139034781Y-93066368D01*
X139034783Y-93066367D01*
X139130151Y-92874840D01*
X139188704Y-92669050D01*
X139191790Y-92635739D01*
X139208446Y-92456000D01*
X139188704Y-92242952D01*
X139188704Y-92242949D01*
X139130151Y-92037159D01*
X139034783Y-91845632D01*
X138905840Y-91674884D01*
X138747724Y-91530743D01*
X138565810Y-91418107D01*
X138565809Y-91418107D01*
X138366297Y-91340815D01*
X138190153Y-91307888D01*
X138127874Y-91276221D01*
X138092601Y-91215909D01*
X138095535Y-91146100D01*
X138135744Y-91088960D01*
X138190152Y-91064112D01*
X138366297Y-91031185D01*
X138565810Y-90953893D01*
X138747722Y-90841258D01*
X138853134Y-90745162D01*
X138905840Y-90697115D01*
X139034783Y-90526367D01*
X139130151Y-90334840D01*
X139188704Y-90129050D01*
X139203947Y-89964547D01*
X139208446Y-89916000D01*
X139188704Y-89702952D01*
X139188704Y-89702949D01*
X139130151Y-89497159D01*
X139034783Y-89305632D01*
X138905840Y-89134884D01*
X138747724Y-88990743D01*
X138565810Y-88878107D01*
X138565809Y-88878106D01*
X138366297Y-88800815D01*
X138190153Y-88767888D01*
X138127874Y-88736221D01*
X138092601Y-88675909D01*
X138095535Y-88606100D01*
X138135744Y-88548960D01*
X138190152Y-88524112D01*
X138366297Y-88491185D01*
X138565810Y-88413893D01*
X138747722Y-88301258D01*
X138905841Y-88157114D01*
X139034781Y-87986370D01*
X139034781Y-87986368D01*
X139034783Y-87986367D01*
X139130151Y-87794840D01*
X139188704Y-87589050D01*
X139191790Y-87555739D01*
X139208446Y-87376000D01*
X139188704Y-87162952D01*
X139188704Y-87162949D01*
X139130151Y-86957159D01*
X139034783Y-86765632D01*
X138905840Y-86594884D01*
X138747724Y-86450743D01*
X138565810Y-86338107D01*
X138565809Y-86338106D01*
X138366297Y-86260815D01*
X138190153Y-86227888D01*
X138127874Y-86196221D01*
X138092601Y-86135909D01*
X138095535Y-86066100D01*
X138135744Y-86008960D01*
X138190152Y-85984112D01*
X138366297Y-85951185D01*
X138565810Y-85873893D01*
X138747722Y-85761258D01*
X138905841Y-85617114D01*
X139034781Y-85446370D01*
X139034781Y-85446368D01*
X139034783Y-85446367D01*
X139130151Y-85254840D01*
X139188704Y-85049050D01*
X139191790Y-85015739D01*
X139208446Y-84836000D01*
X139188704Y-84622952D01*
X139188704Y-84622949D01*
X139130151Y-84417159D01*
X139034783Y-84225632D01*
X138905840Y-84054884D01*
X138747724Y-83910743D01*
X138565810Y-83798107D01*
X138565809Y-83798106D01*
X138366297Y-83720815D01*
X138190153Y-83687888D01*
X138127874Y-83656221D01*
X138092601Y-83595909D01*
X138095535Y-83526100D01*
X138135744Y-83468960D01*
X138190152Y-83444112D01*
X138366297Y-83411185D01*
X138565810Y-83333893D01*
X138747722Y-83221258D01*
X138905841Y-83077114D01*
X139034781Y-82906370D01*
X139034781Y-82906368D01*
X139034783Y-82906367D01*
X139130151Y-82714840D01*
X139188704Y-82509050D01*
X139191790Y-82475739D01*
X139208446Y-82296000D01*
X139188704Y-82082952D01*
X139188704Y-82082949D01*
X139130151Y-81877159D01*
X139034783Y-81685632D01*
X138905840Y-81514884D01*
X138747724Y-81370743D01*
X138565810Y-81258107D01*
X138565809Y-81258106D01*
X138366297Y-81180815D01*
X138190153Y-81147888D01*
X138127874Y-81116221D01*
X138092601Y-81055909D01*
X138095535Y-80986100D01*
X138135744Y-80928960D01*
X138190152Y-80904112D01*
X138366297Y-80871185D01*
X138565810Y-80793893D01*
X138747722Y-80681258D01*
X138905841Y-80537114D01*
X139034781Y-80366370D01*
X139034781Y-80366368D01*
X139034783Y-80366367D01*
X139130151Y-80174840D01*
X139188704Y-79969050D01*
X139196849Y-79881148D01*
X139208446Y-79756000D01*
X139192998Y-79589292D01*
X139188704Y-79542949D01*
X139130151Y-79337159D01*
X139034783Y-79145632D01*
X138905840Y-78974884D01*
X138747724Y-78830743D01*
X138565810Y-78718107D01*
X138565809Y-78718106D01*
X138366297Y-78640815D01*
X138275148Y-78623776D01*
X138188795Y-78607634D01*
X138126514Y-78575965D01*
X138091241Y-78515653D01*
X138094175Y-78445845D01*
X138134384Y-78388705D01*
X138188795Y-78363856D01*
X138366160Y-78330701D01*
X138565586Y-78253443D01*
X138668913Y-78189465D01*
X138093401Y-77613953D01*
X138174148Y-77601165D01*
X138287045Y-77543641D01*
X138376641Y-77454045D01*
X138434165Y-77341148D01*
X138446953Y-77260400D01*
X139025018Y-77838465D01*
X139034355Y-77826102D01*
X139129684Y-77634656D01*
X139188210Y-77428957D01*
X139207943Y-77216000D01*
X139188210Y-77003042D01*
X139129684Y-76797343D01*
X139034353Y-76605893D01*
X139025019Y-76593533D01*
X138446953Y-77171598D01*
X138434165Y-77090852D01*
X138376641Y-76977955D01*
X138287045Y-76888359D01*
X138174148Y-76830835D01*
X138093400Y-76818046D01*
X138668913Y-76242533D01*
X138668912Y-76242532D01*
X138565589Y-76178557D01*
X138366159Y-76101298D01*
X138155932Y-76062000D01*
X137942068Y-76062000D01*
X137731840Y-76101298D01*
X137532410Y-76178557D01*
X137429086Y-76242532D01*
X137429085Y-76242533D01*
X138004599Y-76818046D01*
X137923852Y-76830835D01*
X137810955Y-76888359D01*
X137721359Y-76977955D01*
X137663835Y-77090852D01*
X137651046Y-77171598D01*
X137072980Y-76593532D01*
X137063646Y-76605895D01*
X136968315Y-76797343D01*
X136909789Y-77003042D01*
X136890056Y-77216000D01*
X136909789Y-77428957D01*
X136968315Y-77634656D01*
X137063646Y-77826105D01*
X137072980Y-77838466D01*
X137651046Y-77260400D01*
X137663835Y-77341148D01*
X137721359Y-77454045D01*
X137810955Y-77543641D01*
X137923852Y-77601165D01*
X138004599Y-77613953D01*
X137429085Y-78189465D01*
X137532413Y-78253443D01*
X137731839Y-78330701D01*
X137909204Y-78363856D01*
X137971485Y-78395524D01*
X138006758Y-78455836D01*
X138003824Y-78525644D01*
X137963616Y-78582785D01*
X137909205Y-78607634D01*
X137731702Y-78640815D01*
X137532189Y-78718107D01*
X137350275Y-78830743D01*
X137192159Y-78974884D01*
X137063216Y-79145632D01*
X136967848Y-79337159D01*
X136909295Y-79542949D01*
X136889554Y-79756000D01*
X136909295Y-79969050D01*
X136967848Y-80174840D01*
X137063216Y-80366367D01*
X137192159Y-80537115D01*
X137350275Y-80681256D01*
X137350277Y-80681257D01*
X137350278Y-80681258D01*
X137532190Y-80793893D01*
X137731703Y-80871185D01*
X137907845Y-80904111D01*
X137970125Y-80935779D01*
X138005398Y-80996092D01*
X138002464Y-81065900D01*
X137962255Y-81123040D01*
X137907845Y-81147888D01*
X137731703Y-81180814D01*
X137731703Y-81180815D01*
X137532189Y-81258107D01*
X137350275Y-81370743D01*
X137192159Y-81514884D01*
X137063216Y-81685632D01*
X136967848Y-81877159D01*
X136909295Y-82082949D01*
X136889554Y-82296000D01*
X136909295Y-82509050D01*
X136967848Y-82714840D01*
X137063216Y-82906367D01*
X137192159Y-83077115D01*
X137350275Y-83221256D01*
X137350277Y-83221257D01*
X137350278Y-83221258D01*
X137532190Y-83333893D01*
X137731703Y-83411185D01*
X137907845Y-83444111D01*
X137970125Y-83475779D01*
X138005398Y-83536092D01*
X138002464Y-83605900D01*
X137962255Y-83663040D01*
X137907845Y-83687888D01*
X137731703Y-83720815D01*
X137532189Y-83798107D01*
X137350275Y-83910743D01*
X137192159Y-84054884D01*
X137063216Y-84225632D01*
X136967848Y-84417159D01*
X136909295Y-84622949D01*
X136889554Y-84836000D01*
X136909295Y-85049050D01*
X136967848Y-85254840D01*
X137063216Y-85446367D01*
X137192159Y-85617115D01*
X137350275Y-85761256D01*
X137350277Y-85761257D01*
X137350278Y-85761258D01*
X137532190Y-85873893D01*
X137731703Y-85951185D01*
X137907846Y-85984111D01*
X137970124Y-86015778D01*
X138005398Y-86076090D01*
X138002465Y-86145898D01*
X137962256Y-86203038D01*
X137907845Y-86227888D01*
X137731702Y-86260815D01*
X137532189Y-86338107D01*
X137350275Y-86450743D01*
X137192159Y-86594884D01*
X137063216Y-86765632D01*
X136967848Y-86957159D01*
X136909295Y-87162949D01*
X136889554Y-87376000D01*
X136909295Y-87589050D01*
X136967848Y-87794840D01*
X137063216Y-87986367D01*
X137192159Y-88157115D01*
X137350275Y-88301256D01*
X137350277Y-88301257D01*
X137350278Y-88301258D01*
X137532190Y-88413893D01*
X137731703Y-88491185D01*
X137907845Y-88524111D01*
X137970125Y-88555779D01*
X138005398Y-88616092D01*
X138002464Y-88685900D01*
X137962255Y-88743040D01*
X137907845Y-88767888D01*
X137731702Y-88800815D01*
X137731703Y-88800815D01*
X137532189Y-88878107D01*
X137350275Y-88990743D01*
X137192159Y-89134884D01*
X137063216Y-89305632D01*
X136967848Y-89497159D01*
X136909295Y-89702949D01*
X136889554Y-89916000D01*
X136909295Y-90129050D01*
X136967848Y-90334840D01*
X137063216Y-90526367D01*
X137192159Y-90697115D01*
X137350275Y-90841256D01*
X137350277Y-90841257D01*
X137350278Y-90841258D01*
X137532190Y-90953893D01*
X137731703Y-91031185D01*
X137907845Y-91064111D01*
X137970125Y-91095779D01*
X138005398Y-91156092D01*
X138002464Y-91225900D01*
X137962255Y-91283040D01*
X137907845Y-91307888D01*
X137731703Y-91340814D01*
X137731703Y-91340815D01*
X137532189Y-91418107D01*
X137350275Y-91530743D01*
X137192159Y-91674884D01*
X137063216Y-91845632D01*
X136967848Y-92037159D01*
X136909295Y-92242949D01*
X136889554Y-92456000D01*
X136909295Y-92669050D01*
X136967848Y-92874840D01*
X137063216Y-93066367D01*
X137192159Y-93237115D01*
X137350275Y-93381256D01*
X137350277Y-93381257D01*
X137350278Y-93381258D01*
X137532190Y-93493893D01*
X137731703Y-93571185D01*
X137907845Y-93604111D01*
X137970125Y-93635779D01*
X138005398Y-93696092D01*
X138002464Y-93765900D01*
X137962255Y-93823040D01*
X137907845Y-93847888D01*
X137731702Y-93880815D01*
X137731703Y-93880815D01*
X137532189Y-93958107D01*
X137350275Y-94070743D01*
X137192159Y-94214884D01*
X137063216Y-94385632D01*
X136967848Y-94577159D01*
X136909295Y-94782949D01*
X136889554Y-94995999D01*
X136909295Y-95209050D01*
X136967848Y-95414840D01*
X137063216Y-95606367D01*
X137192159Y-95777115D01*
X137350275Y-95921256D01*
X137350277Y-95921257D01*
X137350278Y-95921258D01*
X137532190Y-96033893D01*
X137731703Y-96111185D01*
X137907846Y-96144111D01*
X137970124Y-96175778D01*
X138005398Y-96236090D01*
X138002465Y-96305898D01*
X137962256Y-96363038D01*
X137907845Y-96387888D01*
X137731702Y-96420815D01*
X137532189Y-96498107D01*
X137350275Y-96610743D01*
X137192159Y-96754884D01*
X137063216Y-96925632D01*
X136967848Y-97117159D01*
X136909295Y-97322949D01*
X136889554Y-97536000D01*
X136909295Y-97749050D01*
X136967848Y-97954840D01*
X137063216Y-98146367D01*
X137192159Y-98317115D01*
X137350275Y-98461256D01*
X137350277Y-98461257D01*
X137350278Y-98461258D01*
X137532190Y-98573893D01*
X137731703Y-98651185D01*
X137907845Y-98684111D01*
X137970125Y-98715779D01*
X138005398Y-98776092D01*
X138002464Y-98845900D01*
X137962255Y-98903040D01*
X137907845Y-98927888D01*
X137731703Y-98960815D01*
X137532189Y-99038107D01*
X137350275Y-99150743D01*
X137192159Y-99294884D01*
X137063216Y-99465632D01*
X136967848Y-99657159D01*
X136909295Y-99862949D01*
X136889554Y-100076000D01*
X136909295Y-100289050D01*
X136967848Y-100494840D01*
X137063216Y-100686367D01*
X137192159Y-100857115D01*
X137350275Y-101001256D01*
X137350277Y-101001257D01*
X137350278Y-101001258D01*
X137532190Y-101113893D01*
X137731703Y-101191185D01*
X137907845Y-101224111D01*
X137970125Y-101255779D01*
X138005398Y-101316092D01*
X138002464Y-101385900D01*
X137962255Y-101443040D01*
X137907845Y-101467888D01*
X137750956Y-101497216D01*
X137731703Y-101500815D01*
X137532189Y-101578107D01*
X137350275Y-101690743D01*
X137192159Y-101834884D01*
X137063216Y-102005632D01*
X136967848Y-102197159D01*
X136909295Y-102402949D01*
X136889554Y-102615999D01*
X136909295Y-102829050D01*
X136967848Y-103034840D01*
X137063216Y-103226367D01*
X137192159Y-103397115D01*
X137350275Y-103541256D01*
X137350277Y-103541257D01*
X137350278Y-103541258D01*
X137532190Y-103653893D01*
X137731703Y-103731185D01*
X137907845Y-103764111D01*
X137970125Y-103795779D01*
X138005398Y-103856092D01*
X138002464Y-103925900D01*
X137962255Y-103983040D01*
X137907845Y-104007888D01*
X137731703Y-104040815D01*
X137532189Y-104118107D01*
X137350275Y-104230743D01*
X137192159Y-104374884D01*
X137063216Y-104545632D01*
X136967848Y-104737159D01*
X136909295Y-104942949D01*
X136889554Y-105155999D01*
X136909295Y-105369050D01*
X136967848Y-105574840D01*
X137063216Y-105766367D01*
X137192159Y-105937115D01*
X137277509Y-106014921D01*
X137313791Y-106074632D01*
X137312030Y-106144479D01*
X137281652Y-106194239D01*
X133603208Y-109872683D01*
X133587110Y-109885580D01*
X133539096Y-109936709D01*
X133536392Y-109939500D01*
X133519628Y-109956264D01*
X133519621Y-109956271D01*
X133516880Y-109959013D01*
X133514499Y-109962081D01*
X133514490Y-109962092D01*
X133514411Y-109962195D01*
X133506842Y-109971056D01*
X133476935Y-110002904D01*
X133467285Y-110020458D01*
X133456609Y-110036712D01*
X133444326Y-110052547D01*
X133426975Y-110092642D01*
X133421838Y-110103128D01*
X133400802Y-110141391D01*
X133395821Y-110160793D01*
X133389520Y-110179195D01*
X133381561Y-110197586D01*
X133374728Y-110240726D01*
X133372360Y-110252158D01*
X133361500Y-110294461D01*
X133361500Y-110314500D01*
X133359973Y-110333898D01*
X133356840Y-110353678D01*
X133360950Y-110397157D01*
X133361500Y-110408827D01*
X133361499Y-134772683D01*
X133341814Y-134839722D01*
X133289010Y-134885477D01*
X133219852Y-134895421D01*
X133211718Y-134893973D01*
X133063648Y-134862500D01*
X133063646Y-134862500D01*
X132874354Y-134862500D01*
X132874352Y-134862500D01*
X132689197Y-134901855D01*
X132516269Y-134978848D01*
X132363129Y-135090110D01*
X132236466Y-135230783D01*
X132141820Y-135394715D01*
X132083326Y-135574742D01*
X132063540Y-135763000D01*
X132083326Y-135951257D01*
X132141820Y-136131284D01*
X132236466Y-136295216D01*
X132363129Y-136435889D01*
X132516269Y-136547151D01*
X132689197Y-136624144D01*
X132874352Y-136663500D01*
X132874354Y-136663500D01*
X132933548Y-136663500D01*
X133000587Y-136683185D01*
X133021228Y-136699818D01*
X133325181Y-137003771D01*
X133358665Y-137065093D01*
X133361499Y-137091451D01*
X133361499Y-140364608D01*
X133341814Y-140431647D01*
X133329658Y-140447570D01*
X133329469Y-140447778D01*
X133234820Y-140611715D01*
X133176326Y-140791742D01*
X133176325Y-140791744D01*
X133176326Y-140791744D01*
X133168613Y-140865136D01*
X133167511Y-140875617D01*
X133140926Y-140940231D01*
X133083629Y-140980216D01*
X133013810Y-140982876D01*
X132953636Y-140947366D01*
X132952040Y-140945627D01*
X132939869Y-140932110D01*
X132786730Y-140820848D01*
X132613802Y-140743855D01*
X132428648Y-140704500D01*
X132428646Y-140704500D01*
X132263387Y-140704500D01*
X132196348Y-140684815D01*
X132175706Y-140668181D01*
X128094819Y-136587294D01*
X128061334Y-136525971D01*
X128058500Y-136499613D01*
X128058500Y-130327386D01*
X128078185Y-130260347D01*
X128094819Y-130239705D01*
X130239705Y-128094819D01*
X130301028Y-128061334D01*
X130327386Y-128058500D01*
X131435722Y-128058500D01*
X131502761Y-128078185D01*
X131527872Y-128099528D01*
X131601129Y-128180889D01*
X131754269Y-128292151D01*
X131927197Y-128369144D01*
X132112352Y-128408500D01*
X132112354Y-128408500D01*
X132301648Y-128408500D01*
X132425083Y-128382262D01*
X132486803Y-128369144D01*
X132659730Y-128292151D01*
X132709785Y-128255784D01*
X132812870Y-128180889D01*
X132939533Y-128040216D01*
X133034179Y-127876284D01*
X133058007Y-127802949D01*
X133092674Y-127696256D01*
X133112460Y-127508000D01*
X133092674Y-127319744D01*
X133040625Y-127159555D01*
X133034179Y-127139715D01*
X132939533Y-126975783D01*
X132812870Y-126835110D01*
X132659730Y-126723848D01*
X132486802Y-126646855D01*
X132301648Y-126607500D01*
X132301646Y-126607500D01*
X132112354Y-126607500D01*
X132112352Y-126607500D01*
X131927197Y-126646855D01*
X131754269Y-126723848D01*
X131601129Y-126835110D01*
X131527872Y-126916472D01*
X131468385Y-126953121D01*
X131435722Y-126957500D01*
X130059522Y-126957500D01*
X130055289Y-126957428D01*
X129991173Y-126955237D01*
X129951255Y-126964965D01*
X129938784Y-126967335D01*
X129898078Y-126972930D01*
X129881612Y-126980082D01*
X129861578Y-126986818D01*
X129844150Y-126991065D01*
X129808333Y-127011203D01*
X129796970Y-127016847D01*
X129759277Y-127033220D01*
X129745358Y-127044545D01*
X129727883Y-127056439D01*
X129712239Y-127065235D01*
X129683185Y-127094288D01*
X129673764Y-127102791D01*
X129641891Y-127128722D01*
X129631540Y-127143386D01*
X129617919Y-127159555D01*
X127889181Y-128888293D01*
X127827858Y-128921778D01*
X127758166Y-128916794D01*
X127702233Y-128874922D01*
X127677816Y-128809458D01*
X127677500Y-128800612D01*
X127677500Y-123855668D01*
X127697185Y-123788629D01*
X127714993Y-123766829D01*
X131781168Y-119807657D01*
X131842932Y-119774993D01*
X131867672Y-119772500D01*
X132047648Y-119772500D01*
X132171083Y-119746262D01*
X132232803Y-119733144D01*
X132405730Y-119656151D01*
X132462527Y-119614886D01*
X132558870Y-119544889D01*
X132562302Y-119541078D01*
X132685533Y-119404216D01*
X132780179Y-119240284D01*
X132838674Y-119060256D01*
X132858460Y-118872000D01*
X132838674Y-118683744D01*
X132794647Y-118548243D01*
X132780179Y-118503715D01*
X132685533Y-118339783D01*
X132558870Y-118199110D01*
X132405730Y-118087848D01*
X132232802Y-118010855D01*
X132047648Y-117971500D01*
X132047646Y-117971500D01*
X131858354Y-117971500D01*
X131858352Y-117971500D01*
X131673197Y-118010855D01*
X131500269Y-118087848D01*
X131347129Y-118199110D01*
X131220466Y-118339783D01*
X131125820Y-118503715D01*
X131067326Y-118683742D01*
X131047540Y-118871999D01*
X131052052Y-118914934D01*
X131039482Y-118983664D01*
X131015235Y-119016736D01*
X126748017Y-123171657D01*
X126746153Y-123173435D01*
X126695954Y-123220321D01*
X126676948Y-123251572D01*
X126668804Y-123263369D01*
X126646313Y-123292222D01*
X126637789Y-123313020D01*
X126629005Y-123330413D01*
X126617327Y-123349617D01*
X126607457Y-123384844D01*
X126602795Y-123398407D01*
X126588925Y-123432250D01*
X126586329Y-123454569D01*
X126582564Y-123473685D01*
X126576500Y-123495333D01*
X126576500Y-123531910D01*
X126575670Y-123546234D01*
X126571444Y-123582565D01*
X118999000Y-123582565D01*
X118999000Y-108740578D01*
X121562500Y-108740578D01*
X121562501Y-108743872D01*
X121562853Y-108747152D01*
X121562854Y-108747159D01*
X121568909Y-108803484D01*
X121584062Y-108844111D01*
X121619204Y-108938331D01*
X121705454Y-109053546D01*
X121820669Y-109139796D01*
X121955517Y-109190091D01*
X122015127Y-109196500D01*
X124110872Y-109196499D01*
X124170483Y-109190091D01*
X124305331Y-109139796D01*
X124420546Y-109053546D01*
X124506796Y-108938331D01*
X124557091Y-108803483D01*
X124563500Y-108743873D01*
X124563499Y-107695999D01*
X126557858Y-107695999D01*
X126578386Y-107943732D01*
X126639413Y-108184721D01*
X126739268Y-108412370D01*
X126839563Y-108565882D01*
X126839564Y-108565882D01*
X127579923Y-107825523D01*
X127603507Y-107905844D01*
X127681239Y-108026798D01*
X127789900Y-108120952D01*
X127920685Y-108180680D01*
X127930466Y-108182086D01*
X127192942Y-108919609D01*
X127192942Y-108919610D01*
X127239766Y-108956055D01*
X127458393Y-109074368D01*
X127693506Y-109155083D01*
X127938707Y-109196000D01*
X128187293Y-109196000D01*
X128432493Y-109155083D01*
X128667606Y-109074368D01*
X128886233Y-108956053D01*
X128933056Y-108919609D01*
X128195533Y-108182086D01*
X128205315Y-108180680D01*
X128336100Y-108120952D01*
X128444761Y-108026798D01*
X128522493Y-107905844D01*
X128546076Y-107825524D01*
X129286434Y-108565882D01*
X129386730Y-108412369D01*
X129486586Y-108184721D01*
X129547613Y-107943732D01*
X129568141Y-107696000D01*
X129547613Y-107448267D01*
X129486586Y-107207278D01*
X129386730Y-106979630D01*
X129286434Y-106826116D01*
X128546076Y-107566475D01*
X128522493Y-107486156D01*
X128444761Y-107365202D01*
X128336100Y-107271048D01*
X128205315Y-107211320D01*
X128195534Y-107209913D01*
X128933057Y-106472390D01*
X128933056Y-106472388D01*
X128886235Y-106435947D01*
X128667606Y-106317631D01*
X128432493Y-106236916D01*
X128187293Y-106196000D01*
X127938707Y-106196000D01*
X127693506Y-106236916D01*
X127458393Y-106317631D01*
X127239764Y-106435946D01*
X127192942Y-106472388D01*
X127192942Y-106472390D01*
X127930466Y-107209913D01*
X127920685Y-107211320D01*
X127789900Y-107271048D01*
X127681239Y-107365202D01*
X127603507Y-107486156D01*
X127579923Y-107566475D01*
X126839564Y-106826116D01*
X126739266Y-106979634D01*
X126639413Y-107207278D01*
X126578386Y-107448267D01*
X126557858Y-107695999D01*
X124563499Y-107695999D01*
X124563499Y-106648128D01*
X124557091Y-106588517D01*
X124506796Y-106453669D01*
X124420546Y-106338454D01*
X124305331Y-106252204D01*
X124170483Y-106201909D01*
X124170483Y-106201908D01*
X124114166Y-106195854D01*
X124114165Y-106195853D01*
X124110873Y-106195500D01*
X124107550Y-106195500D01*
X122018439Y-106195500D01*
X122018420Y-106195500D01*
X122015128Y-106195501D01*
X122011848Y-106195853D01*
X122011840Y-106195854D01*
X121955515Y-106201909D01*
X121820669Y-106252204D01*
X121705454Y-106338454D01*
X121619204Y-106453668D01*
X121568910Y-106588515D01*
X121568909Y-106588517D01*
X121562500Y-106648127D01*
X121562500Y-106651448D01*
X121562500Y-106651449D01*
X121562500Y-108740560D01*
X121562500Y-108740578D01*
X118999000Y-108740578D01*
X118999000Y-90931999D01*
X128486464Y-90931999D01*
X128506564Y-91148925D01*
X128566181Y-91358457D01*
X128663287Y-91553471D01*
X128794573Y-91727323D01*
X128924351Y-91845630D01*
X128955568Y-91874088D01*
X129048179Y-91931430D01*
X129140791Y-91988773D01*
X129324991Y-92060132D01*
X129343931Y-92067470D01*
X129558074Y-92107500D01*
X129558076Y-92107500D01*
X129775924Y-92107500D01*
X129775926Y-92107500D01*
X129990069Y-92067470D01*
X130125496Y-92015004D01*
X130193208Y-91988773D01*
X130193210Y-91988772D01*
X130378432Y-91874088D01*
X130539427Y-91727322D01*
X130670712Y-91553472D01*
X130767817Y-91358459D01*
X130767818Y-91358457D01*
X130827435Y-91148925D01*
X130830349Y-91117467D01*
X130847536Y-90932000D01*
X130827435Y-90715077D01*
X130827435Y-90715074D01*
X130767818Y-90505542D01*
X130670712Y-90310528D01*
X130589252Y-90202657D01*
X130564560Y-90137295D01*
X130579125Y-90068961D01*
X130613894Y-90028664D01*
X130699546Y-89964546D01*
X130785796Y-89849331D01*
X130836091Y-89714483D01*
X130842500Y-89654873D01*
X130842499Y-88209128D01*
X130836091Y-88149517D01*
X130785796Y-88014669D01*
X130699546Y-87899454D01*
X130584331Y-87813204D01*
X130449483Y-87762909D01*
X130389873Y-87756500D01*
X130386550Y-87756500D01*
X128947439Y-87756500D01*
X128947420Y-87756500D01*
X128944128Y-87756501D01*
X128940848Y-87756853D01*
X128940840Y-87756854D01*
X128884515Y-87762909D01*
X128749669Y-87813204D01*
X128634454Y-87899454D01*
X128548204Y-88014668D01*
X128497910Y-88149515D01*
X128497909Y-88149517D01*
X128491500Y-88209127D01*
X128491500Y-88212448D01*
X128491500Y-88212449D01*
X128491500Y-89651560D01*
X128491500Y-89651578D01*
X128491501Y-89654872D01*
X128497909Y-89714483D01*
X128548204Y-89849331D01*
X128598112Y-89915999D01*
X128634455Y-89964548D01*
X128720104Y-90028665D01*
X128761975Y-90084598D01*
X128766959Y-90154290D01*
X128744747Y-90202657D01*
X128663288Y-90310525D01*
X128566181Y-90505542D01*
X128506564Y-90715074D01*
X128486464Y-90931999D01*
X118999000Y-90931999D01*
X118999000Y-75822999D01*
X126373494Y-75822999D01*
X126373495Y-75823000D01*
X127208314Y-75823000D01*
X127196359Y-75834955D01*
X127138835Y-75947852D01*
X127119014Y-76073000D01*
X127138835Y-76198148D01*
X127196359Y-76311045D01*
X127208314Y-76323000D01*
X126373495Y-76323000D01*
X126423651Y-76499278D01*
X126520712Y-76694205D01*
X126651944Y-76867985D01*
X126812868Y-77014685D01*
X126998012Y-77129322D01*
X127201069Y-77207986D01*
X127274000Y-77221619D01*
X127274000Y-76388686D01*
X127285955Y-76400641D01*
X127398852Y-76458165D01*
X127492519Y-76473000D01*
X127555481Y-76473000D01*
X127649148Y-76458165D01*
X127762045Y-76400641D01*
X127773999Y-76388686D01*
X127773999Y-77221619D01*
X127846930Y-77207986D01*
X128049987Y-77129322D01*
X128235130Y-77014685D01*
X128246107Y-77004679D01*
X128308910Y-76974060D01*
X128378297Y-76982256D01*
X128428913Y-77022002D01*
X128491454Y-77105546D01*
X128606669Y-77191796D01*
X128741517Y-77242091D01*
X128801127Y-77248500D01*
X130246872Y-77248499D01*
X130306483Y-77242091D01*
X130441331Y-77191796D01*
X130556546Y-77105546D01*
X130642796Y-76990331D01*
X130693091Y-76855483D01*
X130699500Y-76795873D01*
X130699499Y-75350128D01*
X130693091Y-75290517D01*
X130642796Y-75155669D01*
X130556546Y-75040454D01*
X130441331Y-74954204D01*
X130306483Y-74903909D01*
X130246873Y-74897500D01*
X130243550Y-74897500D01*
X128804439Y-74897500D01*
X128804420Y-74897500D01*
X128801128Y-74897501D01*
X128797848Y-74897853D01*
X128797840Y-74897854D01*
X128741515Y-74903909D01*
X128606669Y-74954204D01*
X128491451Y-75040455D01*
X128428913Y-75123996D01*
X128372980Y-75165867D01*
X128303288Y-75170851D01*
X128246109Y-75141322D01*
X128235131Y-75131314D01*
X128049987Y-75016677D01*
X127846927Y-74938011D01*
X127774000Y-74924378D01*
X127773999Y-74924379D01*
X127773999Y-75757313D01*
X127762045Y-75745359D01*
X127649148Y-75687835D01*
X127555481Y-75673000D01*
X127492519Y-75673000D01*
X127398852Y-75687835D01*
X127285955Y-75745359D01*
X127273999Y-75757314D01*
X127274000Y-74924379D01*
X127273998Y-74924378D01*
X127201072Y-74938011D01*
X126998012Y-75016677D01*
X126812868Y-75131314D01*
X126651944Y-75278014D01*
X126520712Y-75451794D01*
X126423651Y-75646721D01*
X126373494Y-75822999D01*
X118999000Y-75822999D01*
X118999000Y-72387000D01*
X119018685Y-72319961D01*
X119071489Y-72274206D01*
X119123000Y-72263000D01*
X121460690Y-72263000D01*
X121524619Y-72280750D01*
G37*
%TD.AperFunction*%
%TD*%
M02*
