%TF.GenerationSoftware,KiCad,Pcbnew,7.0.2*%
%TF.CreationDate,2023-08-01T20:03:33-04:00*%
%TF.ProjectId,imu-testbed,696d752d-7465-4737-9462-65642e6b6963,rev?*%
%TF.SameCoordinates,Original*%
%TF.FileFunction,Soldermask,Top*%
%TF.FilePolarity,Negative*%
%FSLAX46Y46*%
G04 Gerber Fmt 4.6, Leading zero omitted, Abs format (unit mm)*
G04 Created by KiCad (PCBNEW 7.0.2) date 2023-08-01 20:03:33*
%MOMM*%
%LPD*%
G01*
G04 APERTURE LIST*
G04 Aperture macros list*
%AMRoundRect*
0 Rectangle with rounded corners*
0 $1 Rounding radius*
0 $2 $3 $4 $5 $6 $7 $8 $9 X,Y pos of 4 corners*
0 Add a 4 corners polygon primitive as box body*
4,1,4,$2,$3,$4,$5,$6,$7,$8,$9,$2,$3,0*
0 Add four circle primitives for the rounded corners*
1,1,$1+$1,$2,$3*
1,1,$1+$1,$4,$5*
1,1,$1+$1,$6,$7*
1,1,$1+$1,$8,$9*
0 Add four rect primitives between the rounded corners*
20,1,$1+$1,$2,$3,$4,$5,0*
20,1,$1+$1,$4,$5,$6,$7,0*
20,1,$1+$1,$6,$7,$8,$9,0*
20,1,$1+$1,$8,$9,$2,$3,0*%
%AMFreePoly0*
4,1,6,1.000000,0.000000,0.500000,-0.750000,-0.500000,-0.750000,-0.500000,0.750000,0.500000,0.750000,1.000000,0.000000,1.000000,0.000000,$1*%
%AMFreePoly1*
4,1,6,0.500000,-0.750000,-0.650000,-0.750000,-0.150000,0.000000,-0.650000,0.750000,0.500000,0.750000,0.500000,-0.750000,0.500000,-0.750000,$1*%
G04 Aperture macros list end*
%ADD10R,2.000000X2.000000*%
%ADD11C,2.000000*%
%ADD12RoundRect,0.250000X-0.262500X-0.450000X0.262500X-0.450000X0.262500X0.450000X-0.262500X0.450000X0*%
%ADD13R,1.350000X1.350000*%
%ADD14O,1.350000X1.350000*%
%ADD15FreePoly0,0.000000*%
%ADD16FreePoly1,0.000000*%
%ADD17RoundRect,0.250000X0.300000X-0.300000X0.300000X0.300000X-0.300000X0.300000X-0.300000X-0.300000X0*%
%ADD18RoundRect,0.002800X-0.262200X-0.137200X0.262200X-0.137200X0.262200X0.137200X-0.262200X0.137200X0*%
%ADD19RoundRect,0.002800X0.137200X-0.262200X0.137200X0.262200X-0.137200X0.262200X-0.137200X-0.262200X0*%
%ADD20RoundRect,0.002800X0.262200X0.137200X-0.262200X0.137200X-0.262200X-0.137200X0.262200X-0.137200X0*%
%ADD21RoundRect,0.002800X-0.137200X0.262200X-0.137200X-0.262200X0.137200X-0.262200X0.137200X0.262200X0*%
%ADD22RoundRect,0.250000X-0.475000X0.250000X-0.475000X-0.250000X0.475000X-0.250000X0.475000X0.250000X0*%
%ADD23RoundRect,0.250000X0.250000X0.475000X-0.250000X0.475000X-0.250000X-0.475000X0.250000X-0.475000X0*%
%ADD24RoundRect,0.250000X-0.250000X-0.475000X0.250000X-0.475000X0.250000X0.475000X-0.250000X0.475000X0*%
%ADD25RoundRect,0.087500X-0.125000X-0.087500X0.125000X-0.087500X0.125000X0.087500X-0.125000X0.087500X0*%
%ADD26RoundRect,0.087500X-0.087500X-0.125000X0.087500X-0.125000X0.087500X0.125000X-0.087500X0.125000X0*%
%ADD27C,1.308000*%
G04 APERTURE END LIST*
D10*
%TO.C,BZ1*%
X123063000Y-107696000D03*
D11*
X128063000Y-107696000D03*
%TD*%
D12*
%TO.C,R14*%
X129008500Y-99822000D03*
X130833500Y-99822000D03*
%TD*%
%TO.C,R13*%
X128985000Y-96364000D03*
X130810000Y-96364000D03*
%TD*%
D13*
%TO.C,J2*%
X129667000Y-88932000D03*
D14*
X129667000Y-90932000D03*
%TD*%
D15*
%TO.C,R12*%
X128651000Y-145288000D03*
D16*
X130101000Y-145288000D03*
%TD*%
D15*
%TO.C,R11*%
X128651000Y-142627000D03*
D16*
X130101000Y-142627000D03*
%TD*%
%TO.C,R10*%
X154485000Y-145282000D03*
D15*
X153035000Y-145282000D03*
%TD*%
D16*
%TO.C,R9*%
X154485000Y-142621000D03*
D15*
X153035000Y-142621000D03*
%TD*%
D14*
%TO.C,J1*%
X127524000Y-76073000D03*
D13*
X129524000Y-76073000D03*
%TD*%
D17*
%TO.C,D1*%
X129667000Y-85093000D03*
X129667000Y-82293000D03*
%TD*%
D18*
%TO.C,U3*%
X135840000Y-141878000D03*
D19*
X135265000Y-141913000D03*
X134835000Y-141913000D03*
X134405000Y-141913000D03*
X133975000Y-141913000D03*
D20*
X133400000Y-141878000D03*
X133400000Y-142308000D03*
X133400000Y-142738000D03*
X133400000Y-143168000D03*
X133400000Y-143598000D03*
X133400000Y-144028000D03*
X133400000Y-144458000D03*
X133400000Y-144888000D03*
D21*
X133975000Y-144853000D03*
X134405000Y-144853000D03*
X134835000Y-144853000D03*
X135265000Y-144853000D03*
D18*
X135840000Y-144888000D03*
X135840000Y-144458000D03*
X135840000Y-144028000D03*
X135840000Y-143598000D03*
X135840000Y-143168000D03*
X135840000Y-142738000D03*
X135840000Y-142308000D03*
%TD*%
D22*
%TO.C,C8*%
X139269000Y-140792000D03*
X139269000Y-142692000D03*
%TD*%
%TO.C,C7*%
X139269000Y-144348000D03*
X139269000Y-146248000D03*
%TD*%
D23*
%TO.C,C6*%
X137425000Y-139583000D03*
X135525000Y-139583000D03*
%TD*%
D24*
%TO.C,C5*%
X131715000Y-139583000D03*
X133615000Y-139583000D03*
%TD*%
D18*
%TO.C,U2*%
X146077000Y-141888000D03*
D19*
X145502000Y-141923000D03*
X145072000Y-141923000D03*
X144642000Y-141923000D03*
X144212000Y-141923000D03*
D20*
X143637000Y-141888000D03*
X143637000Y-142318000D03*
X143637000Y-142748000D03*
X143637000Y-143178000D03*
X143637000Y-143608000D03*
X143637000Y-144038000D03*
X143637000Y-144468000D03*
X143637000Y-144898000D03*
D21*
X144212000Y-144863000D03*
X144642000Y-144863000D03*
X145072000Y-144863000D03*
X145502000Y-144863000D03*
D18*
X146077000Y-144898000D03*
X146077000Y-144468000D03*
X146077000Y-144038000D03*
X146077000Y-143608000D03*
X146077000Y-143178000D03*
X146077000Y-142748000D03*
X146077000Y-142318000D03*
%TD*%
D22*
%TO.C,C4*%
X149517000Y-140719000D03*
X149517000Y-142619000D03*
%TD*%
D24*
%TO.C,C3*%
X141963000Y-139510000D03*
X143863000Y-139510000D03*
%TD*%
D23*
%TO.C,C2*%
X147673000Y-139510000D03*
X145773000Y-139510000D03*
%TD*%
D22*
%TO.C,C1*%
X149517000Y-144275000D03*
X149517000Y-146175000D03*
%TD*%
D25*
%TO.C,U8*%
X132207000Y-133096000D03*
X132207000Y-133596000D03*
D26*
X132469500Y-134108500D03*
X132969500Y-134108500D03*
X133469500Y-134108500D03*
D25*
X133732000Y-133596000D03*
X133732000Y-133096000D03*
D26*
X133469500Y-132583500D03*
X132969500Y-132583500D03*
X132469500Y-132583500D03*
%TD*%
D27*
%TO.C,U1*%
X138049000Y-79756000D03*
X138049000Y-82296000D03*
X138049000Y-84836000D03*
X138049000Y-87376000D03*
X138049000Y-112776000D03*
X153289000Y-82296000D03*
X138049000Y-89916000D03*
X138049000Y-92456000D03*
X138049000Y-94996000D03*
X138049000Y-97536000D03*
X138049000Y-100076000D03*
X138049000Y-102616000D03*
X138049000Y-105156000D03*
X138049000Y-107696000D03*
X138049000Y-110236000D03*
X153289000Y-110236000D03*
X153289000Y-107696000D03*
X153289000Y-105156000D03*
X153289000Y-102616000D03*
X153289000Y-100076000D03*
X153289000Y-97536000D03*
X153289000Y-94996000D03*
X153289000Y-92456000D03*
X153289000Y-89916000D03*
X153289000Y-87376000D03*
X153289000Y-84836000D03*
X138049000Y-115316000D03*
X138049000Y-117856000D03*
X138049000Y-120396000D03*
X138049000Y-122936000D03*
X138049000Y-125476000D03*
X138049000Y-128016000D03*
X138049000Y-130556000D03*
X138049000Y-133096000D03*
X138049000Y-135636000D03*
X153289000Y-135636000D03*
X153289000Y-133096000D03*
X153289000Y-130556000D03*
X153289000Y-128016000D03*
X153289000Y-125476000D03*
X153289000Y-122936000D03*
X153289000Y-120396000D03*
X153289000Y-117856000D03*
X153289000Y-115316000D03*
X138049000Y-77216000D03*
X153289000Y-112776000D03*
X153289000Y-79756000D03*
X153289000Y-77216000D03*
%TD*%
D24*
%TO.C,C13*%
X132019000Y-130937000D03*
X133919000Y-130937000D03*
%TD*%
M02*
